<mxfile host="Electron" modified="2025-05-14T12:34:38.885Z" agent="Mozilla/5.0 (Windows NT 10.0; Win64; x64) AppleWebKit/537.36 (KHTML, like Gecko) draw.io/21.6.8 Chrome/114.0.5735.289 Electron/25.5.0 Safari/537.36" etag="9wnublTuwxx-6A9znyX1" version="21.6.8" type="device">
  <diagram name="Page-1" id="UlOoKLjMKQyOIYjccCiV">
    <mxGraphModel dx="6913" dy="3190" grid="1" gridSize="10" guides="1" tooltips="1" connect="1" arrows="1" fold="1" page="1" pageScale="1" pageWidth="1169" pageHeight="827" math="0" shadow="0">
      <root>
        <mxCell id="0" />
        <mxCell id="1" parent="0" />
        <mxCell id="PAYdBrqbt7uTRZZeqFU2-26" value="&lt;div style=&quot;&quot;&gt;&lt;span style=&quot;background-color: initial;&quot;&gt;microservice&lt;/span&gt;&lt;/div&gt;" style="rounded=0;whiteSpace=wrap;html=1;align=right;verticalAlign=top;spacing=5;strokeWidth=2;aspect=fixed;" vertex="1" parent="1">
          <mxGeometry x="2531.71" y="3727" width="265" height="265" as="geometry" />
        </mxCell>
        <mxCell id="PAYdBrqbt7uTRZZeqFU2-60" value="outbox&amp;nbsp;&amp;nbsp;" style="rounded=1;whiteSpace=wrap;html=1;dashed=1;fillColor=none;align=right;verticalAlign=bottom;" vertex="1" parent="1">
          <mxGeometry x="2555.56" y="3763" width="218.29" height="130" as="geometry" />
        </mxCell>
        <mxCell id="ghfz-8iDQNyQn_P3O8K7-5" style="edgeStyle=orthogonalEdgeStyle;rounded=0;orthogonalLoop=1;jettySize=auto;html=1;entryX=0.5;entryY=0;entryDx=0;entryDy=0;" parent="1" source="ghfz-8iDQNyQn_P3O8K7-1" target="ghfz-8iDQNyQn_P3O8K7-3" edge="1">
          <mxGeometry relative="1" as="geometry" />
        </mxCell>
        <mxCell id="ghfz-8iDQNyQn_P3O8K7-1" value="" style="outlineConnect=0;dashed=0;verticalLabelPosition=bottom;verticalAlign=top;align=center;html=1;shape=mxgraph.aws3.management_console;fillColor=#D2D3D3;gradientColor=none;" parent="1" vertex="1">
          <mxGeometry x="1487.8" y="940" width="63" height="63" as="geometry" />
        </mxCell>
        <mxCell id="ghfz-8iDQNyQn_P3O8K7-2" value="Client" style="text;html=1;strokeColor=none;fillColor=none;align=center;verticalAlign=middle;whiteSpace=wrap;rounded=0;" parent="1" vertex="1">
          <mxGeometry x="1487.8" y="910" width="60" height="30" as="geometry" />
        </mxCell>
        <mxCell id="ghfz-8iDQNyQn_P3O8K7-6" style="edgeStyle=orthogonalEdgeStyle;rounded=0;orthogonalLoop=1;jettySize=auto;html=1;entryX=0.5;entryY=0;entryDx=0;entryDy=0;" parent="1" source="ghfz-8iDQNyQn_P3O8K7-3" target="ghfz-8iDQNyQn_P3O8K7-4" edge="1">
          <mxGeometry relative="1" as="geometry" />
        </mxCell>
        <mxCell id="ghfz-8iDQNyQn_P3O8K7-3" value="" style="shape=image;verticalLabelPosition=bottom;labelBackgroundColor=default;verticalAlign=top;aspect=fixed;imageAspect=0;image=data:image/png,iVBORw0KGgoAAAANSUhEUgAAAMAAAAClCAYAAAAK5fLuAAAgAElEQVR4nOy9eZylV1Xv/d37mc9QU8/p7oQkGAgRIhKmgIQhcBGZZFBBmRERBb3X671wnRBRGRwu4nDlFUVQEFDAVxBFEFBkkDEhNwGSkHnorq7hTM95pr3X/eOpU32q+lSdqq7hnE769/mcrqe6zjnPevZe01577bWUiAjbjGFfqZTa7luuuG///fvvtVP33Qr6ae1da61HRc7YYdCc9q7XmtvNzLO7VQIHYdSM1j9AIrJMz6CBGzV6NPaudwOjUlDbhdX0bUXJ3aNVzSDtMY4Yd4YbZ2zVwt+jBaAfZ4XgnoftcG93xAXaKZwpGv10sdNC0Bs3Y8zA+67+OQ7YaZruNRZgnCZ1FFhLadzbx+UeLQDjqNFGgY0w/711jAa6QPekKMFOTPKZND7Dwof9v48T3buFM2oNsFnc2zXcIObvx719fOBeYAEG/b5VjPv4rKZvdfBgO+PoZzru0WsAuPdN6GoMi5zdm5kf7uECcG+c0H5sxlLdW8fKHeQnjjqXxlq77t+H0bfTuUaF1qXmMOBqaCy2mJyqgyoA4bjRVBygEKoOKCXMNTrcfOcctx47TnfuGBNT0+w9eA7nHD7K3ikPH3BsgVJCns/h6TrYAFyXWWVxlGYCi9tNIYrWpW9YnH83c402ug4ZlQAurwHG3a8dht3aRILSbCZJSi0MmJudZ8+eGTrtNlE1pNPtsj9cJF7I6AT7eP/nruYd7/0I19xwC3E3JwxDxCrSZhPla47um+J7LzzCDz/hETz1cY/g4J46xt+PmxeowoDjMqE1XXIUDmsZ7XGM8w9j/lFDRFDW2lMSQlcvlnZ6UbkaG7UAu0Xf6vFJ85jQj7jrtts5dPgIKM3td9zJwSPnYAFf5vnQxz7Hf3/be7mpE6ImDiHz8xBCIAlp7i99UQqBT6gtSWOWB1x4lB959jN5+YuexBRQtWA6DWwInaJgMppGWX2KDKymr2cB1rLeu2EBNsr8o7IAyzxkjJFT/nOH4+jDiNqMtthp+gZNpJUU13FBoDO/SHVmH6nAYlIQF4anv+a3uOZrVxHsP0TaaqHIeflzn8KVD7uEg5MhSjziHBqZ4jP/eTV/89FPs9DowuQ+aLS5/GGHeefv/i9mioz9VUBlZN2U1LhU6pM4Q+hbPX67neqwFvOvx1+7KQArXGhjzCkWYBBRoxq09TAK5gdQ2tBpN6gFEbgBt985S7j3EMe7huf+xIu5Nr8Isnmm1CK/9V9fzEufdgUq7+A6gtYOmByURzcxSFQjVvC+f7yat//5e7n++pvQoYeNj/Pdr36Coz6o9hxOVKMwGuN7BEPoGzdFthZ/9V+PQgBEBFUUxSkWwHGcFR8YN+bfbZdn9UQmpkvVD0g6HcLqBIlo7uzAf/nRl3LDTbdBsJcXPvtJvO2XXsIUXYqF47hTezG6ymzXciBUKCUgFjBgAe3w7e/cyHvf937e9LHrqFQVE5HhX9//Li6sRWCEOI5xJ6t4Yx7n73dhhx34GYUA9NO3TMmoFlFbXSiNwi3LlYPBQXkegsYq+IVffiM3nWgRHr0fv/GCK/jtn3oWUwDi4k6eQ5ZosgymI81CIhRoisIgSVpGj7I2Fx7ez6//2ut4xY8/l7jb5tYT87z2zW8j1dA8EVOpVymlZX36+jHKUOeZsAjWvYtBOMv8g2kKvYgCheNXMMB73v+P/PsXv4JXmebg+RfxSz/7Cg7tmyRTEONROB5+FBElCwR5m5nQ4EqK64LyA9IiIAmm6NSmuUt5/MrPP4vHXvFogqkZ/vZjn+SDH/0yE/uqSCYg+VD6ehiXOP84Mn8PKxbBu71I2ogAjCLOP2zCEtFUkrshcLjd3cfRx76K6apLZf56/uOf/57zJvytEWK6HM8jLn7yC3CmDlI0j3H1J97NYRdU3qZQ4Yq3jzLO348zZR9idUgbOBvn34yWygGCCnRzPvW5b4G1LNxxCz/zipcyU9si8wNgCT149StfTmPuOAsn5vnil79FLoBdyTzjMm9n6j6EhvEZxNUYRdhuI3AcQHlYv84HP/IxEEuoDT/5/OdS2Q7lJpaKAy989hVUXMDC33zkYxQKCuUtv23cXZxxX38opdCriRwHYeinY6fpWz1QGxEGDZjcYoM6X/jK1SiExz38+5kOQJv1N/E2BAuuWKY9eMglF1Hbs5d//dxXKAClvVPGoX+sRs1ovSoco6RvvfDwavrG2gUaVZx/GBxA+wF3LqbMNzoEjubKyx+Gk+eo7VjvOSFkKapruOJh34/jeCzGGbfPWnTfMKylKHYLG8nzGQf61lJsSqnxdIHW0iDbhdUDMmygTqEvtSilue6GW8ANUQJHDuwD7cB2LPC0hxHLVORwwdFDNBYXmZzay80334qyxbrjs1sadr3xGyf6hlqAcWP+1RjH9AtfdcHmFGjwQoo8R/IMRMM2WIBMgeOG5dpCCQhYUYSuAzZb8d5RrwPO9H2IsT4PMG6L32U4wsLxY5xz5FxQDnmWYbIcLORm+MeHIc4Bx0HylCLPmJmZobmwwOFDB4GTNxgX5l8Lo6avh/WEcyRngnfTL9yoht/UfoOJmdp/LgdS4NgtBIerfDs5RlfaRKJAquXbbMmungMK6MZtosAHx6e3o2uKgjzpEoYBOA5FkuB7degkKD/hxpuvYz6OwWjcCQ+SE+igvpUh2RQGJgOuytYdl32IHlbkbQ1Yh6zIjN1d0u4hsB5KwVQIR887iFEe//jpr5L5NUgSMJBnBY4GX8OJ2Tm63ZQoqpEVBrCYogARHNclrFbBcQGF6/lUFBCFZO4U/3HV9YS1CuG+KvsqgBeuT9s2YrMbleOMteg8KwCngUQqQEEFeMYTLqdoFnzlOyf45s2LUJ8Ep8BzLXm3BVj27Z0m8FySNMMPIoo8x3FdWJoUEciynDwvwPXA5iw0u9zUVfzLl79D2pznVT/yg9gUcHdHAE53l36csBFP46wAnAYyJ6DM4mzx/GdcWTKlnuLdf//PZI5Lu9EAR+FFIbbbASzaUXiehwBpmi5/lykKjAU/iHD9EEFD5wTBdMRrf++95LpKzbE85eH3ZyqwdDrJjj/fZuLoMNp9iEHYzD7SWQE4DWhF6dTrnAdfcgFPeeyjoNnivX/3UT7+1W/hT+2hnWagQEc+RacD1uJoRW6gWq2ANZiiwIpCOy4GyC20kwImp7j2roSPvPv9BJUql15wmMd//8Ughur09K4950bi6KOM8w/DRizUWQE4DfgCKA3axwN+/nk/TE06dG6/ndf97//DnV2hCKpkeKA0buDT2yFzFYCQJQnWWjzPIzNCmgtoCEKXq++KeerzX8TEBYdJb/0Wv/frr0NJAao/BrRz2EwcHcbPFdrMPtJZATgN+AoMDikheZFzxcUH+R/PfzoH7nMO1111LT/1P1/PjbMxKdBKUlqd9rK/39vJNcbg+T4CeK7C9RQC3HbXIj/9pj/jWDOlffd3+YM3/zLfc3RfKXA4mG3YZ9go7knrgDX/fsp5yHsYTmeja6hZL3Iy16MhlmmlcRc6UK/ypNe8gX/5zk0weweX3v8CXv2C5/CCp16JL8USMS6FAdfNyxip61EYRWoEz9d87otX8Ybf/E0+eyygPhVy5aUX8p63vhanMISug6HcZ9vp2HUvzLnW2PXCnOPK/GudjBuE0xKAzcTU7+mw1pKmKVEUMT8/z9vf/nZe/3ffgNoMBBWufNgDecNPP5+H3aeGabfxKxU6WuMWULRj3FqFL1zf5W3v+wgf+dQn8AIH7rqFV//kC/mZFz6H8/dGSNZFa424AYbdE4C1MOo4/3birACcBowxiAiuW7JikiR4nofjODSbTd7ygU/zjvd+iNnFLp7vkd92Pff9nvN44hOfyPTeQ0Rimai6fPu71/FPn/8StywURPWD5M0OtrXIG3/lZ3nsI76fSy/cS4CFIgPUWQHYAZwVgG2AiNDtdqlUKgA0OxnfvHWWt73nw/zDJz5DGPmgfRpG49b2M91ucPzOb+Hv9fD3TBAbD9sseNYjfoDX/9SrOPw9LlUXfEBJjklTtOOCF5JT/v9O4qwADMG9aYAGwRiDUoqiKHAcZ0UVjTiOqQQKcSLmBG4+ZvjUZz/LB//h49wdC8diwXV96Bzjkgum0ZLw6Mt/gB98zJVcengv+wMQFxQWm3bBFOC4KC/A6jJcutMCMGoFt5v3PysAp4Esy/D9kg2TJEFrvfw7AGmLTubg1isIECcZYejTBJ75kl/kS3d3efD9DvM3v/k6LqyCYwEFaZEQeALiAQLG9I6fgdIIeldcoHuTAJwWp/biwWu97unoZ3bP8xAR8jwnSZZ2ab2Qar1Ct5Oi8oyZwBDli+TH7uL+Uw544BQp5/jgLLQgySDPCDxLQW+nV5X5QaoUAGMEEXBOoWb70Yujr/Xaaewmf92zVfUOwVpLs9nEWovWmiAI8DwPzyvP6xZ5B4OlUg1wHEW30UCsx4EDhzh+os2UV8dvZ/gOELplxpznI4QoahhxEeVicUkKRVZQpkiIBVuM9uHvYTgrAKcBrTX1eh2tNUqp5dye3lrADVwKm9JNU9Aefn0PXQnpAm09g3u8S2hcCg1z1tJQio4Cg8Z0HVIjFEChQLRCeQ6Oo9AabJ6tTdhZbBoD3clhPn4/dnMzZLX5G2W0qf/eQVBW61zegDEejvKp+AplDA4F1TCgBQQ6ZV43yIOyxv+eSgSiMIAVcCPB79dLK1SUxgkqO/tgu4xhdXt2mr+2zQKMYmE0TuuNcaLlTMFmihLsFH9tSQB2KxNwvcEZB8YbBxrONGwmz2gn+eu0Imq7mQm43kD17tfLUBwFBtE36m3AUYcxh2G98wawu/y1LRZg9fV2YZiWON26PtuFUd//TMdGzhsMut5OuKczcauJ2Ym6PYN+H2QB+rX/ZrIAd4O+UeFMtwCrN1J3kt4tL4JHWbdnHBhvHGg4UzEOh+63zQXaCWyGqUbtAp3F6WOUFScGukDD4rA7Rdh62nRFLRezJLfCcm5A75SitaBMfsrnN4elCsy9s7+rabFL47DWcldlZEkDv1qja5rUfBeLAkIcpbHNgunqJJ4A0gWrcFSIRlPkFq2G7MPI+rELMYPr9ixf6/XHx2pFniUEgQ8IqKVkJRwMFme5S9lwbCTOv17dnp1APx0bjgKNk7ZvxC3CMMT3XZRSZEW6VOXLxUiG3mLpENt38Lb31P2PXwwh1RVFbjUuLqE/AeQU4iAKMqvADVjspLQzqBmD47goV2MB1/PW/3IYWn6xMOuf2XXd9Q2/AoKwhjEGx3EQwJQqZjht/WSOQZx/GNYVgHGI8w9CMFlHsKRYkBzPddEICkOWxriVrQmAGpBx1k+hM4xHrU+tHlIAdmmIi9ygfNBYdG0C0T5+AB4TgMUAxgp5lhKE69M/bLT8cP2UuWGfV0BeWHrmtRfcNXbpaPIGMC5x/mEYKADjEudfC5npEDhBWZlEOYg1gAKBajQBbDFhTNS62YjDxsH3XBw0uekVi7ZUfI8UqDgWVcQknYWyXGK3U2rcqIqjBQI1lH47pAeBHeDCrnAhnSHzKOA5LoWxiCkbc9uiFAd3DbdwxcfHKM6/Fl09bMgCrL7eCYI2YwUmHJ+8yPHcANDlhEjp/2sFlq0ljGmlUarn4598bqEUAD1EDZqsC75XVksHyqrRpfpMu01ClTJZcdFAGAXLef5FlhI6gtXrj7UzxIUZBivrC1ASd1HaRXkhjlMyiesCWRdptFFT+zZ0n2ERslEzP2zAAgz6fbuJWT1QQ+9nIWvHeJMRmYVWAm4E8x3IC6hVN+BHrwNjTmrg1bSVP9dnIGUN2kBmwKQ5ETl+oDnRzQgOnoNz/HacoMItsx1m6hHila1W09QncinLrq+DJOmu+/deluoyPavG03XXHx8v9MlyizEaMqg4sCcA5bqYPB26cBynOP8gGlaMTX+XyEEE7ZbmXyvyNPDzWYy4Ptb1+ehnvsLv/OlfcPOxBony8aIaJK0t0ed6+hTXoZ+mYdmyrurStQE4FXSeU3MMUcXDVmr836uug2A/oZdx/6N7aC0usJgI+BWyNGGy4pENqbEeVdaPwqRpuu4cFvn69Du+IckMjuNBYTh//wyv/LFn8oKnPw6PAtT6IrC6rMrq6/4jpLvN/P33HBoFGrfFbw9OGNAqLKnAV264gS/deDPWrUOlBottULWtEdZjQKVKJ14p6DsRZfMhYVZdQAJUKlAUkDVgdhGiHKaOgjtFSsx1d7bICo24FXD3QNygFVuwQ8Z9WHWsngHrn7/+azvkXFl7HsIKXm2GfG6O+VuOc80dc8ymsD90N51ANqo4/0Zc7BXPMjZx/mFniq1GnIQ9Csxsgg33QZbz5h9+HO3Fq2mpI1uiM+9bhA7SpM6wMCgW6wR084KKp4lcy4n5NpXD9+PP//bjLLoxbr7A/3jx02jediOiyqbbOPuIO038cA+wjgbt8+EHanrZ4hohjvG9FmbvYX7/g7M4lXPIGotM2TaKAFnah9hopGe34vxrudbrXS8LwLhq+4GwIFpALZlbpTh67rk8+9nP5ujBpyNEW/r6ngPSPyJrXQ+CmFLJZhYiXQ5ytxBmM8U13/oWn/7OLI/63gfymhc/l6mldfay0mZlmHLQtVr1cyM0bQZGymjPtxoxf/nZ77J4okPoePiehzE5Wm8+iXjU+UdrwYUzjPmXEOjSDzbGQLNJM6rgui4agztkkToUQ6IkQ7nNyYGAQIFjc6Cg5roYHdC68ybyOxbRhypMaHCX6h1KAa6/9NVr7QT3xlEPG8+tWYACjQNMVysUnRjbjvGUxnU9kiSFDW6zjEOcfz0opXDHNdS5UbiuC1GE0posy8hshitbfI6iWNt/BhgWR1cABq0cTF5A3sGpTBJomJqoU9snRBVvSaUXIBqll1wFyaGwJ5kdVl4DVstg12cZWxOATtOhGmXEcYEWi+v75GkGVgjc4VWJRhXn3yj66dhRF2jHmH9pfo1ZojsMqUQR1aqPpy1mi6WjlPLX5f9hJcodLInRKAdcv4oxhqJQZB50rUOiCtq2SzPPmXEM2nNRuBTYJdk6GeUZJAfWWSWfp/OQ62ByAlAuVevgaYWDotvtghGU766WxzUxjszfjzJ9hjGM8w9DbqHsKVeG1IwhjmPyHHKb4+otthFaIm8tJhvuYGlyKXdOFaCDiEI8MiC1ikIJ4mhwHQwFaZGRIwSuh6FYKXDqJONL3/+tpmk7Z9AxgFfS0em2SXOFKMBzKWw+3ADu8D7SVrHCAowyn/90kec5BOVmjud5KN/H9TyiCHztD3eRh6CQUseL9A3WILO5BjSGQDsYUXgKlDK42iFHM1X10Zmgc8E1CheFQuM4btmBHk0+YMxWRC76JHCgn71FFzDLc3zPEkQRju/hRg7Kc8tkPmOInI0vgseN+VdjR6vs7VS+vFcJMFjiOKPZbCJxTOF6WFumK2i2lg7t6VIA1kx3HvZYSQc/rJWZY2JAMkDwVYRjunhG4xtNIAqlfdyeT2dBcoMXnOTwQQpkOYq/gun7CdjaGsDzHMCSFTnKAe25ZGKwgOP6w59/mbzxZv5lF2i3MTTO3zP5AguNJjNTEyf/Zg1zToM9VMEJqPlTOAbEy/Hq4HUdOsYSRAGOU7orvflKbY6nvaErBMWQVIph86o8rNXkDqAET2ksbimWpk4eLNIxGUaxHPEpRFM4YDwXf2mnVimF1rrsDYBgrcVai7ORlOn1IAUoTZ4brChc3yXJYiq+jzE5Yj08qZInhsjxyYsGE36CUxQ42l2yjKC0ohMnVCrhsrBYa4nUxs8LnBb5QyxkP/ot5MDEwJ0icvWNNgNrhLwwKA0z0xMg0G23KboxaEHwSYDchWYFTNXSyFucsICnqFYDXE3ZjhRQUqCwBNpBbzVEugHESRPlLK0BTI7NMsouwJAWMTYrk/U8j9JCFClp0sWzUNGyXGZRKUWWZXS7XbIsWy7FuGUovbzbXCbsWSq+j6KscZr7UGhLN3A5FnfoFjlqeoLChZYxqMIub1hEvgcieI6Drzx8Z2eZ/3SxFi/uuAXoP7i+UZdIuQqTGPI8pxKFoCxRrVcRzTJFgFtAriC3CTgapQWdAkrI8zae7y+drFIgBkdBkqUYY3CjiXXuvnVUpqKlk1MaV4Vl2NRCqqCVtYmikCiKSsukFHgu2hZ0Owu4qkB5E8uav7/q3Pa5lGWKs6c9Shu5lLsDhGEFhUWswcMFXQUU2ji4CKEUoL2yjJ1S6KW8HqdnFpcrWo8eG9mH2BEL0G9uVhOyEauQ5JYg9KlUSubPk4S40yUvhG4K7ryC1MOzlKmgzS57jUe1C3Q04gWI45f+KrpcNAOh71ONtrZLvBFkFHRNQS6A0WBDUB6Ogom9U3RPzNFut8mBZppjtIcXRdTqk4S12lJEK18er54rtNHxGwYrnJJwZ9AsdhK6omGxi2qm1DOYshWINX7LQDPDyxS4ZRw2zy3WQJbm2Mxg0gxHj57513J3Bo3fjlqAfq2/GQvge6VctttNarUablQhM5A7YDzo+RPHUligwK9XmDl4DmkE+A4dxym7q6CxFqKgRrnCtNgiQ2/Vhx4CwadrNOKA9cATRaFg0YA4HsHEBFN7D9AFwkqVztLnHDQVIqrVsumG1hpr7XJLptXNOE6bviUeiOOYMPQR7dIxYKt1UsCfquIAc4tgQw8qAe7MXmSiiqHM89MKnEBTRkc9bG5JOwkVpcDf2fHdKDayD7ErXSIH1fNZDwbI0gSsIYyqZMDv/Ml7+NI3b+BEO0VVQ0SnUHG57vbjLC4mkOQ86IEXwcJxqt40tdCj4gj7JiJ+9mUv5AHnn4OnLOQpeDtrBeazjF978x9z02yXpGvQJi6PQlarfP7rV+NMHiEwDR544SEW54+TGpfpmb0cmZrg4GSFX/rpHycMQ8Klo5Ei5QK4Zwm2iqQQHATPLQ/iXH/bXfz+O97Dt++cI7EuSWSo6QRV3cfnvnEHiHCg1uV7Dk+zmLlMZj6utuyphjz80gfwihc8l0kfVFGUaRp6hxXMkEXwZs4b7EoUaDPaH0q/LArKWE1qLFddfxt/8bcf5cbjXWbOvS/xiUVM1iDvLIAT4Vf2I16Vm268myJbADek6B4nn70LJ2/x+Mc/gZmJOkf31DdwoHfruP66W3n/h/+JE9400cwBIhdscx6b5mSFg7gxqUn5z29+i+rEJMfbCfauLkGRExQJr/mJpwMsC4BSals0fw8OgjU5Rrksdrp89Zrv8N5/+CSmdoBo31EWZztMZLPE7RuhfgTP95i781baCy2S2mEqJqV1953QmuX6W27hSU98AhcdmsbNu/iBA8OiaLuIYcp218KgmxMCi2BI0xTt17jf/c/jgZddzl1f/hbzx1u4knPp/e/HpK+o6gpF4pBbh8S2Cer34VPX3QF+FWfvYSakzX0vfhD79i5FJ/IC/J197AvOvy9HL7yYPA9ZvHOWOFRcdOH9mXI8VAbzOmem7tNuzBJMz3DHNTdBkuFMH+TcvdNUq9Vl5geW3aCeW7RVeK4mNaXWrE/UuPB+lxDU97DoTdCdi/ELlysedBmmvUAe7UdrTbR/D4up5dqGy91mHmYOMHVgP4cuOMqRc2eWNvEcUDvuUGwYG1kvjWWjbMPSZo8UgCDK49b5Lr/7p3/Fn777/WRHLuGJ95vhA2/+eaYqLp2uQ+GF1Dx43zv+Dy/8wHeR5jHOm1T89R++kYff7wgLs8eYnp7GIvju1kJ1g49JnoQTd7i50Dzu536Zm4/nnBNO87xHX8av/fwz0dqwgOWIhuTuOd7wrg/y2//0RfBrfN+Baf7lf7+JvZNltMpai+u6KHeVwA45kTUMaWZxtEVshnY8csfjSzfcxbNe8rPMdy01A3/4ll/nOVc+iKrJQVtQHnGhef5LXsk/3WbJG7O85JlX8ju/8jNMOhC32lTrtdMonrJ5bGuJFRlDdAuRLDciNpes05DFhTlJROTqO9ryrFe/QXjYS4SH/qg8/3VvlRNxIiK55CLyBx/8rEQP+VHh0h+Vo09+pXzu5o7M5yJxlopILp24IVbMjtNvO/NSiMi3GiLTj3uR8MCni/OQZ8ir3/T/SSIiIpkcb3fkte/4K3Ee+WwJH/9K8R/ybLnueLr0DWbNlzX51unr/WNzEZPJ3fPz0hSRT90wL4eu+BHh8ldKdNlz5c8/+m9SiEhRFNIRkWe+5rdk6tEvEvW9T5Uf+rnfluvmcklFxOSFiDWSdrOlL99ZWGvXfW0Gzutf//rXb1Egtx1Wg6NVGWlwHcKwrKg2Wfd5whVX8M9f+Sa5CvjyV6/l+u/exJMf/xje96GP8d//4APEEw/goto8v/xzr+DKy87HdDvUQw+sIUlSgiBkO3VUURQURbGssUUEHbicuOVuzpuZ4Bk/9DT+8uMfwt07wVe/cjVpM+AJDziXN7z7b3nzBz6FVA8RtmMWPv/XHKwoUC3SxCLWnqRSZOmcQC+MtzX6lZShS8lztOtQiyLyzHJkX4X7X3AR7//0N7Fa+I9/+wz7Dx7i/Pudz7Ne+at8/N+/SVI/zHMecR6/8drXcN/9EQGgTEoadwkqFeI4w/NHGwrdjAUY6AIN+K/TvsHpoJVB5JcLlKzTQEQojMUNq7hBwC0pvOBVv8IXvv5tJutVnvZfruAT//xJ5ouAPPN5768/h2c95Ql0mi0mKx6Oo8jTDC+MlprNbc9BDVkjOiN5glIuJAapBnxjvssTnv9iclOhiBUvv/wC/vrrN7IgVcgSrvnon3GJn4BOSRDCcOqUe/V6E2/HGqDdSqnVArCW1olj1PfuwxohTg1RPeSP//0mXvOyl3Ho/AuIky6XPPBSvnndt6lNzuAFEV97568wWfFwsWSdFn4lBBwQp4yPnkEYSwHIgLiTMlkNUFiKpFsefHE98izD9UOOLbZ41sv+G1+4qQl5Bf/gHsKF7/DWX3gRP/e90eAAACAASURBVPm8ZxN3WlQrISiYn52lPjmF64dYNHoTFSjWQy83p/c9y+VIOjlEDkZb0jzH9yK+fmODp7zqv3Kim0KS43jTBCbnk+//Ix56notLE4oqqHBgL1Tp20/ZKoSTa1UTlxU0nLBa/kFrjC5419//Kz/zG39EGu4Hx8fNG5xXLfjMP7yPw6GQpjGB44AVlOuBckiTgiD0d34RsI0YqE5knapow4Rju4jK85x2N8OgccIqslQEy/NDbHuOgxMef/H7b+DwnhqEHlljlj/8jf/GK37kchRlG1NUmZJcmdyD9isYNML2HdTRWuO6Lq7rljU0Rcojmp7HiWaLeclwvQi3gIfeZ5I/e/MbCGoC0wdx0zYffvMv8cijES4NCjwKN6TVLPlQKHdse9e9yhTbNfpWCbfeditOtY4KKjRbHUAjhaVzyzd56TOu5C2/+lpIYyJXEeYtPveR93DE71AYSxDUKJQHfgXRHnFi8COfRmv9mkXjhoEWYNSd4Lu5xVvaDT4+12Jyso7XC3wI+IBR5Y7k177b4K/e/3dcdunFPO8pj8TLmlhVwfNcWt2UdrvD/n0zpCePEOD1ae0eNqNZ10pK6wlA4bqkRdkC2KWsItEtoPDgP6+9nl99+4d5w6tfzOMfsB8lKaIcMlzilqUeaBwfsqwgyzI8zyMITsbV0zQnDLYWZ08lx1EehbXkRvA8ZzlZD8Ah5/hCQjhd550f/Ayf+9x/8Fuvfy33mS7rQqdAthRNTrJSNkMPWs2EahQSjs82wFCMpQBkueHzX/pP5httqhPTxEuFnuqVCmmaYgy0qWL9AC+d48IpIY0Xafl7WfT3Md2+A8f1SbIcL4iYW5hnenIKJYYk7vC0K69YvtdWju31usM3m00WFhZoNBrEcczt9Yj9RYAcaxBWK2RVh0S6hFnGAS8iCc/DunPkZo68cMjiCUKnTuTFNBrXE1QPkOcFWmtmZqY5cuQoe/bMoDVkmaGyxUXm7bO3842rr+HAwSPcfPvdKBymJ6ZpN1sEQUBXR4Seg5PHTFXLDclGJyHXAZ0kx3dzPNfn+Nw80xOT1Ks1jt11B4GrOXRgH4+87EFbom83sUIAZI249mrstAC88nVv5U//5SqYOgCNW/FVTlE7jG2l+KGQSXXlB1af2mrdCcEU6BBMAiaGogvhJOBTac5zy7UfYIYYbStl+W+dIrbAs9Wh24MCqKQBGlJ/kie98o3829duwPUUQTZPx++rSzTocPGQwleBaWKSRZzJ/aSx8NDLLuDzf/I6XNNGnNqmXezV7qv76JfiT9TIms0yNSQvUNUJJMtwwgizenxXQbUXkdClqifo0MR1UvxGTDxZg6TCy554IX/02/+DYCn/Kqc8TeYBymbLFbPH4czw8lTvhm+/UbhhAHkOx++kPqGwnTamfQJSS4RB0Vi38kDodxFHkRQN8rhL5OT4lZA0FNrFVptnQDspqPsVICMXSJIEPAdf54SOkLVvXZM2ABlyZNEF9k9VmbcpqXXotDrEScKETeg6FSrBxhXQoHWb8lx0YaiGPtV6QGtxAUkWSTodTFPwK+tX1psOKhxzCoKkoGMauIFlphoRd9oQ1TfMSyIr+7uNQgjc3s3HCYtJB2oR59znfH7vF17EAT8nd6ZJkpyw28Crli7AWkLg5i2MG5FbB09BxXc50e7wt5/+Ah/85Oe3eGAS/NAFLOSaxJYC4CnD4x71UH76R3+QSWdwlGmjAtApfPKiw++9++/412/cipicKAzBGoLTtL791l3aMdHMBFc+5nJ++MmPYyrymVqqNyrGIkVnva+CTHOHFvakHp2KoRK62MWCF//B25k/1pdmvQG+GrUQuNsVEdlOGNcFKci6izzqwffhoLIUaDTgF4eQNRhsGdIBFWDFXQpLW9pW86kvf4Pm/BzRJlr8DEIq4C+VNPeD0iU0aUzVsTzmwfclMskp9K08tL6+j1XoMlr1lx/00Mpi7VLdOCMsthP2TGys6sXq+Vx2gYKQSGnuf/QQP/TIC6gA7lK4qRNnRJX1y59rq2m6UO9CHJWLZ2Ugay2QLubAwVX35eQKWwTptdwYwPi7LQTL6mRcmB9gYnov2vNoLyxQUaDSBWzcxsssJItl7FmWYtn9scKlV56kgC6Z3woUBlMIogOqU3u3TF9Z6QG0dml3y93giXqdotth9tjsMm0atXzd/9KodV+mE+MDoacJIx9RZZsiHId6fXPMPyh8XXQTFuZmyZoLuAbcrIAsBVtQDZyh9JE2iMhQjiUiw7FdXAtJ3KI+MzM4XXkNGje67twprHCBtnOzZSs4fmwO2+kiVY8AcAKHCgFIeZY1M8AKLbJSa2h/ErMk245S4HgEbtk7KzPOllNgPQApyPMUpT1yW57jrderHD6wD2NPtVCbKWQVVcrIS6vVIp6dY0HnJIXF18OL0sHawYzl3z0fMLiuxncoK9HZojzKaA3GWz/K5HhlUw+waARflw1FCisDK1evIGMdCzAK/nNHLYGDMD25l2hyLxXfLFVSEFJlKMSloj0Cb0iHFuWQ5kLS7lBxwNeCW6ujigRP2S1vJunCYNM2QRBSdctSIY3OHAuNJlDmMW0NLp00ww0qUJtmZt9+ArdsgbnZAOjAzcs0xQQKWToQ4/pumR6i3GHeWQknJAV0q00nKvACHw/QXoVuNjjtfYUb1EfbWCyCxw3NxSZ5WuD4LllaIK4CHZCaMt0gWDrju2YYzXVwlGKqXkWrAkyCFkPRbeKa7pYXwZq83OXSigJotWMm6lPl8cY0Z3J19vKqdYAa1IWvD8YK3SQvm30IzDeatJOCwDGs1bp1NdbU/gBegPYKCiN0cxCTlWcNvLJK9bAVUppBHkF9okbkAViSGDIrLJnn5XsOI3VUjN/DwNqgOx3nXwu9SZoKA4rQUBSWmcAlRWPFMFO4SOAMrdujydGOg1J6KUErIlEObmWK2Di4kg20AoMmYlCQIHNDwiIFo3EURLWIO+4+hjEFk4G3aS29Go5jmJ6IyJMGSIbvhoShC3ikdqmP3jr0rd7I7D9cD0Ca4Tllzc/Qg9DzwWSAQpYLOq4NN4IpAQxYzxLmBj/QmAic2A48LyGiyq8VQenBimsUVQpHw+kDME4uWA/jGCHrx0boG/V6bqPYLeZfjbEQgIHErVFaZbdwT2P+cRSEjdTt2Q6sN38jXwMMmshTqguzlAWpWLte5w7TtPp6lBhG31rVmcdFCNbbxd9uDJu/kQrAMOJWDM4IkszHMULWj2H0nSkWYPX1dmEjymskArBWhGKFBlvF/D0LsNv0nYkWYL26OOMgCGtZqO3ChvhrCSNfA4yzlh1H5u/HPWkdsFMYxl8jFYBhTDVqF6iHcWT+fpxl/sHYyLy5o4j5D1uUzbbaVIuAXCXEQN0U5I6i40GAwpH1u3RZ5ZV5QIbynzwmDGpI2qIeKFJdJtatFqr14uj9P0NrIU0gqoIGZV28wsMah65AdWgXsfWhlEtmQHs1wCMrwFqgyAi86JRUi1M32gaP6zJDiEb5FVAuWQGBq7EqpKAcsmFdNm23PJdNaAklBc/SweM+yudmf1UP46XAheqxWe/c9A5i2IGufsEYeRRoEOqTdeIsxldpyaiOJk2a+OEErliyIY2gHVWmt+RJRtVVKCeiUA5OWCcVj/Iw5UmspygGTVaeWzzlLE0uONqS5wlKcjxVtjDbCnzKAsxppwkKJqoVfF0SmmY5rnvq82+KqRwFJkNsr38COFLgiItRlFWt14EXhhiBbidFSYryNEUAjl/FmVj/MM24YSwFoLApYcVnIoqWdLSlHlRAwMwdx9l7eN3P50mCG4a4VX+5+kEBJEbRSXJ6UySs3KoXWcosXfrPNcN1gQsE5FlKol20Koh8RRQt1crfYolwk3TwwipSpFB06bYb5R9cH9fxyhr8DNf4ayJtU7gOvhYCF5ACJIcsI0tS/Mnp9T8voDVE1QixLs24SxHA8dkFjAKl6iffq9Qpzb/HBUqNqEXSMKRZTLfbociE2XYHT2fghvguOH5UTtY6cNycUo9qMAZjclIVUK34TE2EZIvddSdkWBy9ANwlKfFc8F1FmnWYnz/BfGuBQ7X1T1QNQ1xABNTrderTk4T+UvuJLKNlPSaikwJ2Wn5+JcDThtwUFLKkBXXZNCPyK5zsWz8YksRYL0S7PlYpAt/FBQ5M1XCdk8y/cg23/J8bo3EL2IxCGHkUaBCml8yoF0bUalV0ZS+JE9IVoDJDr0TImi+nTNW1AuI4OIGPdgCT0F6YXb5PLy132TVefXRwgH8NZYUHAM8vU6vTNMWKYmLPQWr16eH0DXm5tSop0OwkxJ0Ea/JyooKAsK/kwmkvco1BBx7WCWgV0MXFqgBDQKM1PFVQRQGFWDIRUHqpvRKopMXCtd8YoEA2TtpuYmwtQHdxESUaP5riqlvbTNPBeHvIMsNexxCni+t+XhcdCGoYPHytqPgux5stUqvYd+gcGq3ja1sAWT9OrZQiWho1yQrEA0Sh3IiF2PAf3/wuBypb61Ps1w/RiRegMoEbVgGDEcHF4jmgZG36NgRjES/i7lbG1787Tz1wqUUe1lra7Q7VE611P16YlMQowsoEDhmOKWglBdMz+/Fbq4Vy1UiPmQUYSwGYDCr4ymXx1rt41o+/jLw5i60eIis0QTKPUesbLle66KBOahQ2zQh1hhv6dNwqJlNE/ZpeSgsgDC76NUjLKgtYi0LwFUxMzGBunOcTn/oC1339a9w9tz4DDUPe6lCfiGipAJxpdL1XKnF9+jaMSo3FZsJ7PvSPfPgfP0Fz9jjK88rnNwV+MKSPpqfIrUOlWsd0W1R1zsTkNHe2CjJncvP0jBBjKQA2y0mTBKb301y4mfrEPlpSgSDABj65rN/hJacDbh2sC0FMbGKwKXjTEIQQ3wFsch+i79rvXUrp25oC8CooXBY7bfL6eafz2Muo1hOSzhyV6QPERNQnJ8qTbbkhzhJq1eAUmjaFzEAlwoolxoPaHoKJKaxYCiNkMqSyVeiBuOT1CbLGcYq0xUIjx3qT0BnH5e5gKKW2tz/AoF2304lU3Drb5LbbbuPmm28mjmMqlQqVSoWiKEiSBGeYhhqCZz3xCrTWK3pu9ep8Wmvx/fW/vz/Kn2aGu+66k9tvv4O7776bdrtFNLN/S/SJLmi32yiBo+cc5nsvuYQDe6bRQJbaTZVFGYTPfu0a4jim3W6TpilQzk/v9FivzOMyPauu10q16P183lOftCX6dhPbJgBrDdjpCEDW+5mXwQl3VVRxy0caV3VgXP7eJbqHtSNqtWPCMFwRjxcBY8oNADsgTr8Z9J7PUkYpemULNVAUnCwTeZpI+6579xhGS/+YqzWuexjPTsGDsS0CsN7xu9MRgFY7xvd9/L5WRrLkqyvFFvdZwRG74qxsvzBshM6lFrkraCu/p/xZbHFEhbLK+LKnZcAWFtfV6HILe0swlM/QK+2++gyzXUX/oGSyle7hyfcqBha3HltsWQA2mtK8OX915Vaq9PXIUtuSuqERkWWXRym13Jh6s+j174KTjOFspHTDOog7xUmaVH+v4CVm2+IQZFmy/LybeeaNV20Yy+j6QGzJmO50tqQ1Zpm5VjD/Vm+lOEXjb0ZAi6LoY8qVTCQ9U7UehuSqVKK+NcgqssRu2QCgjC1r/GjV5+MILCkEvbonWY/xe9erhWb12I1p3H8QTksANpNvfbowRbGsnd3+xtaD6mucJkptfWqZxaGfw3LKAQURsiwjz3Oq1SE7wcO0rrV9THXSFxLYFv/C87yyBlA/lIKeMJ/C0GcQR28Sp+UCDdL8g/z+/uvNMFjpn8pyyYyeS2GMUBQF4RY7vYvaaimOsocXMNgls+szuF3tZK+CdlY61RbBiCx3ePe36GIUmcFdVfxKejLXt3e1Yrtkzfk9SWc/zWcKts0F2k6IAuWo5XTlnsOgHIXneMgWsy17DS7WKoMyVDjElhNvTMk5q4RAhjDo8Go5JYw1S6thjSznIRm2FgQGBtQl6t9bXJ5V1ScESq0QCNVnlc5kA7EpC9B7a88vX/6SVVp+VHWFxhE7bS3vSdjo6cDt5K8Nf9OZXndmFNhMkODePo6jOnW3IQE4U4/cjRKbOa97bx+7UR45HboGGMe6M+OuTTdTt+ferkRGXXhgXQHYVN2ee+HkDcOZXrdnpzFq5oc1BGCzcf7dnsgz3QKsV7fn3oDd2EfaKIauAc5qsdPHZuv23Bsx6rpQ6wrA6ebLn8VKnGX+wRiHeksrXKBBdXH6F7ijiFoM0qLD6vbsJjYS599o3Z6doGnY33dz7NbT9oPS0lf//07QOJZN8noYdxfibJx/49gqf+3U+Gm4ZzD/bjPY2Tj/xnG6/LUb4zeWfYI3E0fv/30U+xDjGOcfl3mE0wt17ub4La8BxmnQehj3CNS40zdqbFW57vT4icjgPsGjxlbi6Lu9DzGOcf5Rr0e2Gudfb59pO9BPnx435u/HPWkdcG/FVvlrp8fvjMhbHkfm78dZ5h+McY389CAiKxfBPQwrC7LdRKy+Hhbn3+nzBoO01npMvttx/mH17/uxm+cN1pq/td63mpbdoq//PMvYdIg507XouNM56s23YRgVfSMTgHH37zeCcY/zj8vO81oYNX1KKdxxSR/ovx51nH8YRh3nH4bdpG/c4/zD+Gss+gSf6RZg9fW4YByZvx+jpm9sLcCo4/zDsNNx6q1iN+Po/b+fjgUY9PtWsZl9iDNqETxujAbjSVM/dsu/Htc4/zD6xmIf4Czz7wzGdfHbw6jpU0qhe3Hs/td2EyEiy0VkjTHookPcTWkrh9vnu6RpiusIpsiw2mU+P166QS2FKhQoISUmMzHkUBgg7ULRBVNgLMSUr0YRl6XlpCibYuRNsF2wKQutdlkaPO9CnkKRgQXJCxDKQlfGkqYpzVYHpTVxtywm7jgKR1scXXC7UqRKQZZAnEBRVlxumpSYdvlVUpDnKVCQpR2QDMiBtPxhO2QZS0WoOth2AcyTUfYcQ6C52CjfYAWMkHe6dBsttMrpLJ5AK4NWFq0sJ2aPlX3ultzHpNsC28EWi0CHZmsOQ6/9XZtOmpTXhrIvaqd8X0GCFF0W2y3KbmEFdGfBLAIpjTRH2gplFFo0Wmms1iTaIXEcuo5D1m1i27M40sExKXErQ2sHRxwcY3eEz/p5rcdnveLH/a6PUifruSqlRmQBPJ+oGuFpmJysEUZLjUtNgaNhKig7DaoKZaNHNAYH7VQQF7rWQhCBaDAWR4E2YLOMmutzotGlsC62APDIk5xGs8VEvUaS5ogOwAvA9RENuXZppzniOCSFEIYhE/UqCoiiaImpNGVFNYejQJi0wM2gUrAYz6GxTChLJU9ZXJgDK7ieR6uTINrDKB+DRy4BRdwFLZTVCS1xq4uOXNJcWGzky61do6jshGPyHBS4vkc0UafTFWoz+8mLskEHymX/gQMAxJ0WBoUbTWBUgHarHJ+dZ6I+iQO4Ao1WQRCUfcya7W7pB1RqnJhPyAgx2qdSq2MAgwtRjXixjRDgBR6qWoBrQZftVd1uh0pnkWprkVrcwNSm0ZP7SQpLWwRnKuKuRMhcaCVbax+1Fk53H2lbO8QMQr8P1rsuui0Kf4JrbrydB1x8Lm6SEai8rLsfVtF0uPPOFgcPHaQw0M5y5hsnODHb4PjdDS5/wsOpOqAKSFstpqZKgbE2RzuKDi5XfeMGHvJ998UHxFq0hiRLsWhm24ZqtcLc3DytVosjR44saQVFJYDKUu1PpTUipdYQyhKNJ+YWiReE2oSiozpkYYhf34NKLOf5GuYXYG+dorAYAcfzMcB8u+DW227nARffh7pAYedQZg+OXyBorrnqGA+4dC8iHtoYtONAn0ZzPY80SQjCkI6Cz/zbl3n4ZZdRixTKQuBAniV4nsvdHZfWYoNzj0xickvkaRSWTqNNtT5BquHYsQYH90/iKEucxCi3iuMqrv3OLLfc8DXOve8DuOiio3SaCQcnQhSWG+9eJNwzQzNuIsbi5gUTfkTaaHDekXPKAUoMX+lmHJwMyTvzaD8k8yLqoSbLhT2eYrtbaa9mYbOqj/Lq6/4gy0gEwHEUd8x3ecwTf4h/+eePc/7eCCU5oGi0EiYrgnHrJMCXv3ojr/3F1+C4wkMe9iiuu+F2vvDlT/POd76LJz32EVQB3wJJG8IQlMuHP/8dXvC8H+Ptb/sdnvTYy9k7GWKyLpUwoDAZf/r/f55fft1ruezBD8LkGbfdfguHDh7mkY96ND/+ghfxoINVwJJ0u4gIQVhBtMYAV//fG3j0c36eB11yAUpnqGqFW2cbzExM88uveiVPf/R9qdgUA8Sp4EchC7Hw4y/+SbpWeNdfvpP7VCCJb2UiPBecnLmO4cILHs1nPvtXXHrR/VGqrI697JY6GmMMrU6byYlJ7rTwuB94Kg97yPfxtt95I4GCqgfKlpbi5pbHg7/vYfzJH/8BT33yI8qOyYXFVRrEMnPRY/jkx/6GSy8+ByFnIbN8/JNf5C1v+iMOHzrKg7/3IF+/9gau/c4N/O6b3sgPPPRB7Jmq85r/9Vt84OOf5pKHPYK42SCJu/gKDkzt4Sd+7Md4yKUPYn5ujqe99Cc5d0+VSHXxAp+FxFBoza/90v/kCZd/P/t2gL9W81o/1k1VkR2GtVastWKMkaIopCgKyXIjC6nI9H0fIicKkXaSS2v+uIjNyw9licRG5KP/eZ2ce9nj5d+/ep3kInL7fCLzInLt8VnZe+nl8tvv/pi0RUSMiCzOiu3EEmciz3jlr8ovvvVdcsWzXiZ3JyJdEelkRpqteRHJ5Pc+/G/ywte9Re4yIg0ROZ6LfOmG2+RnX/9WefzzfkrunF2QQkSKopC005Qs7YoVkVREvnj19XLwqS+X20XkWCYyn4kcF5F3/NM1cuQHni43W5Eij0XESC7lva+6bUEu/+GXyJNf/jp5/xdvlI6I5HZWJBdJuk3piAhTl8nNs3OSdkTEiiTtjuRpVo6hiLS6sXTSRHIReev7PiXP/8W3yOHve5xcd1dbEhHJCysiRopuS666Q6R6/iNlz8WPka/dsihtEYlTW45THMvUxc+Qr11/QprthuSSyYf+/fNSu/j/dXfmUXYV1Rr/VZ353Lk7nW4SQgQBgUBAEXiID4jkRUQQIioIyCSCCEF5EmJA0PdQhIXDgxUCGFBGGQXCDEJwAOUBIogRRTKQobuTTg/39h3OWPX+OB1AXzBhQeiWb627Vq9et8+p3rV37V1776pvb/308kDXtdZ1ncnlqaXr9L8ferTuGWroltb6jO9cpi+7/xk9GGu9ajj7Tm+s9bKG1n06k8MDf1yi9zx8tl7dyOQVaq17I60ffH6FbtthT/3E4iXvuG6t16/1n/V69sbfvfG7b8So7AGkKRluJZQq7fT1NXAdk3y5DCqlVqtBM0VIOPPcuVxwyUVM2WF7TAVdFYckga58joV33sVll/+Ynn5NGoaQ89Cex7JqxF//+DwnHH8sAK8sXc3AcIJpSfK5IqCwDItCLk9OZnxWZhyx6/u35KJvnUU553H5tbdSjwHDwPY8LDMLIQzANATbtqdUgPFpi4pSdMRw2B7bMPjy73DCPoSQJCqlp7cPDVx88feYPfvrnDHrNC684AIGW4CwQWfuOAHatphMMw6xHSB9nbUGoBWFJCrFtB0aUYtbbv4Z3zh7NnPnzObG668FQEtBHEUYtoPrwpQpO/H9Sy/lU585gqYGaQsGBgbBthhKIgrt7eRzeerNkFNPn82VC66no83BBWyyCunWk9q57+4baSv5hGFCvVrFFFBOEyYmQxSTmE4ZMskcJh8PUaZOu+xBqpiCD0YCaTOhbMHuUyZx+MEzWfby8retP1rrN135tdb/b5P9z7KJo2IA1UZMnGrKbe1oIbOsTpqi05RisQiGy59f6WFtrcqM/feg6Etaa3oRjSZFEyq2ZJdtxrPffgdw089uw3Adqn1rCAX88Cc38YUjZrLVOMH53zyXuXPnUipkBe9m0ALAjGPyliBtaRwNFVcyvLYPF7j8kou5/vZ7WNlXz7jIhAShQSUIpTBURFrXxEDseAyGIWtizePPPs8+H51OTvgIw0JIiy26OuhZ089zT/8vu+82hT2mTiRp1VjZqxF4EINlmiSAWykz3Kyj4gidpthORjWnRviLhWmggQcfeZhJne0UHDjkoAO5/757WLGiFykgilOUhrU9PXi+xfTpu3HIzEOZdeY36R1qURpXASkxyiWGW02ajZAnf/0M7ZVJfGyfbekogEEdixiShKKZ7XXjxjBFx2RcyScNmuCY6FIJTINECSIFrpXDwsEIBcLJck0YCtNKiVNwTFi+asVGOZ7fKvSbhD3rsbFU+qi0Qng5C3KwfMUqfN9DA1EYYvs+oMCW/PkvL7PjLlNpAF2A11aBJMQkAZ1g4bDLzlPpXvISrXqdUtcW/KWvyjXX3UT9hUcxgF122pqe1d289PJqpmw/Ed/zUXFA2KgzvLaPsitAxUDCuPYyKorxDUUjUriFPBpI4hgjbiJsB2lIXFPwh5daHHrShdglk3VBg+6BJmteeZUn77sNHGi2mriejwKuuHw+Xz1jFr4DFnDGV77M9y6+lFvmfRnPsEBKhgLoXrGSSnsZaQtIBEhJEoYIYWBYJoaUNKImt/38Dk7+8rm0F0Ai+Pj06SxatIjKYQdTKRaREsoln0Z9EEfA+XNP5YijT+HnCxdy+nFHgtKkYZ1UQs7z6F8zxLT9P06swRCArqICF8cukihwJBg5l1azBmnENVfN55r77iHvuSTNgJxhsuuOO3L2rOPIW4C3A8PRIANhSHfPEsqlEr1DMdffcT9LV6/kE4fu/47p0Zsp/XpsSh1psxvAhjYeXiNm0LRQRTBz4MZRRtmjQkLDIrEd2tvyDL70EhVgEHAsB99RGGkdGprE9alF63CLFp6XiuuMiQAAC5JJREFUhwAW3rqQY750KqGZUa0GNhx7xln8+KY7+dF/zaJabVAu2iihsHybVECjOkSxUgFh0t+KSQ2XRqNBocDIymVC+vqqZZomu+88jov/84uUiPF8SZp3uOuRRZx8/BHMn7eAD2+RkOLT01AsWLiIx39zHpHMkiTTZkxn1mX38uceye4TY0g1OQWFXIAIclAkW3Z1gG3GIExULAltk6X9Ni+uyfHBvXYkJEvf73f4iZx06kl88vijaCQpRa0xaibdE316dMLUQcEjC+Yz6VPTGb/DTnx6r6lgVQiGW+h2ie2ErFjxJ1wxQviNh3Q8IMFIQxAOcQLaK7KuGnD8scfx2Y98AK0FcZqghYG0bIokWJik8WqWL6ty4unfpW9NDzEmq3r7+OrJx/HsY/dSaA6A3/a2dGpDiv9mWZ6NYXSa4VyLvAFxEKMkpNLGCEJwPJo6i0E/uOturO1dQ39V0VHK6EGr1YCcqTAL7WgJ86/8ET++dB6hCa3hlPnXLaBeKPH0bfMIYk25YyKphsUvvMCc07/I+zoKoBWFUhlpe9QCTbmtgyRJ6K/VKLQVeWDRs3x0r90x1Eh8KETGLo8EYVIPYupRwI47dZIbyY02DDjhqM9iWiVu/Ol1fOic49HArbfeyrhyic99+nME9WHi5hATOtuJeiwW3n0Hu5/2OZrDw/jlNob7BwhSDcIijBMc26Q6MITjODiFCgkwd87Z6KjJvtMOpLqmSqXciVeq0P3qMh5+5NccPWNfGoNV2solul9ZQlGY4Gbp4ct++CPmnDabD19/D6Qh7ZUyiY6ZOnUqZ154Bav74AMdgHKIEoMkDvFzORqNFm4uhwTy+Txt5SITJm+DUpBqME2IFRgyq9k5lsmOO3yASy/5byaUYagFnz7yJLbdesusrmD6Y4pGdVQMIGwFhK6LxCBNIbHAMAqEAgKgAAjf4AvHHMW535jLgisuJgXsUgUBrAPmXXMD2201ngM+shvDwA0PP8YBn5jBnHPOZLJr00xhYDhGWhY33Xgzl/zwB1z2vfNoBgmtWOHmiiRCEAHCNCm2FXlpaR/nnf8tLvruBeRlJpwkaGHaFkiDWEOQCnKlPLUQHCdzXOupe1csWYaMY2y/wLrhkHnz5nHL7XfT2dlBzoWiCX19/awS7Rw57aPM+sz+dHRNYE0Ehc4tyJdz1FMwbZMIyI/rQgLVeotEurz4+6f41e9+S2cRVJCxJ61rwgt/+wvnn3cOh//HvuTzJXrXVXn/5EnZ5ApQUrPf1N344jFH8fWzZlG2U3QSYtku47omsPfee7Pw3gc4+aiD8NwciQ3NxCJNBM+9+Fd2nrorzSghSRIMw8jmaYSwWwONZoDvu5gSoqBF1BxmUhlcIO/BzVd9n733PYDOG65l2l67vPsK908wKgbg5G3qAw3MVHD7rQ+yVXsJzwDp54ltnyllzTbbbse3vnE2x5x4CoccdizHH38s++y1J6tWLucnDz/DrxZexzOPL0SmKZFhcNlVV3PHtfPY1hW0wga+k0MWLQwJnz3sYD623/6cccrJbPu+TtI05dnn/sDfls2gd9WrFPI+v3nit8y7cgHzr7qaT+73odcInyOlUFqgUkEiwLQcli57hRcXv0IBRWO4hl8u8vDjj7Pwjtt57N5fEKTwwEMPc+jBh7Dz+zsQZPF/FARM7qiQAw4/5EBuuOlmzjzr63g2DA/08eBDT7BVV5lWGOCaguq6XnbeYTum7LQ9p31tDmd/7StMKIJJiu0aSA2uA2177oBtGTy66ElmfmwfLFMzuHJVxiWmwfVtQuDsU47jnFe7+eWLiwnrg8BE2tvKXDX/Ig7+zCk89fhDzP7KiUzYbhcWv/gCd956E92rV3LXHbfRXs7W7WVLl/DE021oUlApYatOHDTYdZed2GrLLXBtE9/SSAWOCAHF9l1lrvyf7zNnzlzuvuvnbFN5e1zy72QbxSidB0hxJcz8+AxWLllC97KI4doQUSQwvBLssTXbbL0teVdw58+u4oFHf8cvfvEY1159DZMnT2LXaTP57ikPsYVrgzR49A9LOeGoz7Pz5PEYSYO8YxPGTVzDpRWmtBc8vvPt81mx/FUmTuhkq65xTJ7YxbU/uQaVRKg0ZsqUKbzw+6cplExMYGiwn3Klgu3nAIkmM4hC3mfGtH145P6FrF26nHEd7UjfoaOziztvuZEtOwShAfXaMDMP+SRJqPEdgQUYUgEpeSRnnPolfnrVFXT39lPpaudLx32e5555kqeCFq7nYAhIwgZpmrLjTttjS80JRx+JiMG2NEaSAkZG6ijhBxd+hz899zyNRlYPPPKgA7FVRuCXjky0q+Cb555Fvq1MRymfMcILMBO48ep5LF68mEuvWABOHtcUHDh9OgfNmI7vQK2h2OffPsxji37JiiXLQChQWZNKwXfIeRbjOyoUCgX233t3fAmkAQiBISw+ddA0Vq5cyW9++TjbzDxwdNRuA9jsleANIdF1hMjTSiBSYNkQKoWBxJHg66z/S8gszgzTrA3HECPVdqCsQdRCyDlEJlQDRZsBhorBkSRKIaWJxnidCxpIEtAmNAIouJCOxPrGyL5JpeAailq1SrFUYn2mWGnQAmrDTQLXpmKZuBrSkbAtUpCTWVU6ktAMYvKuhRh5wtrebjo7x6PTGGF6DA7UKLcVUUAr1FjO6+0WeuRjAWGoSeOQnO/SqtcpFvNEKsLBzOhYJdSUAlNiAZ6CqBXSyjk4SYqbSIbMGBGnlEyP2IJarUmp6L82NqUyI2rGoA0YHAoZ3+YQhZB3svAuUdl8vFFZ4jgLAaMgwnFs1jOvDoaacY4mqq3BLhRJRY545H+yeUeojt8xjEodQAiFgSIvwRcgSFDhIHmZ4CuoDzcydlANUaNBzgAfGOjtxwZyxAwODkHOIY4S0qRBxQ2JVROdmASpwpAWcRxikKCigP41a7CARnUQDxjnZkUwX4KRpqhWA1snuDIBJMVSBZCEI7FvmsQYKCo5iw7LpLmmH1TWj4TO0oX1eh0EyFSjW01MDWnYQkctOjvHEwcRWpiQxlQqRZpB1rOStwWy1cQFzBRErHEZURSVUMy72BJKRZ9mdQBD2pk2NlugoGBK1nV34wKDa4ewPYsoGsY1DBAK0zQpuR6kComivZgVtgDisIVqDCCbVXIyo2DtKtp4gKebmCrGSEJEEqESTRprZKSxVdZ+4UrI+zYqjQnimFqjQdkRNFt17OI4mrFJCDQicFEYqv5uqtpGMSoeAGqgPAgtcCERMYoQGwNaBrgZE26rXsPL+wAMru2nMr6TMIgwvRrQ9hofr6BGKx3CNTqJlYMpNRJBmrSwTROdJAhp0qw38YsF0qCJ4bgEQYjWGs9zAQ1JCIagGQg8P3tvkigsU5L1TaeAotVo4rmFETeSJ5EQEmOjsbQgTTWGYZK1o64Xr6AVJHg5H+rrINdGIiSNWouSb4BIUWGC9AojTX3Wa39Zq9UpFfOoqIW0TFpYeOnIo4WiEdRw80WGB6qUixUa1bXI9hJeaoEWrBMB44QDoUJ5CqkliTKIlcYzFST1rOs2gNjMZYUwrTBsY6RFXINpg+mQAkYcgGEDOiO1N7NnSSlQZJ4raDUwbYfUMKnGkLcgp8KstTq35WbXsE3FRg1gQyXnv3vAKB9Yf7OS+HqMxr0zG3r3aGFDMnkra967Kb/RwCYzxIyKo9gI3sr4Rvvs87863ktK/0a8qQG8F5R/LKxYY1F2m4qxIL/NjY2yRG7o59EWyFsZ32icK/7HcazvUPxXweaW31jy1psUAv1j++lYwcbGN9qH6se6F90YRlt+7wbekx5grNzPL4T4u9V/rMhvY3i37+3Z2Ps3J97zm+CxEP+PRdltKsa6sb5dbFIhbKxP4FhU/n/EWJfhhjCW5Le5sEGSvNG+n/+N2JQ8/z899LwZ8Fbu5383sakeZ/38jVZoOJZ4nv8PhhRX64iW6roAAAAASUVORK5CYII=;imageBorder=default;strokeWidth=2;" parent="1" vertex="1">
          <mxGeometry x="1472.76" y="1050" width="93.09" height="80" as="geometry" />
        </mxCell>
        <mxCell id="ghfz-8iDQNyQn_P3O8K7-17" style="edgeStyle=orthogonalEdgeStyle;rounded=0;orthogonalLoop=1;jettySize=auto;html=1;entryX=0.5;entryY=0;entryDx=0;entryDy=0;" parent="1" source="ghfz-8iDQNyQn_P3O8K7-4" target="ghfz-8iDQNyQn_P3O8K7-12" edge="1">
          <mxGeometry relative="1" as="geometry" />
        </mxCell>
        <mxCell id="ghfz-8iDQNyQn_P3O8K7-36" value="Получить имя пользователя" style="edgeLabel;html=1;align=center;verticalAlign=middle;resizable=0;points=[];" parent="ghfz-8iDQNyQn_P3O8K7-17" vertex="1" connectable="0">
          <mxGeometry x="0.0018" relative="1" as="geometry">
            <mxPoint y="-9" as="offset" />
          </mxGeometry>
        </mxCell>
        <mxCell id="ghfz-8iDQNyQn_P3O8K7-18" style="edgeStyle=orthogonalEdgeStyle;rounded=0;orthogonalLoop=1;jettySize=auto;html=1;entryX=0.5;entryY=0;entryDx=0;entryDy=0;" parent="1" source="ghfz-8iDQNyQn_P3O8K7-4" target="ghfz-8iDQNyQn_P3O8K7-10" edge="1">
          <mxGeometry relative="1" as="geometry" />
        </mxCell>
        <mxCell id="ghfz-8iDQNyQn_P3O8K7-37" value="Словарь" style="edgeLabel;html=1;align=center;verticalAlign=middle;resizable=0;points=[];" parent="ghfz-8iDQNyQn_P3O8K7-18" vertex="1" connectable="0">
          <mxGeometry x="-0.1929" relative="1" as="geometry">
            <mxPoint x="3" y="-19" as="offset" />
          </mxGeometry>
        </mxCell>
        <mxCell id="ghfz-8iDQNyQn_P3O8K7-31" style="edgeStyle=orthogonalEdgeStyle;rounded=0;orthogonalLoop=1;jettySize=auto;html=1;entryX=0.5;entryY=0;entryDx=0;entryDy=0;" parent="1" source="ghfz-8iDQNyQn_P3O8K7-4" target="ghfz-8iDQNyQn_P3O8K7-11" edge="1">
          <mxGeometry relative="1" as="geometry" />
        </mxCell>
        <mxCell id="ghfz-8iDQNyQn_P3O8K7-44" value="Получить&lt;br&gt;упражнения" style="edgeLabel;html=1;align=center;verticalAlign=middle;resizable=0;points=[];" parent="ghfz-8iDQNyQn_P3O8K7-31" vertex="1" connectable="0">
          <mxGeometry x="-0.132" y="1" relative="1" as="geometry">
            <mxPoint x="40" y="-83" as="offset" />
          </mxGeometry>
        </mxCell>
        <mxCell id="ghfz-8iDQNyQn_P3O8K7-4" value="" style="shape=image;verticalLabelPosition=bottom;labelBackgroundColor=default;verticalAlign=top;aspect=fixed;imageAspect=0;image=https://kubernetes.io/blog/2023/10/31/gateway-api-ga/gateway-api-logo.png;imageBorder=default;strokeWidth=2;" parent="1" vertex="1">
          <mxGeometry x="1450" y="1190" width="138.6" height="38.5" as="geometry" />
        </mxCell>
        <mxCell id="ghfz-8iDQNyQn_P3O8K7-7" value="" style="shape=image;verticalLabelPosition=bottom;labelBackgroundColor=default;verticalAlign=top;aspect=fixed;imageAspect=0;image=https://toplogos.ru/images/logo-postgresql.png;imageBorder=default;strokeWidth=2;" parent="1" vertex="1">
          <mxGeometry x="1806.73" y="1366.37" width="71.95" height="80" as="geometry" />
        </mxCell>
        <mxCell id="ghfz-8iDQNyQn_P3O8K7-8" value="" style="shape=image;verticalLabelPosition=bottom;labelBackgroundColor=default;verticalAlign=top;aspect=fixed;imageAspect=0;image=https://dwglogo.com/wp-content/uploads/2017/09/Elasticsearch_logo.png;imageBorder=default;strokeWidth=2;" parent="1" vertex="1">
          <mxGeometry x="1806.73" y="1290" width="84" height="47.27" as="geometry" />
        </mxCell>
        <mxCell id="ghfz-8iDQNyQn_P3O8K7-9" value="" style="shape=image;verticalLabelPosition=bottom;labelBackgroundColor=default;verticalAlign=top;aspect=fixed;imageAspect=0;image=https://www.felpfe.com/wp-content/uploads/sites/4/2023/06/kafka-logo-tall-apache-kafka-logo.jpg;imageBorder=default;strokeWidth=2;" parent="1" vertex="1">
          <mxGeometry x="1390" y="1730" width="80.55" height="50" as="geometry" />
        </mxCell>
        <mxCell id="ghfz-8iDQNyQn_P3O8K7-14" style="edgeStyle=orthogonalEdgeStyle;rounded=0;orthogonalLoop=1;jettySize=auto;html=1;entryX=0;entryY=0.5;entryDx=0;entryDy=0;exitX=1;exitY=0.75;exitDx=0;exitDy=0;" parent="1" source="ghfz-8iDQNyQn_P3O8K7-10" target="ghfz-8iDQNyQn_P3O8K7-7" edge="1">
          <mxGeometry relative="1" as="geometry" />
        </mxCell>
        <mxCell id="ghfz-8iDQNyQn_P3O8K7-15" style="edgeStyle=orthogonalEdgeStyle;rounded=0;orthogonalLoop=1;jettySize=auto;html=1;entryX=0;entryY=0.5;entryDx=0;entryDy=0;exitX=1;exitY=0.25;exitDx=0;exitDy=0;" parent="1" source="ghfz-8iDQNyQn_P3O8K7-10" target="ghfz-8iDQNyQn_P3O8K7-8" edge="1">
          <mxGeometry relative="1" as="geometry" />
        </mxCell>
        <mxCell id="ghfz-8iDQNyQn_P3O8K7-10" value="Dictionary Service" style="rounded=1;whiteSpace=wrap;html=1;" parent="1" vertex="1">
          <mxGeometry x="1620" y="1326.37" width="120" height="60" as="geometry" />
        </mxCell>
        <mxCell id="ghfz-8iDQNyQn_P3O8K7-21" style="edgeStyle=orthogonalEdgeStyle;rounded=0;orthogonalLoop=1;jettySize=auto;html=1;entryX=0;entryY=0.5;entryDx=0;entryDy=0;" parent="1" source="ghfz-8iDQNyQn_P3O8K7-11" target="ghfz-8iDQNyQn_P3O8K7-16" edge="1">
          <mxGeometry relative="1" as="geometry" />
        </mxCell>
        <mxCell id="ghfz-8iDQNyQn_P3O8K7-30" style="edgeStyle=orthogonalEdgeStyle;rounded=0;orthogonalLoop=1;jettySize=auto;html=1;entryX=0;entryY=0.5;entryDx=0;entryDy=0;exitX=0.75;exitY=0;exitDx=0;exitDy=0;" parent="1" source="ghfz-8iDQNyQn_P3O8K7-11" target="ghfz-8iDQNyQn_P3O8K7-10" edge="1">
          <mxGeometry relative="1" as="geometry" />
        </mxCell>
        <mxCell id="ghfz-8iDQNyQn_P3O8K7-39" value="Получить набор слов&lt;br&gt;для упражнения (gRPC)" style="edgeLabel;html=1;align=center;verticalAlign=middle;resizable=0;points=[];" parent="ghfz-8iDQNyQn_P3O8K7-30" vertex="1" connectable="0">
          <mxGeometry x="-0.5848" y="-4" relative="1" as="geometry">
            <mxPoint x="66" y="-13" as="offset" />
          </mxGeometry>
        </mxCell>
        <mxCell id="ghfz-8iDQNyQn_P3O8K7-33" style="edgeStyle=orthogonalEdgeStyle;rounded=0;orthogonalLoop=1;jettySize=auto;html=1;entryX=0.5;entryY=1;entryDx=0;entryDy=0;exitX=0;exitY=0.5;exitDx=0;exitDy=0;" parent="1" source="ghfz-8iDQNyQn_P3O8K7-9" target="ghfz-8iDQNyQn_P3O8K7-24" edge="1">
          <mxGeometry relative="1" as="geometry" />
        </mxCell>
        <mxCell id="ghfz-8iDQNyQn_P3O8K7-45" value="Сохранить результат&lt;br&gt;тренировки" style="edgeLabel;html=1;align=center;verticalAlign=middle;resizable=0;points=[];" parent="ghfz-8iDQNyQn_P3O8K7-33" vertex="1" connectable="0">
          <mxGeometry x="0.1661" relative="1" as="geometry">
            <mxPoint x="120" y="-10" as="offset" />
          </mxGeometry>
        </mxCell>
        <mxCell id="ghfz-8iDQNyQn_P3O8K7-35" style="edgeStyle=orthogonalEdgeStyle;rounded=0;orthogonalLoop=1;jettySize=auto;html=1;entryX=1;entryY=0.5;entryDx=0;entryDy=0;" parent="1" source="ghfz-8iDQNyQn_P3O8K7-11" target="ghfz-8iDQNyQn_P3O8K7-9" edge="1">
          <mxGeometry relative="1" as="geometry" />
        </mxCell>
        <mxCell id="ghfz-8iDQNyQn_P3O8K7-41" style="edgeStyle=orthogonalEdgeStyle;rounded=0;orthogonalLoop=1;jettySize=auto;html=1;entryX=0;entryY=0.5;entryDx=0;entryDy=0;exitX=1;exitY=0.75;exitDx=0;exitDy=0;" parent="1" source="ghfz-8iDQNyQn_P3O8K7-11" target="ghfz-8iDQNyQn_P3O8K7-40" edge="1">
          <mxGeometry relative="1" as="geometry" />
        </mxCell>
        <mxCell id="ghfz-8iDQNyQn_P3O8K7-11" value="Exercise Service" style="rounded=1;whiteSpace=wrap;html=1;" parent="1" vertex="1">
          <mxGeometry x="1460" y="1560" width="120" height="60" as="geometry" />
        </mxCell>
        <mxCell id="ghfz-8iDQNyQn_P3O8K7-20" style="edgeStyle=orthogonalEdgeStyle;rounded=0;orthogonalLoop=1;jettySize=auto;html=1;entryX=1;entryY=0.5;entryDx=0;entryDy=0;" parent="1" source="ghfz-8iDQNyQn_P3O8K7-12" target="ghfz-8iDQNyQn_P3O8K7-19" edge="1">
          <mxGeometry relative="1" as="geometry" />
        </mxCell>
        <mxCell id="ghfz-8iDQNyQn_P3O8K7-34" style="edgeStyle=orthogonalEdgeStyle;rounded=0;orthogonalLoop=1;jettySize=auto;html=1;entryX=0.5;entryY=0;entryDx=0;entryDy=0;exitX=0.25;exitY=1;exitDx=0;exitDy=0;" parent="1" source="ghfz-8iDQNyQn_P3O8K7-4" target="ghfz-8iDQNyQn_P3O8K7-24" edge="1">
          <mxGeometry relative="1" as="geometry">
            <Array as="points">
              <mxPoint x="1485" y="1500" />
              <mxPoint x="1310" y="1500" />
            </Array>
          </mxGeometry>
        </mxCell>
        <mxCell id="ghfz-8iDQNyQn_P3O8K7-38" value="Получить статистику по упражнениям" style="edgeLabel;html=1;align=center;verticalAlign=middle;resizable=0;points=[];" parent="ghfz-8iDQNyQn_P3O8K7-34" vertex="1" connectable="0">
          <mxGeometry x="0.3904" y="-4" relative="1" as="geometry">
            <mxPoint x="-25" y="-16" as="offset" />
          </mxGeometry>
        </mxCell>
        <mxCell id="ghfz-8iDQNyQn_P3O8K7-12" value="Profile Service" style="rounded=1;whiteSpace=wrap;html=1;" parent="1" vertex="1">
          <mxGeometry x="1250" y="1326.37" width="120" height="60" as="geometry" />
        </mxCell>
        <mxCell id="ghfz-8iDQNyQn_P3O8K7-16" value="" style="shape=image;verticalLabelPosition=bottom;labelBackgroundColor=default;verticalAlign=top;aspect=fixed;imageAspect=0;image=https://leninmhs.com/wp-content/uploads/2013/08/redis-logo-base-de-datos-instalar-debian.png;imageBorder=default;strokeWidth=2;" parent="1" vertex="1">
          <mxGeometry x="1640.69" y="1560" width="71.08" height="60" as="geometry" />
        </mxCell>
        <mxCell id="ghfz-8iDQNyQn_P3O8K7-19" value="" style="shape=image;verticalLabelPosition=bottom;labelBackgroundColor=default;verticalAlign=top;aspect=fixed;imageAspect=0;image=https://toplogos.ru/images/logo-postgresql.png;imageBorder=default;strokeWidth=2;" parent="1" vertex="1">
          <mxGeometry x="1120" y="1316.37" width="71.95" height="80" as="geometry" />
        </mxCell>
        <mxCell id="ghfz-8iDQNyQn_P3O8K7-23" value="" style="shape=image;verticalLabelPosition=bottom;labelBackgroundColor=default;verticalAlign=top;aspect=fixed;imageAspect=0;image=https://console.kamatera.com/assets/images/os/os_clickhouse.png;imageBorder=default;strokeWidth=2;" parent="1" vertex="1">
          <mxGeometry x="1111" y="1565" width="83.33" height="50" as="geometry" />
        </mxCell>
        <mxCell id="ghfz-8iDQNyQn_P3O8K7-28" style="edgeStyle=orthogonalEdgeStyle;rounded=0;orthogonalLoop=1;jettySize=auto;html=1;entryX=1;entryY=0.5;entryDx=0;entryDy=0;" parent="1" source="ghfz-8iDQNyQn_P3O8K7-24" target="ghfz-8iDQNyQn_P3O8K7-23" edge="1">
          <mxGeometry relative="1" as="geometry" />
        </mxCell>
        <mxCell id="ghfz-8iDQNyQn_P3O8K7-24" value="Report Service" style="rounded=1;whiteSpace=wrap;html=1;" parent="1" vertex="1">
          <mxGeometry x="1250" y="1560" width="120" height="60" as="geometry" />
        </mxCell>
        <mxCell id="ghfz-8iDQNyQn_P3O8K7-40" value="" style="shape=image;verticalLabelPosition=bottom;labelBackgroundColor=default;verticalAlign=top;aspect=fixed;imageAspect=0;image=https://toplogos.ru/images/logo-postgresql.png;imageBorder=default;strokeWidth=2;" parent="1" vertex="1">
          <mxGeometry x="1640.69" y="1630" width="71.95" height="80" as="geometry" />
        </mxCell>
        <mxCell id="ghfz-8iDQNyQn_P3O8K7-42" value="Для хранения настроек" style="text;html=1;strokeColor=none;fillColor=none;align=center;verticalAlign=middle;whiteSpace=wrap;rounded=0;" parent="1" vertex="1">
          <mxGeometry x="1711.7700000000002" y="1660" width="97.36" height="30" as="geometry" />
        </mxCell>
        <mxCell id="ghfz-8iDQNyQn_P3O8K7-43" value="Упражнения для пользователя" style="text;html=1;strokeColor=none;fillColor=none;align=center;verticalAlign=middle;whiteSpace=wrap;rounded=0;" parent="1" vertex="1">
          <mxGeometry x="1712.64" y="1575" width="97.36" height="30" as="geometry" />
        </mxCell>
        <mxCell id="ghfz-8iDQNyQn_P3O8K7-47" value="" style="outlineConnect=0;dashed=0;verticalLabelPosition=bottom;verticalAlign=top;align=center;html=1;shape=mxgraph.aws3.management_console;fillColor=#D2D3D3;gradientColor=none;" parent="1" vertex="1">
          <mxGeometry x="367.79999999999995" y="1040" width="63" height="63" as="geometry" />
        </mxCell>
        <mxCell id="ghfz-8iDQNyQn_P3O8K7-48" value="Client" style="text;html=1;strokeColor=none;fillColor=none;align=center;verticalAlign=middle;whiteSpace=wrap;rounded=0;" parent="1" vertex="1">
          <mxGeometry x="367.79999999999995" y="1010" width="60" height="30" as="geometry" />
        </mxCell>
        <mxCell id="ghfz-8iDQNyQn_P3O8K7-49" style="edgeStyle=orthogonalEdgeStyle;rounded=0;orthogonalLoop=1;jettySize=auto;html=1;entryX=0.5;entryY=0;entryDx=0;entryDy=0;exitX=0.5;exitY=1;exitDx=0;exitDy=0;exitPerimeter=0;" parent="1" source="ghfz-8iDQNyQn_P3O8K7-47" target="ghfz-8iDQNyQn_P3O8K7-51" edge="1">
          <mxGeometry relative="1" as="geometry">
            <mxPoint x="410" y="1040" as="sourcePoint" />
          </mxGeometry>
        </mxCell>
        <mxCell id="ghfz-8iDQNyQn_P3O8K7-55" style="edgeStyle=orthogonalEdgeStyle;rounded=0;orthogonalLoop=1;jettySize=auto;html=1;entryX=0.5;entryY=0;entryDx=0;entryDy=0;" parent="1" source="ghfz-8iDQNyQn_P3O8K7-51" target="ghfz-8iDQNyQn_P3O8K7-53" edge="1">
          <mxGeometry relative="1" as="geometry" />
        </mxCell>
        <mxCell id="ghfz-8iDQNyQn_P3O8K7-51" value="" style="shape=image;verticalLabelPosition=bottom;labelBackgroundColor=default;verticalAlign=top;aspect=fixed;imageAspect=0;image=https://kubernetes.io/blog/2023/10/31/gateway-api-ga/gateway-api-logo.png;imageBorder=default;strokeWidth=2;" parent="1" vertex="1">
          <mxGeometry x="330" y="1190" width="138.6" height="38.5" as="geometry" />
        </mxCell>
        <mxCell id="ghfz-8iDQNyQn_P3O8K7-52" style="edgeStyle=orthogonalEdgeStyle;rounded=0;orthogonalLoop=1;jettySize=auto;html=1;entryX=1;entryY=0.5;entryDx=0;entryDy=0;" parent="1" source="ghfz-8iDQNyQn_P3O8K7-53" target="ghfz-8iDQNyQn_P3O8K7-54" edge="1">
          <mxGeometry relative="1" as="geometry" />
        </mxCell>
        <mxCell id="ghfz-8iDQNyQn_P3O8K7-53" value="Monolith" style="rounded=1;whiteSpace=wrap;html=1;" parent="1" vertex="1">
          <mxGeometry x="340" y="1347.27" width="120" height="60" as="geometry" />
        </mxCell>
        <mxCell id="ghfz-8iDQNyQn_P3O8K7-54" value="" style="shape=image;verticalLabelPosition=bottom;labelBackgroundColor=default;verticalAlign=top;aspect=fixed;imageAspect=0;image=https://toplogos.ru/images/logo-postgresql.png;imageBorder=default;strokeWidth=2;" parent="1" vertex="1">
          <mxGeometry x="210" y="1337.27" width="71.95" height="80" as="geometry" />
        </mxCell>
        <mxCell id="K0bMWCn7lL2bXNIeZDvH-1" style="edgeStyle=orthogonalEdgeStyle;rounded=0;orthogonalLoop=1;jettySize=auto;html=1;entryX=0.5;entryY=0;entryDx=0;entryDy=0;" parent="1" source="K0bMWCn7lL2bXNIeZDvH-2" target="K0bMWCn7lL2bXNIeZDvH-12" edge="1">
          <mxGeometry relative="1" as="geometry">
            <mxPoint x="2840.005000000001" y="1040" as="targetPoint" />
          </mxGeometry>
        </mxCell>
        <mxCell id="K0bMWCn7lL2bXNIeZDvH-2" value="" style="outlineConnect=0;dashed=0;verticalLabelPosition=bottom;verticalAlign=top;align=center;html=1;shape=mxgraph.aws3.management_console;fillColor=#D2D3D3;gradientColor=none;" parent="1" vertex="1">
          <mxGeometry x="2808.5" y="1033" width="63" height="63" as="geometry" />
        </mxCell>
        <mxCell id="K0bMWCn7lL2bXNIeZDvH-3" value="Client" style="text;html=1;strokeColor=none;fillColor=none;align=center;verticalAlign=middle;whiteSpace=wrap;rounded=0;" parent="1" vertex="1">
          <mxGeometry x="2808.5" y="1003" width="60" height="30" as="geometry" />
        </mxCell>
        <mxCell id="K0bMWCn7lL2bXNIeZDvH-8" style="edgeStyle=orthogonalEdgeStyle;rounded=0;orthogonalLoop=1;jettySize=auto;html=1;entryX=0.5;entryY=0;entryDx=0;entryDy=0;" parent="1" source="K0bMWCn7lL2bXNIeZDvH-12" target="K0bMWCn7lL2bXNIeZDvH-18" edge="1">
          <mxGeometry relative="1" as="geometry" />
        </mxCell>
        <mxCell id="K0bMWCn7lL2bXNIeZDvH-10" style="edgeStyle=orthogonalEdgeStyle;rounded=0;orthogonalLoop=1;jettySize=auto;html=1;entryX=0.5;entryY=0;entryDx=0;entryDy=0;exitX=0.5;exitY=1;exitDx=0;exitDy=0;" parent="1" source="K0bMWCn7lL2bXNIeZDvH-12" target="K0bMWCn7lL2bXNIeZDvH-26" edge="1">
          <mxGeometry relative="1" as="geometry" />
        </mxCell>
        <mxCell id="K0bMWCn7lL2bXNIeZDvH-11" value="Получить&lt;br&gt;упражнения" style="edgeLabel;html=1;align=center;verticalAlign=middle;resizable=0;points=[];" parent="K0bMWCn7lL2bXNIeZDvH-10" vertex="1" connectable="0">
          <mxGeometry x="-0.132" y="1" relative="1" as="geometry">
            <mxPoint x="40" y="-83" as="offset" />
          </mxGeometry>
        </mxCell>
        <mxCell id="K0bMWCn7lL2bXNIeZDvH-12" value="" style="shape=image;verticalLabelPosition=bottom;labelBackgroundColor=default;verticalAlign=top;aspect=fixed;imageAspect=0;image=https://kubernetes.io/blog/2023/10/31/gateway-api-ga/gateway-api-logo.png;imageBorder=default;strokeWidth=2;" parent="1" vertex="1">
          <mxGeometry x="2770.7" y="1180" width="138.6" height="38.5" as="geometry" />
        </mxCell>
        <mxCell id="K0bMWCn7lL2bXNIeZDvH-13" value="" style="shape=image;verticalLabelPosition=bottom;labelBackgroundColor=default;verticalAlign=top;aspect=fixed;imageAspect=0;image=https://toplogos.ru/images/logo-postgresql.png;imageBorder=default;strokeWidth=2;" parent="1" vertex="1">
          <mxGeometry x="3164.02" y="1625" width="71.95" height="80" as="geometry" />
        </mxCell>
        <mxCell id="K0bMWCn7lL2bXNIeZDvH-15" value="" style="shape=image;verticalLabelPosition=bottom;labelBackgroundColor=default;verticalAlign=top;aspect=fixed;imageAspect=0;image=https://www.felpfe.com/wp-content/uploads/sites/4/2023/06/kafka-logo-tall-apache-kafka-logo.jpg;imageBorder=default;strokeWidth=2;" parent="1" vertex="1">
          <mxGeometry x="2620" y="1535" width="80.55" height="50" as="geometry" />
        </mxCell>
        <mxCell id="K0bMWCn7lL2bXNIeZDvH-16" style="edgeStyle=orthogonalEdgeStyle;rounded=0;orthogonalLoop=1;jettySize=auto;html=1;entryX=0.5;entryY=0;entryDx=0;entryDy=0;exitX=0.5;exitY=1;exitDx=0;exitDy=0;" parent="1" source="K0bMWCn7lL2bXNIeZDvH-18" target="K0bMWCn7lL2bXNIeZDvH-13" edge="1">
          <mxGeometry relative="1" as="geometry" />
        </mxCell>
        <mxCell id="K0bMWCn7lL2bXNIeZDvH-18" value="Dictionary Service" style="rounded=1;whiteSpace=wrap;html=1;" parent="1" vertex="1">
          <mxGeometry x="3140" y="1530" width="120" height="60" as="geometry" />
        </mxCell>
        <mxCell id="K0bMWCn7lL2bXNIeZDvH-20" style="edgeStyle=orthogonalEdgeStyle;rounded=0;orthogonalLoop=1;jettySize=auto;html=1;entryX=0;entryY=0.5;entryDx=0;entryDy=0;exitX=1;exitY=0.5;exitDx=0;exitDy=0;" parent="1" source="K0bMWCn7lL2bXNIeZDvH-26" target="K0bMWCn7lL2bXNIeZDvH-18" edge="1">
          <mxGeometry relative="1" as="geometry" />
        </mxCell>
        <mxCell id="K0bMWCn7lL2bXNIeZDvH-21" value="Получить набор слов&lt;br&gt;для упражнения (gRPC)" style="edgeLabel;html=1;align=center;verticalAlign=middle;resizable=0;points=[];" parent="K0bMWCn7lL2bXNIeZDvH-20" vertex="1" connectable="0">
          <mxGeometry x="-0.5848" y="-4" relative="1" as="geometry">
            <mxPoint x="70" y="-24" as="offset" />
          </mxGeometry>
        </mxCell>
        <mxCell id="K0bMWCn7lL2bXNIeZDvH-22" style="edgeStyle=orthogonalEdgeStyle;rounded=0;orthogonalLoop=1;jettySize=auto;html=1;entryX=1;entryY=0.5;entryDx=0;entryDy=0;exitX=0;exitY=0.5;exitDx=0;exitDy=0;" parent="1" source="K0bMWCn7lL2bXNIeZDvH-15" target="K0bMWCn7lL2bXNIeZDvH-35" edge="1">
          <mxGeometry relative="1" as="geometry" />
        </mxCell>
        <mxCell id="K0bMWCn7lL2bXNIeZDvH-23" value="Сохранить результат&lt;br&gt;тренировки" style="edgeLabel;html=1;align=center;verticalAlign=middle;resizable=0;points=[];" parent="K0bMWCn7lL2bXNIeZDvH-22" vertex="1" connectable="0">
          <mxGeometry x="0.1661" relative="1" as="geometry">
            <mxPoint x="93" y="-40" as="offset" />
          </mxGeometry>
        </mxCell>
        <mxCell id="K0bMWCn7lL2bXNIeZDvH-24" style="edgeStyle=orthogonalEdgeStyle;rounded=0;orthogonalLoop=1;jettySize=auto;html=1;entryX=1;entryY=0.5;entryDx=0;entryDy=0;" parent="1" source="K0bMWCn7lL2bXNIeZDvH-26" target="K0bMWCn7lL2bXNIeZDvH-15" edge="1">
          <mxGeometry relative="1" as="geometry" />
        </mxCell>
        <mxCell id="K0bMWCn7lL2bXNIeZDvH-25" style="edgeStyle=orthogonalEdgeStyle;rounded=0;orthogonalLoop=1;jettySize=auto;html=1;entryX=0.5;entryY=0;entryDx=0;entryDy=0;exitX=0.5;exitY=1;exitDx=0;exitDy=0;" parent="1" source="K0bMWCn7lL2bXNIeZDvH-26" target="K0bMWCn7lL2bXNIeZDvH-36" edge="1">
          <mxGeometry relative="1" as="geometry" />
        </mxCell>
        <mxCell id="K0bMWCn7lL2bXNIeZDvH-26" value="Exercise Service" style="rounded=1;whiteSpace=wrap;html=1;" parent="1" vertex="1">
          <mxGeometry x="2780" y="1530" width="120" height="60" as="geometry" />
        </mxCell>
        <mxCell id="K0bMWCn7lL2bXNIeZDvH-28" style="edgeStyle=orthogonalEdgeStyle;rounded=0;orthogonalLoop=1;jettySize=auto;html=1;entryX=0.5;entryY=0;entryDx=0;entryDy=0;exitX=0;exitY=0.5;exitDx=0;exitDy=0;" parent="1" source="K0bMWCn7lL2bXNIeZDvH-12" target="K0bMWCn7lL2bXNIeZDvH-35" edge="1">
          <mxGeometry relative="1" as="geometry">
            <mxPoint x="2730" y="1230" as="sourcePoint" />
          </mxGeometry>
        </mxCell>
        <mxCell id="K0bMWCn7lL2bXNIeZDvH-29" value="Получить статистику&lt;br&gt;по упражнениям" style="edgeLabel;html=1;align=center;verticalAlign=middle;resizable=0;points=[];" parent="K0bMWCn7lL2bXNIeZDvH-28" vertex="1" connectable="0">
          <mxGeometry x="0.3904" y="-4" relative="1" as="geometry">
            <mxPoint x="64" y="-112" as="offset" />
          </mxGeometry>
        </mxCell>
        <mxCell id="K0bMWCn7lL2bXNIeZDvH-33" value="" style="shape=image;verticalLabelPosition=bottom;labelBackgroundColor=default;verticalAlign=top;aspect=fixed;imageAspect=0;image=https://console.kamatera.com/assets/images/os/os_clickhouse.png;imageBorder=default;strokeWidth=2;" parent="1" vertex="1">
          <mxGeometry x="2428.34" y="1640" width="83.33" height="50" as="geometry" />
        </mxCell>
        <mxCell id="K0bMWCn7lL2bXNIeZDvH-34" style="edgeStyle=orthogonalEdgeStyle;rounded=0;orthogonalLoop=1;jettySize=auto;html=1;entryX=0.5;entryY=0;entryDx=0;entryDy=0;exitX=0.5;exitY=1;exitDx=0;exitDy=0;" parent="1" source="K0bMWCn7lL2bXNIeZDvH-35" target="K0bMWCn7lL2bXNIeZDvH-33" edge="1">
          <mxGeometry relative="1" as="geometry" />
        </mxCell>
        <mxCell id="K0bMWCn7lL2bXNIeZDvH-35" value="Analytics Service" style="rounded=1;whiteSpace=wrap;html=1;" parent="1" vertex="1">
          <mxGeometry x="2410" y="1530" width="120" height="60" as="geometry" />
        </mxCell>
        <mxCell id="K0bMWCn7lL2bXNIeZDvH-36" value="" style="shape=image;verticalLabelPosition=bottom;labelBackgroundColor=default;verticalAlign=top;aspect=fixed;imageAspect=0;image=https://toplogos.ru/images/logo-postgresql.png;imageBorder=default;strokeWidth=2;" parent="1" vertex="1">
          <mxGeometry x="2804.03" y="1630" width="71.95" height="80" as="geometry" />
        </mxCell>
        <mxCell id="K0bMWCn7lL2bXNIeZDvH-39" value="&lt;font style=&quot;font-size: 10px;&quot; face=&quot;Lucida Console&quot;&gt;POST&amp;nbsp; &amp;nbsp;/v1/dictionary&lt;br&gt;&lt;span style=&quot;font-size: 10px;&quot;&gt;POST&amp;nbsp; &amp;nbsp;/v1/dictionary/{id}/name&lt;/span&gt;&lt;br&gt;&lt;span style=&quot;font-size: 10px;&quot;&gt;GET&amp;nbsp; &amp;nbsp; /v1/dictionary/{id}&lt;/span&gt;&lt;br&gt;&lt;span style=&quot;font-size: 10px;&quot;&gt;DELETE /v1/dictionary/{id}&lt;br&gt;&lt;font color=&quot;#999999&quot;&gt;POST&amp;nbsp; &amp;nbsp;/v1/dictionary/{dic_id}/translation/{trans_id}&lt;br&gt;DELETE /v1/dictionary/{dic_id}/translation/{trans_id}&lt;/font&gt;&lt;/span&gt;&lt;br&gt;&lt;/font&gt;" style="rounded=0;whiteSpace=wrap;html=1;align=left;verticalAlign=top;spacing=5;" parent="1" vertex="1">
          <mxGeometry x="2925.96" y="900" width="354.04" height="110" as="geometry" />
        </mxCell>
        <mxCell id="K0bMWCn7lL2bXNIeZDvH-40" value="&lt;div style=&quot;box-sizing:border-box;width:100%;background:#e4e4e4;padding:2px;&quot;&gt;dictionary&lt;/div&gt;&lt;table style=&quot;width:100%;font-size:1em;&quot; cellpadding=&quot;2&quot; cellspacing=&quot;0&quot;&gt;&lt;tbody&gt;&lt;tr&gt;&lt;td&gt;PK&lt;/td&gt;&lt;td&gt;id BIGINT&lt;/td&gt;&lt;/tr&gt;&lt;tr&gt;&lt;td&gt;&lt;br&gt;&lt;/td&gt;&lt;td&gt;created_at TIMESTAMP&lt;br&gt;&lt;/td&gt;&lt;/tr&gt;&lt;tr&gt;&lt;td&gt;&lt;br&gt;&lt;/td&gt;&lt;td&gt;deleted_at TIMESTAMP NULL&lt;/td&gt;&lt;/tr&gt;&lt;tr&gt;&lt;td&gt;&lt;br&gt;&lt;/td&gt;&lt;td&gt;lang VARCHAR(2)&lt;/td&gt;&lt;/tr&gt;&lt;tr&gt;&lt;td&gt;&lt;br&gt;&lt;/td&gt;&lt;td&gt;name VARCHAR(255)&lt;/td&gt;&lt;/tr&gt;&lt;tr&gt;&lt;td&gt;&lt;br&gt;&lt;/td&gt;&lt;td&gt;type SMALLINT&lt;br&gt;&lt;/td&gt;&lt;/tr&gt;&lt;/tbody&gt;&lt;/table&gt;" style="verticalAlign=top;align=left;overflow=fill;html=1;whiteSpace=wrap;labelBorderColor=default;strokeColor=none;" parent="1" vertex="1">
          <mxGeometry x="3530" y="1605" width="200" height="165" as="geometry" />
        </mxCell>
        <mxCell id="K0bMWCn7lL2bXNIeZDvH-44" value="&lt;div style=&quot;box-sizing:border-box;width:100%;background:#e4e4e4;padding:2px;&quot;&gt;task&lt;/div&gt;&lt;table style=&quot;width:100%;font-size:1em;&quot; cellpadding=&quot;2&quot; cellspacing=&quot;0&quot;&gt;&lt;tbody&gt;&lt;tr&gt;&lt;td&gt;PK&lt;/td&gt;&lt;td&gt;id BIGINT&lt;/td&gt;&lt;/tr&gt;&lt;tr&gt;&lt;td&gt;FK&lt;/td&gt;&lt;td&gt;exercise_id BIGINT&lt;/td&gt;&lt;/tr&gt;&lt;tr&gt;&lt;td&gt;&lt;br&gt;&lt;/td&gt;&lt;td&gt;words BIGINT[]&lt;/td&gt;&lt;/tr&gt;&lt;tr&gt;&lt;td&gt;&lt;br&gt;&lt;/td&gt;&lt;td&gt;word_correct BIGINT&lt;/td&gt;&lt;/tr&gt;&lt;tr&gt;&lt;td&gt;&lt;br&gt;&lt;/td&gt;&lt;td&gt;word_selected BIGINT NULL&lt;/td&gt;&lt;/tr&gt;&lt;/tbody&gt;&lt;/table&gt;" style="verticalAlign=top;align=left;overflow=fill;html=1;whiteSpace=wrap;labelBorderColor=default;strokeColor=none;" parent="1" vertex="1">
          <mxGeometry x="2660" y="1780" width="200" height="200" as="geometry" />
        </mxCell>
        <mxCell id="K0bMWCn7lL2bXNIeZDvH-46" value="&lt;div style=&quot;box-sizing:border-box;width:100%;background:#e4e4e4;padding:2px;&quot;&gt;exercise&lt;/div&gt;&lt;table style=&quot;width:100%;font-size:1em;&quot; cellpadding=&quot;2&quot; cellspacing=&quot;0&quot;&gt;&lt;tbody&gt;&lt;tr&gt;&lt;td&gt;PK&lt;/td&gt;&lt;td&gt;id BIGINT&lt;/td&gt;&lt;/tr&gt;&lt;tr&gt;&lt;td&gt;&lt;br&gt;&lt;/td&gt;&lt;td&gt;created_at TIMESTAMP&lt;br&gt;&lt;/td&gt;&lt;/tr&gt;&lt;tr&gt;&lt;td&gt;&lt;br&gt;&lt;/td&gt;&lt;td&gt;updated_at TIMESTAMP&lt;br&gt;&lt;/td&gt;&lt;/tr&gt;&lt;tr&gt;&lt;td&gt;&lt;br&gt;&lt;/td&gt;&lt;td&gt;user_id UUID&lt;br&gt;&lt;/td&gt;&lt;/tr&gt;&lt;tr&gt;&lt;td&gt;&lt;br&gt;&lt;/td&gt;&lt;td&gt;lang VARCHAR(2)&lt;/td&gt;&lt;/tr&gt;&lt;tr&gt;&lt;td&gt;&lt;br&gt;&lt;/td&gt;&lt;td&gt;task_amount SMALLINT&lt;/td&gt;&lt;/tr&gt;&lt;tr&gt;&lt;td&gt;&lt;br&gt;&lt;/td&gt;&lt;td&gt;processed_counter SMALLINT&lt;/td&gt;&lt;/tr&gt;&lt;tr&gt;&lt;td&gt;&lt;br&gt;&lt;/td&gt;&lt;td&gt;selected_counter SMALLINT&lt;/td&gt;&lt;/tr&gt;&lt;tr&gt;&lt;td&gt;&lt;br&gt;&lt;/td&gt;&lt;td&gt;corrected_counter SMALLINT&lt;/td&gt;&lt;/tr&gt;&lt;/tbody&gt;&lt;/table&gt;" style="verticalAlign=top;align=left;overflow=fill;html=1;whiteSpace=wrap;labelBorderColor=default;strokeColor=none;" parent="1" vertex="1">
          <mxGeometry x="2925.96" y="1780" width="194.04" height="200" as="geometry" />
        </mxCell>
        <mxCell id="K0bMWCn7lL2bXNIeZDvH-48" style="edgeStyle=orthogonalEdgeStyle;rounded=0;orthogonalLoop=1;jettySize=auto;html=1;entryX=0;entryY=0.5;entryDx=0;entryDy=0;startArrow=oval;startFill=1;startSize=10;endArrow=none;endFill=0;exitX=1;exitY=0.5;exitDx=0;exitDy=0;" parent="1" source="K0bMWCn7lL2bXNIeZDvH-44" target="K0bMWCn7lL2bXNIeZDvH-46" edge="1">
          <mxGeometry relative="1" as="geometry">
            <mxPoint x="3499.99" y="1684" as="sourcePoint" />
            <mxPoint x="3459.99" y="1684" as="targetPoint" />
          </mxGeometry>
        </mxCell>
        <mxCell id="K0bMWCn7lL2bXNIeZDvH-49" value="&lt;div style=&quot;box-sizing:border-box;width:100%;background:#e4e4e4;padding:2px;&quot;&gt;translation&lt;/div&gt;&lt;table style=&quot;width:100%;font-size:1em;&quot; cellpadding=&quot;2&quot; cellspacing=&quot;0&quot;&gt;&lt;tbody&gt;&lt;tr&gt;&lt;td&gt;PK&lt;/td&gt;&lt;td&gt;id BIGINT&lt;/td&gt;&lt;/tr&gt;&lt;tr&gt;&lt;td&gt;&lt;br&gt;&lt;/td&gt;&lt;td&gt;created_at TIMESTAMP&lt;br&gt;&lt;/td&gt;&lt;/tr&gt;&lt;tr&gt;&lt;td&gt;&lt;br&gt;&lt;/td&gt;&lt;td&gt;deleted_at TIMESTAMP NULL&lt;br&gt;&lt;/td&gt;&lt;/tr&gt;&lt;tr&gt;&lt;td&gt;FK&lt;/td&gt;&lt;td&gt;dictionary_id BIGINT&lt;/td&gt;&lt;/tr&gt;&lt;tr&gt;&lt;td&gt;FK&lt;/td&gt;&lt;td&gt;translation_id BIGINT&lt;/td&gt;&lt;/tr&gt;&lt;/tbody&gt;&lt;/table&gt;" style="verticalAlign=top;align=left;overflow=fill;html=1;whiteSpace=wrap;labelBorderColor=default;strokeColor=none;" parent="1" vertex="1">
          <mxGeometry x="3270" y="1624.32" width="200" height="125.68" as="geometry" />
        </mxCell>
        <mxCell id="K0bMWCn7lL2bXNIeZDvH-50" style="edgeStyle=orthogonalEdgeStyle;rounded=0;orthogonalLoop=1;jettySize=auto;html=1;entryX=0;entryY=0.25;entryDx=0;entryDy=0;startArrow=oval;startFill=1;startSize=10;endArrow=none;endFill=0;exitX=1;exitY=0.25;exitDx=0;exitDy=0;" parent="1" source="K0bMWCn7lL2bXNIeZDvH-49" target="K0bMWCn7lL2bXNIeZDvH-40" edge="1">
          <mxGeometry relative="1" as="geometry">
            <mxPoint x="3710" y="1680.5" as="sourcePoint" />
            <mxPoint x="3670" y="1680.5" as="targetPoint" />
          </mxGeometry>
        </mxCell>
        <mxCell id="K0bMWCn7lL2bXNIeZDvH-51" style="edgeStyle=orthogonalEdgeStyle;rounded=0;orthogonalLoop=1;jettySize=auto;html=1;entryX=0;entryY=0.75;entryDx=0;entryDy=0;startArrow=oval;startFill=1;startSize=10;endArrow=none;endFill=0;exitX=1;exitY=0.75;exitDx=0;exitDy=0;" parent="1" source="K0bMWCn7lL2bXNIeZDvH-49" target="K0bMWCn7lL2bXNIeZDvH-40" edge="1">
          <mxGeometry relative="1" as="geometry">
            <mxPoint x="3420" y="1629.5" as="sourcePoint" />
            <mxPoint x="3490" y="1646.5" as="targetPoint" />
          </mxGeometry>
        </mxCell>
        <mxCell id="K0bMWCn7lL2bXNIeZDvH-52" value="&lt;font style=&quot;font-size: 10px;&quot; face=&quot;Lucida Console&quot;&gt;POST /v1/exercise&lt;br&gt;&lt;span style=&quot;font-size: 10px;&quot;&gt;GET&amp;nbsp; /v1/exercise/{id}&lt;/span&gt;&lt;br&gt;&lt;span style=&quot;font-size: 10px;&quot;&gt;POST /v1/exercise/{exer_id}/task&lt;/span&gt;&lt;br&gt;&lt;span style=&quot;font-size: 10px;&quot;&gt;GET&amp;nbsp; /v1/exercise/{exer_id}/task/{task_id}&lt;/span&gt;&lt;br&gt;&lt;span style=&quot;font-size: 10px;&quot;&gt;POST /v1/exercise/{exer_id}/task/{task_id}/word-selected&lt;/span&gt;&lt;span style=&quot;font-size: 10px;&quot;&gt;&lt;br&gt;&lt;/span&gt;&lt;br&gt;&lt;/font&gt;" style="rounded=0;whiteSpace=wrap;html=1;align=left;verticalAlign=top;spacing=5;" parent="1" vertex="1">
          <mxGeometry x="2925.96" y="1017" width="354.04" height="93" as="geometry" />
        </mxCell>
        <mxCell id="K0bMWCn7lL2bXNIeZDvH-53" value="&lt;font style=&quot;font-size: 10px;&quot; face=&quot;Lucida Console&quot;&gt;GET /v1/analytycs/user/{id}&lt;br&gt;&lt;/font&gt;" style="rounded=0;whiteSpace=wrap;html=1;align=left;verticalAlign=top;spacing=5;" parent="1" vertex="1">
          <mxGeometry x="2925.96" y="1116" width="354.04" height="34" as="geometry" />
        </mxCell>
        <mxCell id="K0bMWCn7lL2bXNIeZDvH-54" value="&lt;span style=&quot;font-size: 10px; font-family: &amp;quot;Lucida Console&amp;quot;; background-color: initial;&quot;&gt;{&lt;/span&gt;&lt;br&gt;&lt;font face=&quot;Lucida Console&quot; style=&quot;font-size: 10px;&quot;&gt;&lt;div style=&quot;&quot;&gt;&lt;span style=&quot;font-size: 10px;&quot;&gt;&amp;nbsp; &quot;user_id&quot;: &quot;&quot;,&lt;/span&gt;&lt;/div&gt;&lt;div style=&quot;&quot;&gt;&lt;span style=&quot;font-size: 10px;&quot;&gt;&amp;nbsp; &quot;exercise_id&quot;: 0,&lt;/span&gt;&lt;/div&gt;&lt;div style=&quot;&quot;&gt;&lt;span style=&quot;font-size: 10px;&quot;&gt;&amp;nbsp; &quot;spent_time&quot;: 0,&lt;/span&gt;&lt;/div&gt;&lt;div style=&quot;&quot;&gt;&lt;span style=&quot;font-size: 10px;&quot;&gt;&amp;nbsp; &quot;words_count&quot;: 0,&lt;/span&gt;&lt;/div&gt;&lt;div style=&quot;&quot;&gt;&lt;span style=&quot;font-size: 10px;&quot;&gt;&amp;nbsp; &quot;words_corrected_count&quot;: 0&lt;/span&gt;&lt;/div&gt;&lt;div style=&quot;&quot;&gt;&lt;span style=&quot;font-size: 10px;&quot;&gt;}&lt;/span&gt;&lt;/div&gt;&lt;br&gt;&lt;/font&gt;" style="rounded=0;whiteSpace=wrap;html=1;align=left;verticalAlign=top;spacing=5;" parent="1" vertex="1">
          <mxGeometry x="2565.2799999999997" y="1595" width="190" height="110" as="geometry" />
        </mxCell>
        <mxCell id="K0bMWCn7lL2bXNIeZDvH-55" style="edgeStyle=orthogonalEdgeStyle;rounded=0;orthogonalLoop=1;jettySize=auto;html=1;entryX=0;entryY=0.5;entryDx=0;entryDy=0;exitX=0;exitY=0.5;exitDx=0;exitDy=0;" parent="1" source="K0bMWCn7lL2bXNIeZDvH-35" target="K0bMWCn7lL2bXNIeZDvH-57" edge="1">
          <mxGeometry relative="1" as="geometry">
            <mxPoint x="2910" y="1570" as="sourcePoint" />
            <mxPoint x="3150" y="1570" as="targetPoint" />
            <Array as="points">
              <mxPoint x="2330" y="1560" />
              <mxPoint x="2330" y="1133" />
            </Array>
          </mxGeometry>
        </mxCell>
        <mxCell id="K0bMWCn7lL2bXNIeZDvH-56" value="Получить данные&lt;br&gt;пользователя (REST)" style="edgeLabel;html=1;align=center;verticalAlign=middle;resizable=0;points=[];" parent="K0bMWCn7lL2bXNIeZDvH-55" vertex="1" connectable="0">
          <mxGeometry x="-0.5848" y="-4" relative="1" as="geometry">
            <mxPoint x="56" y="-246" as="offset" />
          </mxGeometry>
        </mxCell>
        <mxCell id="K0bMWCn7lL2bXNIeZDvH-57" value="Keycloak" style="rounded=1;whiteSpace=wrap;html=1;" parent="1" vertex="1">
          <mxGeometry x="2620" y="1103" width="120" height="60" as="geometry" />
        </mxCell>
        <mxCell id="vOYtiE0OMvcrNdlqcH3A-1" value="&lt;div style=&quot;box-sizing:border-box;width:100%;background:#e4e4e4;padding:2px;&quot;&gt;sentence&lt;/div&gt;&lt;table style=&quot;width:100%;font-size:1em;&quot; cellpadding=&quot;2&quot; cellspacing=&quot;0&quot;&gt;&lt;tbody&gt;&lt;tr&gt;&lt;td&gt;PK&lt;/td&gt;&lt;td&gt;id BIGINT&lt;/td&gt;&lt;/tr&gt;&lt;tr&gt;&lt;td&gt;&lt;br&gt;&lt;/td&gt;&lt;td&gt;created_at TIMESTAMP&lt;br&gt;&lt;/td&gt;&lt;/tr&gt;&lt;tr&gt;&lt;td&gt;&lt;br&gt;&lt;/td&gt;&lt;td&gt;deleted_at TIMESTAMP NULL&lt;br&gt;&lt;/td&gt;&lt;/tr&gt;&lt;tr&gt;&lt;td&gt;&lt;br&gt;&lt;/td&gt;&lt;td&gt;text_ru VARCHAR(255)&lt;/td&gt;&lt;/tr&gt;&lt;tr&gt;&lt;td&gt;&lt;br&gt;&lt;/td&gt;&lt;td&gt;text_en VARCHAR(255)&lt;/td&gt;&lt;/tr&gt;&lt;/tbody&gt;&lt;/table&gt;" style="verticalAlign=top;align=left;overflow=fill;html=1;whiteSpace=wrap;labelBorderColor=default;strokeColor=none;" parent="1" vertex="1">
          <mxGeometry x="4002" y="1622.84" width="208" height="127.16" as="geometry" />
        </mxCell>
        <mxCell id="vOYtiE0OMvcrNdlqcH3A-2" value="&lt;div style=&quot;box-sizing:border-box;width:100%;background:#e4e4e4;padding:2px;&quot;&gt;dictionary_sentence&lt;/div&gt;&lt;table style=&quot;width:100%;font-size:1em;&quot; cellpadding=&quot;2&quot; cellspacing=&quot;0&quot;&gt;&lt;tbody&gt;&lt;tr&gt;&lt;td&gt;PK&lt;/td&gt;&lt;td&gt;id BIGINT&lt;/td&gt;&lt;/tr&gt;&lt;tr&gt;&lt;td&gt;FK&lt;/td&gt;&lt;td&gt;dictionary_id BIGINT&lt;/td&gt;&lt;/tr&gt;&lt;tr&gt;&lt;td&gt;FK&lt;/td&gt;&lt;td&gt;sentence_id BIGINT&lt;/td&gt;&lt;/tr&gt;&lt;/tbody&gt;&lt;/table&gt;" style="verticalAlign=top;align=left;overflow=fill;html=1;whiteSpace=wrap;labelBorderColor=default;strokeColor=none;" parent="1" vertex="1">
          <mxGeometry x="3780" y="1641.4799999999998" width="160" height="91.36" as="geometry" />
        </mxCell>
        <mxCell id="vOYtiE0OMvcrNdlqcH3A-3" style="edgeStyle=orthogonalEdgeStyle;rounded=0;orthogonalLoop=1;jettySize=auto;html=1;entryX=0;entryY=0.5;entryDx=0;entryDy=0;startArrow=oval;startFill=1;startSize=10;endArrow=none;endFill=0;exitX=1;exitY=0.5;exitDx=0;exitDy=0;" parent="1" source="vOYtiE0OMvcrNdlqcH3A-2" target="vOYtiE0OMvcrNdlqcH3A-1" edge="1">
          <mxGeometry relative="1" as="geometry">
            <mxPoint x="3730" y="1826" as="sourcePoint" />
            <mxPoint x="3690" y="1680" as="targetPoint" />
          </mxGeometry>
        </mxCell>
        <mxCell id="K0bMWCn7lL2bXNIeZDvH-43" style="edgeStyle=orthogonalEdgeStyle;rounded=0;orthogonalLoop=1;jettySize=auto;html=1;entryX=1;entryY=0.5;entryDx=0;entryDy=0;startArrow=oval;startFill=1;startSize=10;endArrow=none;endFill=0;exitX=0;exitY=0.5;exitDx=0;exitDy=0;" parent="1" source="vOYtiE0OMvcrNdlqcH3A-2" target="K0bMWCn7lL2bXNIeZDvH-40" edge="1">
          <mxGeometry relative="1" as="geometry" />
        </mxCell>
        <mxCell id="PAYdBrqbt7uTRZZeqFU2-19" value="" style="edgeStyle=orthogonalEdgeStyle;rounded=0;orthogonalLoop=1;jettySize=auto;html=1;entryX=0.5;entryY=0;entryDx=0;entryDy=0;exitX=0.5;exitY=1;exitDx=0;exitDy=0;" edge="1" parent="1" source="PAYdBrqbt7uTRZZeqFU2-21" target="PAYdBrqbt7uTRZZeqFU2-5">
          <mxGeometry relative="1" as="geometry">
            <mxPoint x="3294.45" y="2477" as="sourcePoint" />
            <mxPoint x="3354.45" y="2507" as="targetPoint" />
          </mxGeometry>
        </mxCell>
        <mxCell id="PAYdBrqbt7uTRZZeqFU2-21" value="" style="group;connectable=1;" vertex="1" connectable="0" parent="1">
          <mxGeometry x="2635.27" y="2410" width="50.960000000000036" height="53" as="geometry" />
        </mxCell>
        <mxCell id="PAYdBrqbt7uTRZZeqFU2-2" value="&lt;font size=&quot;1&quot; face=&quot;Helvetica&quot; style=&quot;&quot;&gt;&lt;b style=&quot;font-size: 12px;&quot;&gt;client&lt;/b&gt;&lt;/font&gt;" style="text;html=1;strokeColor=none;fillColor=none;align=center;verticalAlign=middle;whiteSpace=wrap;rounded=0;fontFamily=Verdana;movable=0;resizable=0;rotatable=0;deletable=0;editable=0;locked=1;connectable=0;" vertex="1" parent="PAYdBrqbt7uTRZZeqFU2-21">
          <mxGeometry y="40" width="50.96" height="13" as="geometry" />
        </mxCell>
        <mxCell id="PAYdBrqbt7uTRZZeqFU2-16" value="" style="shape=image;verticalLabelPosition=bottom;labelBackgroundColor=default;verticalAlign=top;aspect=fixed;imageAspect=0;image=data:image/png,iVBORw0KGgoAAAANSUhEUgAAA9QAAAPUCAYAAABM1HGEAAAABGdBTUEAALGPC/xhBQAAAAFzUkdCAK7OHOkAAAAgY0hSTQAAeiYAAICEAAD6AAAAgOgAAHUwAADqYAAAOpgAABdwnLpRPAAAAAZiS0dEAP8A/wD/oL2nkwAAAAlwSFlzAAAASAAAAEgARslrPgAAgABJREFUeNrs3Xd0FdXCBfA9N70nEAi9BOklVCkJPSAlAQGD9F6V+kBBRQF9KkHKA5QSmhQBCUV6jwKhl9B7S0AgkJCQXu/5/njKpz6RknvvmTuzf2uxxAY7JDlz9pwzZxQhBIiIiMh0srKyRGpqKhISEgAA2dnZSElJefbvc3NzkZSU9OzvhRBITEz806+RmJiIP16jHRwc4Ozs/Kf/RlEUeHp6/umfGQwGeHh4wN7eHi4uLnB2doaDgwPc3d1hY2OjyP6zISIi0hJb2QGIiIjUIjc3Vzx+/BhxcXHPfiQmJiI1NRWpqalISkpCUlLSs79/+vQpkpOTn/19YmIiUlJSkJ2dLftD+VsGg0E8r2x7enq+1A8vLy+4ubmxmBMREQFQuEJNRERalZmZKeLj45GQkPDsx4MHD3D//v2//ftHjx4hNzdXdmyr4OXlhcKFC8PLywtFihR57s+LFSsGe3t7FnAiItIkFmoiIrJKRqNRPHjwANHR0bh37x7u3r2LmJgYxMTE4O7du7h79y4ePXokOyYByJ8/PwoVKoSSJUuiWLFiKFas2LOfFy9eHMWLF4ejoyNLNxERWR0WaiIiUqXU1FRx8+ZNREdHIyYm5llpjo6Oxt27d3H//n3Vbq2mV1ewYME/le0SJUqgTJkyKFOmDN544w04OzuzcBMRkeqwUBMRkTQ5OTkiJiYGt27dwq1bt3Dx4kVcunQJt27dwp07d2A0GmVHJJXw8vKCr6/vn35UqlQJVapUgaenJ8s2ERFJwUJNRERmJYQQd+/exfXr13Ht2jVcv34dV69exfXr13H79m3k5OTIjkhWztvbG2+88QYqVaqEihUronLlyqhYsSJKliwJRVFYtomIyGxYqImIyGQePXokzp07h7Nnz+LcuXM4d+4crl69ivT0dNnRSIdcXV3/VLArV66MSpUqoVSpUizaRERkEizURET0yrKzs8WVK1eeleYzZ87g3LlzePjwoexoRC/k4uKCChUqoHr16qhRowaqV68OPz8/uLq6smQTEdErYaEmIqJ/lJCQIC5evIhTp07h0qVLuHjxIk6fPs1VZ9KcwoULo1atWs9+1KlTB4UKFWLJJiKi52KhJiKiZ9LS0sSpU6dw/PhxHD16FMeOHcPdu3dlxyKSplixYqhRowZq1KiBOnXqoG7duihQoABLNhERAWChJiLStVu3bonIyEicOnUKp06dwsmTJ5GZmSk7FpGq/b6SHRAQAH9/f9SuXZvv0SYi0ikWaiIinXj69Kk4ceIEfi/QR44cQXx8vOxYRFbPzs4OZcuWfVawa9WqhUqVKvHgMyIiHWChJiLSqKtXr4r9+/dj//79OHLkCG7fvi07EpFuFCpUCA0bNkSjRo3QuHFjVK5cGQaDgQWbiEhjWKiJiDTi9+3bhw4dwq5duxAdHS07EhH9xs3NDXXr1kVgYCD8/f3x5ptvwt7engWbiMjKsVATEVmpPxbonTt3IiYmRnYkInpJLi4uqF+/Pvz9/REQEICAgAA+h01EZIVYqImIrAQLNJF2OTk5wd/fH4GBgQgMDETNmjX5DDYRkRVgoSYiUqknT56IvXv3YufOndi5cycePHggOxIRWUjhwoURGBiIFi1aIDAwEIULF2a5JiJSIRZqIiIVuXjxoti6dSv27t2L/fv3Izs7W3YkIlIBX1/fZ6vXb731Ftzd3VmwiYhUgIWaiEiix48fiz179mDHjh3YvXs3Hj16JDsSEamcg4MDAgICEBQUhKCgILzxxhss10REkrBQExFZkNFoFFFRUdi7dy/27t2LX375BTk5ObJjEZEV8/X1RVBQEIKDg9GoUSOeHk5EZEEs1EREZpacnCy2b9+On376CXv27EF8fLzsSESkUV5eXnjrrbcQFBSEVq1aIX/+/CzXRERmxEJNRGQGcXFxYvPmzdiwYQP27duHjIwM2ZGISGdsbGzQoEEDBAUFoUOHDihbtizLNRGRibFQExGZyN27d8WOHTuwZcsW7Nq1iweKEZGqVKpUCcHBwQgKCkJAQADLNRGRCbBQExHlwa1bt8SWLVsQHh6Ow4cPg2MqEVmD0qVLIzg4GCEhIfD39+c7r4mIXhMLNRHRK7p48aIIDw/H1q1bcerUKdlxiIjypESJEnj77bcRHByMJk2awNbWluWaiOglsVATEb2ECxcuiFWrVmH16tW4c+eO7DhERGZRpEgRdOrUCd26dUO9evVYrImIXoCFmojoOe7duyfWr1+P8PBwHDp0SHYcIiKL+n3luk+fPqhRowbLNRHR32ChJiL6g8TERLF582asWLECERERMBqNsiMREUlXqVIlhISEoFevXvD19WW5JiL6DQs1EeleRkaG2LNnD1asWIFNmzYhKytLdiQiIlUyGAyoX78+QkJC0LVrVxQsWJDlmoh0jYWaiHQpJydH7N27F6tWrcJPP/2E5ORk2ZGIiKyKvb09WrVqhb59+6Jt27aws7NjuSYi3WGhJiJduXjxoli0aBFWr16N2NhY2XGIiDShQIEC6N69O/r164eqVauyWBORbrBQE5HmZWRkiC1btiAsLAz79u3ju6KJiMyoUqVK6NWrF/r37w9vb2+WayLSNBZqItKsU6dOibCwMKxevZpbuomILMzBwQEtWrRAr1690KFDB77fmog0iYWaiDQlPj5erFy5EosWLcKFCxdkxyEiIgDFihVD7969MWDAAJQqVYrFmog0g4WaiKye0WgUhw8fxooVK7By5UqkpaXJjkRERH/DYDCgWbNmGDRoEFetiUgTWKiJyGr9+uuvYunSpViyZAlu374tOw4REb2CEiVKYNCgQejfvz8KFSrEYk1EVomFmoiszqlTp8SsWbOwZs0aZGdny45DRER5YGNjg9atW2PkyJFo3rw5FEVhuSYiq8FCTURWITMzU/z444+YMWMGzp49KzsOERGZQdmyZdG/f3+eEE5EVoOFmohULTo6WsydOxeLFy9GfHy87DhERGQBTk5O6NGjB0aMGIEqVaqwWBORarFQE5EqRUZGitmzZ2Pjxo3IycmRHYeIiCTx9/fHyJEj0bFjR9jY2LBcE5GqsFATkWpkZGSItWvXYvr06Th37pzsOEREpCJlypTBwIEDMXjwYHh6erJYE5EqsFATkXS3bt0SYWFhWLRoEbd1ExHRP3J3d0efPn0wevRovtOaiKRjoSYiaU6ePCmmTp2K9evXw2g0yo5DRERWxMbGBu3bt8eoUaPQsGFDFmsikoKFmogsLjIyUoSGhmLbtm3gGERERHlVs2ZNjBw5Et27d+dz1kRkUSzURGQRRqNRbNu2Df/+979x/Phx2XGIiEiDypQpg+HDh2Pw4MFwdHRksSYis2OhJiKz+v390V999RWuXr0qOw4REemAj48PhgwZglGjRvEAMyIyKxZqIjKLpKQksXTpUkydOhX379+XHYeIiHTo9wPMxo0bhyJFirBYE5HJsVATkUndu3dPzJw5E2FhYUhJSZEdh4iICE5OTujXrx/GjBmD0qVLs1gTkcmwUBORSVy/fl189dVXWLVqFbKysmTHISIi+h92dnbo0aMHPvnkE5QpU4bFmojyjIWaiPLkzp074uuvv8aSJUuQk5MjOw4REdELGQwGdOrUCV988QXKly/PYk1Er42FmoheS3R0tPjqq69YpImIyGqxWBNRXrFQE9EriY6OFjNmzMCCBQuQmZkpOw4REVGe/V6sP//8c1SoUIHFmoheGgs1Eb2UmJgYMX36dBZpIiLSrN+L9eTJk1GxYkUWayJ6IRZqIvpHv2/t/v7773nYGBER6YLBYEC3bt0wefJk+Pr6slgT0XOxUBPR37p7966YNm0awsLCkJGRITsOERGRxdnZ2aFv376YOHEi32NNRH+LhZqI/iQ2NlZ88cUXWLhwIVekiYiIADg7O2P48OEYN24cvLy8WKyJ6BkWaiICAKSmpopvv/0WX331FZKSkmTHISIiUh03Nze89957+Pjjj+Hu7s5iTUQs1ER6l5OTI5YsWYJJkybhwYMHsuMQERGpnre3N8aOHYuRI0fC0dGRxZpIx1ioiXRKCCE2btyIjz/+GFevXpUdh4iIyOqUKlUKn3/+Obp37w6DwcBiTaRDLNREOnT06FHx4Ycf4uDBg7KjEBERWb2aNWti2rRpaNq0KUs1kc6wUBPpyOXLl8VHH32ETZs2yY5CpFuenp5QlP/Oue3s7ODq6vo//42rqyvs7Oz+9M+ys7ORkpLyP/9tSkoKsrOzAQBCCCQmJsr+EIl0q127dpg6dSrKly/PYk2kEyzURDpw//59MWnSJCxduhQ5OTmy4xBZFTc3N3h5ecHT0/Mff7i6uj4rwp6enrCzs4ObmxscHR3h5OT0+7+zyCQ7OztbpKSkID09HRkZGUhKSkJOTg4SExOfFfOUlBQkJib+z4+EhIQ//X1ycrLsTwGRVbGzs8OgQYMwadIkeHt7s1gTaRwLNZGGJScni9DQUMycORNpaWmy4xCpgoODAwoUKAAfHx8UKlToH3/u7e0NGxsbXU+Ic3NzRVxcHB49eoTY2FjExsb+48/5uj2i//Lw8MDHH3+MESNG8OAyIg1joSbSICGEWLduHcaOHYuYmBjZcYgsysvLC76+vvD19UXhwoVRpEiRP/28VKlSPDzIjBISEsT9+/fx4MED3Lp1C3/8+a1bt3D37t1nW9SJ9KB48eL497//jZ49e0L5/XkPItIMFmoijTl16pQYMWIEDh8+LDsKkVkUKFAAb7zxBsqUKYM33ngDb7zxBnx9fVGiRAkUKlRI9yvKapebmysePnyI6Oho3Lp1Czdu3MDNmzef/fXx48eyIxKZRd26dTF79my8+eabHKOINISFmkgjHj9+LD755BMsXrwYRqNRdhyiPMmfPz8qVaqEcuXKPSvOv//V3d2dk1ENe/r0qfi9YP9esq9fv46LFy/iyZMnsuMR5YnBYECfPn3w9ddfo2DBghzLiDSAhZrIyuXk5IglS5bgk08+QVxcnOw4RK/k9+3ZlSpVQuXKlZ/91dfXlxNN+h8JCQni4sWLuHTpEv741wcPHsiORvRKPD09MX78eIwePRr29vYc74isGAs1kRWLiIgQI0aMwMWLF2VHIfpHTk5OqFatGqpXrw4/Pz9UrFgRVapU4Qm4ZBKPHz8WFy5cwJUrV3DmzBmcOXMG58+fR3p6uuxoRP+ocuXKmD17Npo1a8axkMhKsVATWaF79+6Jjz/+GCtWrJAdheh/uLu7o2rVqqhVqxZq1aqFypUro2rVqlyFIYvKzc0VV65cebaKferUKRw7dozPaJMqBQUFYc6cOShVqhTHSSIrw0JNZEXS09NFaGgopk6dypUXUgUPDw+8+eabqFu3LmrUqIEaNWqgdOnSnBCSat26dUtERUUhKioKx44dw/Hjx5GUlCQ7FhGcnZ3x0UcfYezYsXzNFpEVYaEmshLr1q0TY8eORXR0tOwopFM2NjaoUqUK6tati3r16qFu3bqoUKECX0FFVs1oNIrLly/j2LFjOHr0KI4dO4aLFy8iNzdXdjTSqTJlymD27Nlo06YNx1YiK8BCTaRy0dHR4v3338e2bdtkRyGdKViwIBo0aIB69eqhXr16qFWrFlxdXTnBI81LSUkRJ06ceFawDx06xEMfyeJCQkLwn//8B0WKFOG4S6RiLNREKmU0GsWiRYswduxYJCcny45DOlCoUCE0bNgQ/v7+CAgIQM2aNaEoCidyRPjvVvG9e/ciMjISBw4c4G4hsggPDw9MnjwZw4YNg42NDcdjIhVioSZSobNnz4pBgwbh+PHjsqOQhhUuXBgBAQEIDAyEv78/KleuzMka0Uu6f/++OHToEH4v2ZcuXZIdiTSsRo0aWLBgAerUqcNxmkhlWKiJVCQ1NVVMnDgRs2bNQk5Ojuw4pDGFCxdGixYtEBgYiKZNm6JYsWKcmBGZyN27d0VERAT27t2LvXv34uHDh7IjkcbY2tpi5MiRmDx5MlxcXDh+E6kECzWRSmzfvl28//77uHPnjuwopBHOzs5o0KABAgMDERgYyC3cRBb0+xbxvXv3YteuXTxJnEymSJEimDVrFt555x2O50QqwEJNJFlsbKwYNWoU1qxZIzsKWTkbGxvUqlULgYGBaNGiBRo0aMB3PxOpQGZmpjh06BD27NmDPXv2ICoqCkajUXYssnIdO3bEnDlzeGgZkWQs1ESSCCHEihUr8K9//Qvx8fGy45CVcnFxQdOmTREcHIx27dqhUKFCnFgRqVx8fLyIiIjAli1bsGXLFiQmJsqORFbKw8MDU6dOxcCBA7kDiUgSFmoiCW7cuCGGDBmCffv2yY5CVsjX1xeBgYEICgrCW2+9xVVoIiuWm5srjhw5gq1bt2LLli083IxeS6NGjbB48WK88cYbvB4QWRgLNZEF5eTkiNDQUHzxxRfIzMyUHYeshJ2dHRo2bIigoCAEBQWhbNmynDARadTVq1fFli1bsG3bNkRGRvKASnppbm5uCA0NxZAhQ7haTWRBLNREFnL58mXRu3dvnDhxQnYUsgJOTk5466230KlTJwQFBcHT05OTIyKdSUhIEJs3b8aGDRuwe/duZGRkyI5EVqBx48ZYvHgxypQpw+sGkQWwUBOZmRBCLFy4EKNHj0ZaWprsOKRiTk5OaN68OUJCQtChQwe4ublxMkREAIC0tDSxb98+hIeH46effkJycrLsSKRiTk5OmDhxIsaOHQsbGxteS4jMiIWayIxu374t+vbti/3798uOQirl6emJFi1aICgoCJ06deK7RYnohTIyMsSePXsQHh6OzZs34+nTp7IjkUrVq1cPS5YsQcWKFXltITITFmoiMxBCiLlz52LcuHFITU2VHYdUxt3dHR06dECXLl3QvHlz2NnZcaJDRK8lKytL7NmzB2vWrMFPP/2ElJQU2ZFIZRwdHfHvf/8bo0ePhsFg4PWGyMRYqIlMLCYmRvTr148neNOfODg4oEWLFggJCeFKNBGZxe8r1ytWrMCmTZuQlZUlOxKpSIMGDbB8+XI+W01kYizURCYUHh4uBg8ejISEBNlRSAUMBgPq16+PkJAQdO/eHd7e3pzEEJFFJCYmis2bNyM8PBw7d+7kaeEE4L87pL755hsMGjSI1yMiE2GhJjKB+/fvi4EDB2L79u2yo5AK1KpVC927d8e7776LIkWKcNJCRFLdu3dPrFmzBj/88APOnDkjOw6pQIcOHbBgwQIUKFCA1yiiPGKhJsqj8PBwMXToUMTHx8uOQhJ5eXkhJCQEQ4YMQY0aNThBISJVunjxolixYgWWLl2KR48eyY5DEhUsWBBhYWFo3749r1lEecBCTfSaEhISxODBgxEeHi47CkliZ2eH1q1bo2/fvmjbti0PFyMiq5GVlSW2bNmCpUuXYufOncjNzZUdiSQZMGAAZsyYwVc1Er0mFmqi13Do0CHRvXt3REdHy45CElSuXBl9+/ZFjx494OPjwwkIEVm1Bw8ePFu1vnLliuw4JIGvry+WL18Of39/XtOIXhELNdEryM3NFV999RU+//xzHvCiM66urujevTv69euHN998kxMOItKkI0eOiMWLF2PNmjV87aPO2NjYYMKECfj0009hY2PD6xzRS2KhJnpJ9+7dEz169MD+/ftlRyELqlChAvr06YNBgwbBy8uLEwwi0oWkpCSxZs0afPfddzh37pzsOGRBdevWxerVq1G6dGle84heAgs10UvYtGmT6N+/Pw8e0wl7e3u0b98egwYNQvPmzaEoCicVRKRbp06dEmFhYVixYgXS09NlxyEL8PDwwIIFC/Duu+/y+kf0AizURP8gIyNDjBs3DnPmzAG/V7SvTJkyGDhwIPr168dXiRAR/cWjR4/E0qVLERYWhlu3bsmOQxbQs2dPzJ8/H87OzrwmEj0HCzXRc1y8eFF07doV58+flx2FzMhgMKB169YYPnw4WrRoAYPBwEkDEdE/MBqNYufOnZgzZw527drFG84aV6VKFaxZswaVK1fm9ZHob7BQE/2N5cuXi/fee48HsmiYq6srunXrhpEjR6JSpUqcJBARvYYbN26IOXPmYPHixbxmapijoyOmTJmCkSNH8npJ9Bcs1ER/kJCQIAYOHIj169fLjkJmUrp0aQwbNgz9+/eHh4cHJwZERCaQkJAgFi5ciO+++w4xMTGy45CZdOrUCQsXLuQhnUR/wEJN9JtDhw6Jbt26cSKgUY0bN8aIESPQvn17vg6EiMhMcnJyxMaNG/Gf//wHhw8flh2HzKB06dIIDw9HrVq1eC0lAgs1EQBg1qxZ4oMPPkB2drbsKGRCdnZ26Nq1K0aNGoUaNWrwwk9EZEEnTpwQM2fORHh4OHJycmTHIRNydHTEf/7zHwwePJjXVtI9FmrStZSUFDFgwAD8+OOPsqOQCbm4uKB///4YM2YMSpQowYs9EZFEd+7cETNnzsSiRYuQlpYmOw6ZUPfu3bFgwQK4uLjwWku6xUJNunXt2jXRqVMnXLhwQXYUMhFvb2+8//77GD58OPLnz8+LOxGRisTFxYlvv/0W3377LeLj42XHIROpUKEC1q1bx1PASbdYqEmXNm3aJHr37o2nT5/KjkImULJkSYwePRoDBw7kuzKJiFQuJSVFLF68GNOnT8fdu3dlxyETcHV1xcKFC9GlSxdeg0l3WKhJV3JycsSECRMwdepUvjdTA6pWrYqxY8eia9eusLOz40WciMiKZGdni9WrV2Pq1Km4ePGi7DhkAoMGDcKcOXNgb2/PazLpBgs16caDBw9Ely5dcODAAdlRKI9q1aqFzz77DMHBwVAUhRdtIiIrZjQaxcaNG/H555/j3LlzsuNQHtWtWxdr167lGSakGyzUpAuRkZGic+fOePDggewolAd+fn745JNP8M4777BIExFpjBBCbN26FZ9//jlOnjwpOw7lQf78+bFmzRoEBgbyWk2aZ5AdgMjcwsLCRLNmzVimrZifnx/Wrl2LqKgohISEKCzTRETaoyiKEhwcrJw4cULZs2cP6tSpIzsSvab4+Hi0atUKoaGhXLkjzeMKNWlWSkqK6N+/P9auXSs7Cr2mevXq4eOPP0ZQUBBXpImIdGjv3r3ik08+wfHjx2VHodfUrVs3LFy4kIeGkmaxUJMmXbt2TbRv3x5XrlyRHYVeQ/369TFp0iS0bNmSF18iIsLWrVvFpEmTcOrUKdlR6DXUqVMHGzZsQLFixXhdJ81hoSbN2bt3r+jcuTMSEhJkR6FXVKlSJUyaNInPSBMR0d/au3evGDNmDA8vs0Le3t5Yu3YtmjZtyus7aQqfoSZNCQsLE23atGGZtjIlSpTAggULcO7cOT4jTUREzxUYGKhERUVh7dq18PX1lR2HXkFcXBxatmzJ56pJc7hCTZqQk5MjxowZg9mzZ8uOQq+gQIECGDNmDEaNGgUHBweWaCIiemlZWVni+++/x8SJE/Hw4UPZcegV9OjRA2FhYXBycuK1n6weCzVZvSdPnoiQkBBERETIjkIvycvLCx9++CFGjBjBQ0qIiChPUlJSxIwZMzB9+nQkJSXJjkMvqUGDBtiwYQN8fHw4DyCrxkJNVu3y5cuiXbt2uHHjhuwo9BIcHR0xcuRIjBs3Dl5eXryAEhGRycTHx4uvvvoK3377LbKysmTHoZdQqlQpbNmyBVWqVOGcgKwWCzVZrd27d4t3330XiYmJsqPQCyiKgnfeeQehoaEoXbo0L5pERGQ2MTExYsKECVi5ciU4z1U/V1dXrFq1CsHBwZwfkFXioWRklcLCwkTbtm1Zpq1A3bp1cfDgQaxdu1ZhmSYiInMrUaKEsnz5cuXo0aMICAiQHYdeICUlBR06dOBhZWS1uEJNViUnJ0eMGjUK3333newo9AJly5bFl19+yVdgERGRVFu2bBGjRo3CrVu3ZEehFxg4cCC+++472NnZcd5AVoOFmqxGfHy8CAkJwc8//yw7Cv0DLy8vjBs3jid3ExGRamRlZYl58+Zh0qRJ3N2mci1atMDatWvh6enJOQRZBRZqsgqXLl0SwcHBvLusYnZ2dhg2bBg+/fRTHjhGRESqFBcXJyZOnIgFCxYgNzdXdhx6jkqVKmHLli3w9fXlfIJUj4WaVO/gwYOiffv2SEhIkB2FnqN58+aYPXs2KlWqxAsfERGp3tmzZ8Xw4cNx8OBB2VHoOQoUKIANGzYgICCAcwtSNR5KRqq2ceNG8dZbb7FMq1TRokWxbNky7N27V2GZJiIia+Hn56ccOHBA2bx5M0qUKCE7Dv2Nx48fIzAwEKtXr+bqH6kaCzWp1uzZs8U777yD9PR02VHoL+zt7TFixAhcuXIFvXr1YpEmIiKrFBwcrFy+fBkTJ06Eg4OD7Dj0F5mZmejevTsmTZrEUk2qxS3fpDpCCDF58mRMnjxZdhT6G0FBQZg1axafayIiIk25ceOGGDVqFLZt2yY7Cv2NESNGYObMmTAYDJx/kKqwUJOqZGZmit69e+PHH3+UHYX+oly5cpg9ezbeeustXsiIiEizNm3aJEaPHo3bt2/LjkJ/0blzZyxfvpxvESFVYaEm1UhMTBRvv/029u/fLzsK/YGdnR3+9a9/YdKkSXB0dOQFjIiINC89PV2Ehobi66+/RlZWluw49Af169fH5s2b4e3tzTkJqQILNanC/fv3RZs2bXD27FnZUegPGjVqhPnz56NixYq8aBERke5cu3ZNDB06FBEREbKj0B9UqlQJO3bsQIkSJTg/Iel4KBlJd+HCBVGvXj2WaRXJly8fFixYgF9++YVlmoiIdKtcuXLK3r17sWzZMnh7e8uOQ7+5dOkS6tWrh6ioKK4MknQs1CRVRESECAgIwN27d2VHIQCKoqBfv364du0aBg0apCiKwjJNRES6piiK0qtXL+XChQvo1q2b7Dj0mwcPHqBJkybYt28fSzVJxS3fJM26detEz549kZGRITsKAShbtizmzZuH5s2bs0QTERE9x/79+8WQIUNw5coV2VEI/32V5w8//IB33nmH8xeSgivUJMWsWbNE586dWaZVwN7eHpMmTcKFCxdYpomIiF6gcePGyunTpzF+/HjY2trKjqN7WVlZ6NKlC5YsWcJVQpKCK9RkcaGhoWL8+PGyYxAAPz8/LFmyBDVr1mSRJiIiekVnz54V/fr1w+nTp2VH0T1FURAaGooPPviAcxqyKK5Qk0VNnDiRZVoFHB0dMXHiRJw4cYJlmoiI6DX5+fkpR48exZQpU2Bvby87jq4JIfDhhx9i/PjxXC0ki+IKNVmEEEKMHj0as2bNkh1F9+rVq4clS5bw9G4iIiITunDhgujXrx9OnDghO4ruDRkyBN999x0MBgPnOmR2XKEms8vNzRX9+/dnmZbMyckJU6ZMQWRkJMs0ERGRiVWpUkU5fPgwpkyZAkdHR9lxdG3+/Pno3r07srOzuXJIZscVajKrzMxM0bVrV2zcuFF2FF1r1KgRFi9ejDfeeINFmoiIyMwuX74s+vXrh6NHj8qOomtt2rRBeHg4nJ2dOf8hs+EKNZlNWlqaaNeuHcu0RI6Ojpg+fTp+/vlnlmkiIiILqVixohIZGYmvvvqKz1ZLtH37drz11lt4+vQpVxDJbLhCTWaRkpIi2rdvj4iICNlRdKtq1apYsWIF/Pz8WKSJiIgkuXDhgujZsyfOnDkjO4pu1axZE7t370b+/Pk5JyKT4wo1mVxCQoIIDAxkmZbExsYG48aNw8mTJ1mmiYiIJKtSpYpy5MgRjBs3DgYDp94ynD59GoGBgYiLi+NKIpkcV6jJpB4+fChatmyJ8+fPy46iS6VLl8b333+PRo0asUgTERGpzOHDh0WvXr1w8+ZN2VF0qWLFiti3bx8KFy7MeRKZDG+TkclER0eLhg0bskxL0rNnT5w7d45lmoiISKUaNGignD59GoMGDZIdRZcuX76Mpk2b4tdff+WKIpkMV6jJJG7duiWaNm2KmJgY2VF0p1ChQli8eDHatGnDIk1ERGQl1q9fL4YMGYK4uDjZUXSnXLly2LdvH4oVK8a5E+UZCzXlWUxMjGjSpAlu374tO4ruBAYGYvny5dy6REREZIViY2NF7969sWvXLtlRdKdkyZKIiIiAr68v51CUJ9zyTXnCMi2HnZ0dJk6ciF27drFMExERWSkfHx9lx44d+M9//gM7OzvZcXQlOjoaTZs2xY0bN7i6SHnCFWp6bdHR0aJJkya4c+eO7Ci6UrZsWaxevRq1atVikSYiItKIQ4cOie7duyM6Olp2FF0pVqwY9u3bh3LlynFeRa+FK9T0Wu7evSuaN2/OMm1hISEhOHHiBMs0ERGRxvj7+yvnzp1D165dZUfRlXv37qFRo0a4cuUKVxnptbBQ0yu7d++eaNq0KV/5YEFubm5Yvnw51q5dq3h4eLBMExERaZC7u7uyatUqZdmyZXBxcZEdRzdiY2PRokUL3Lp1i6WaXhm3fNMruXfvnmjSpAnLtAXVrl0bq1evxhtvvMEiTUREpBMXL14UXbp0wYULF2RH0Y1SpUph//79KFGiBOdc9NK4Qk0v7eHDh6Jly5Ys0xY0aNAgREZGskwTERHpTOXKlZUTJ05g4MCBsqPoxp07d9CoUSNER0dzxZFeGleo6aXExsaKpk2b4vLly7Kj6IKrqyvCwsLQtWtXFmkiIiKdW758uRg6dCjS0tJkR9GFsmXL4pdffkGRIkU4D6MXYqGmF4qNjRXNmjXDpUuXZEfRhQoVKiA8PBxVqlThIE5EREQAgDNnzoiQkBDcuHFDdhRdKF++PH7++We+npReiFu+6R89evSIZdqCunfvjpMnT7JMExER0Z9Ur15dOXXqFEJCQmRH0YWrV6+iWbNmiI2N5eoj/SMWanquuLg40aRJE5ZpC3B0dMT8+fOxcuVKxcXFhWWaiIiI/oe7u7vy448/Ytq0abC1tZUdR/OuXLmCVq1a4cmTJyzV9Fzc8k1/KykpSTRv3hwnT56UHUXzSpcujfDwcL5bmoiIiF5aZGSk6NKlC3799VfZUTSvdu3a2LdvH9zd3TlXo//BFWr6HxkZGeLtt99mmbaAVq1a4dSpUyzTRERE9EoCAgKUU6dOoWHDhrKjaN7JkyfRvn17pKencyWS/gcLNf1Jbm6u6NGjB37++WfZUTRvxIgR2Lp1K7y8vFimiYiI6JX5+PgoERERGDdunOwomvfLL7+gc+fOyM7OZqmmP+GWb3pGCCEGDBiAJUuWyI6iaY6OjliwYAF69erFIk1EREQmsXLlSjFo0CCkp6fLjqJp3bt3x/Lly2EwGDiPIwAs1PQHY8aMETNmzJAdQ9OKFy+ODRs2oHbt2hyEiYiIyKROnz4tOnTogJiYGNlRNO29997Dd999x7kcAeCWb/rN5MmTWabNrFGjRjh58iTLNBEREZlFzZo1lZMnT6Jx48ayo2ja3Llz8dlnn3FVkgCwUBOAuXPnikmTJsmOoWmDBg3C3r17UbBgQZZpIiIiMpsCBQoou3fvxsCBA2VH0bQvvvgC06ZNY6kmbvnWu5UrV4revXvDaDTKjqJJDg4OCAsL4/PSREREZHHz5s0TI0eORHZ2tuwomqQoChYvXoy+fftynqdjLNQ6tnXrVtGxY0cOsmZSsGBBbNy4EQ0aNOAgS0RERFLs3btXdO7cGQkJCbKjaJKNjQ3Wrl2Ljh07cr6nUyzUOnX48GHRsmVLpKamyo6iSZUrV8aWLVtQunRpDq5EREQk1Y0bN0RQUBCuXr0qO4om2dvbY/v27WjevDnnfTrEQq1D586dE40bN0ZiYqLsKJrUsmVLrF27Fh4eHhxUiYiISBWePHkiOnXqhF9++UV2FE1yd3fHgQMH4Ofnx/mfzvBQMp25c+eOeOutt1imzWTQoEHYunUryzQRERGpSr58+ZRdu3ahT58+sqNoUlJSEtq2bYuYmBiuVuoMC7WOPH36VAQHB+Phw4eyo2iOjY0NZs2ahQULFih2dnYs00RERKQ69vb2ytKlS5X//Oc/MBhYA0zt119/RZs2bZCQkMBSrSPc8q0TWVlZok2bNti3b5/sKJrj5uaGVatWISgoiEWaiIiIrMLGjRtFz549eZ6OGTRu3Bi7du2Cg4MD54Y6wFtTOiCEEH379mWZNoMSJUrgyJEjLNNERERkVTp06KD88ssv8PHxkR1Fc/bv348+ffrAaDRy5VIHWKh14JNPPsGqVatkx9CcKlWqIDIyEpUrV2aZJiIiIqtTu3Zt5ciRI6hQoYLsKJqzZs0afPjhh7JjkAVwy7fGLV68WAwYMEB2DM1p1qwZNmzYwMPHiIiIyOo9efJEtG/fHpGRkbKjaM6MGTMwevRozhc1jIVaw3bu3CmCg4ORk5MjO4qm9OjRA4sXL4a9vT0HRyIiItKE9PR00bVrV2zatEl2FE0xGAxYs2YNQkJCOG/UKBZqjbpw4YIICAjA06dPZUfRlBEjRmDmzJkwGAwcFImIiEhTcnNzxciRI/Hdd9/JjqIpjo6OiIiIQP369Tl/1CAWag26f/++qFevHu7evSs7imb8/lqs999/nwMhERERadqsWbPEv/71LxiNRtlRNMPb2xtHjx5FmTJlOJfUGBZqjUlOThYNGzbE2bNnZUfRDAcHByxfvhydO3fmAEhERES6sHLlStG/f39kZWXJjqIZlSpVwuHDh3kGj8awUGtIdna2CAoKwu7du2VH0QwPDw9s3boVAQEBHPiIiIhIVyIiIsTbb7+N5ORk2VE0o1WrVtiyZQtsbW05t9QIvjZLQwYPHswybUI+Pj745ZdfWKaJiIhIl5o1a6bs3LkTXl5esqNoxs6dOzFmzBjZMciEWKg1IjQ0VCxdulR2DM0oWbIkDhw4gOrVq7NMExERkW41aNBAOXjwIIoWLSo7imbMnj0b3333HbcJawS3fGvA7t27RZs2bZCbmys7iiZUqFABu3fvRvHixVmmiYiIiADcvn1btGzZEjdu3JAdRRNsbGzw008/ISgoiPNNK8dCbeWuXr0q6tWrh8TERNlRNKFWrVrYsWMHChQowMGNiIiI6A8ePnwo3nrrLZw7d052FE1wc3PDoUOHULVqVc47rRi3fFuxp0+fivbt27NMm0jTpk3x888/s0wTERER/Y1ChQopERERePPNN2VH0YTk5GS0b98ejx8/5gqnFWOhtlJGo1H06NEDV69elR1FE4KDg7Ft2za4ubmxTBMRERE9R/78+ZWIiAi0bNlSdhRNuH37Njp27IisrCyWaivFQm2lPvroI2zdulV2DE3o3LkzNmzYACcnJ5ZpIiIiohdwcXFRtmzZgvbt28uOogmRkZEYO3as7Bj0mvgMtRVat26d6Ny5M/i5y7uuXbti+fLlfBcgERER0SvKysoSXbt2xYYNG2RH0YSFCxdiwIABnJNaGRZqKxMVFSUCAgKQlpYmO4rV69+/P8LCwmAwGDhwEREREb2G3Nxc0adPH6xcuVJ2FKtnZ2eHiIgIBAQEcG5qRViorUhsbKyoU6cO7t69KzuK1Rs4cCDmz5/PMk1ERESUR7m5uaJ///5YtmyZ7ChWr1ChQjh58iSKFi3KOaqV4DPUViI7O1t07tyZZdoEhgwZggULFrBMExEREZmAjY2NsmTJEvTr1092FKv38OFDhISEIDMzk6ueVoKF2kq8//77OHDggOwYVm/MmDGYN2+eoigKyzQRERGRiRgMBmXRokUYNmyY7ChW78iRIxg8eLDsGPSSWKitwJw5c8TChQtlx7B6H374IaZNm8YiTURERGQGiqIos2fPxsiRI2VHsXrLli3DvHnzuEptBfgMtcodOHBANG/eHDk5ObKjWLUJEybgiy++YJkmIiIiMjMhhBg1ahRmz54tO4pVs7Ozw759+9CwYUPOYVWMhVrFYmNjRc2aNXH//n3ZUazav/71L0yfPp0DEREREZGFCCHEsGHDMHfuXNlRrJqPjw9Onz6NIkWKcC6rUtzyrVJGo1H07NmTZTqPRo0axTJNREREZGGKoijffvsthgwZIjuKVYuNjUW3bt2Qk5PDVVCVYqFWqU8//RR79uyRHcOqDR8+HDNmzJAdg4iIiEiXFEVR5s6di4EDB8qOYtX279+PCRMmyI5Bz8Et3yq0fft2ERwcDKPRKDuK1erfvz8WLlwInuZNREREJFdubq7o06cPVq5cKTuK1VIUBevWrUPHjh05t1UZFmqVuXv3rqhZsybi4uJkR7Faffv2xaJFi/ieaSIiIiKVyM3NFT179sTq1atlR7Fanp6eOHnyJMqUKcM5ropwy7eKZGdniy5durBM50Hv3r1ZpomIiIhUxsbGRlmxYgXeffdd2VGsVmJiIjp27Ij09HSuiKoIC7WKjBkzBocPH5Ydw2p17doVixcvZpkmIiIiUiEbGxtl+fLlaNu2rewoVuvcuXMYMWKE7Bj0B9zyrRJr164VvGP3+oKCgrBhwwbY2dmxTBORKsTHx4v4+HjExcUhPj7+2Y+4uDg8fvwYSUlJAICkpCTk5uYiNzf32T/LyMhAenr6n349Ozs7uLq6AgBcXFxgb28PAPDy8nr2z/Lnzw9vb28UKFAA+fPnf/bD29sb+fPnh42NDcdIIpIuPT1dtG7dGvv375cdxWotWbIEffv25ZiuAizUKnD9+nVRu3btZxMpejUNGjTA7t274eLiwkGFiCwiOTlZ3L59G3fu3MHt27fx+8/v3LmD+/fvIz4+XpUHS3p5eaFQoUIoVaoUSpcu/ae/lipVCt7e3hxHicgikpKSRLNmzXDq1CnZUaySo6MjDh8+jBo1anDcloyFWrK0tDRRr149nD9/XnYUq1SrVi1ERETA3d2dgwkRmZTRaBQ3b97E2bNnce7cOVy+fPlZgY6Pj5cdzyzc3Nyelezy5cujWrVqqFq1KipWrAh7e3uOs0RkUo8fPxYNGzbE1atXZUexSuXKlcOpU6fg6urK8VkiFmrJ+vbtK77//nvZMaxS2bJlcfDgQfj4+HAQIaI8efr0qTh//jwuXbqEixcv4tSpUzhz5gxSU1NlR1MFW1tblCtXDpUrV0alSpVQq1YtVK5cGaVLl+brCYkoT3799VcREBCAO3fuyI5ilXr37o3vv/+e47BELNQSLVq0SPBF96+nZMmSOHjwIIoXL84BhIheSW5urjh79iwOHTqEQ4cO4ciRI4iJiZEdyyp5e3ujXr168Pf3h7+/P+rUqQNHR0eOy0T0Sq5evSoaNWqER48eyY5ilVauXInu3btz7JWEhVqSy5cvi9q1ayMtLU12FKtToEABHDhwABUqVODAQUQvlJqaKqKionDo0CFERkbi0KFDSEhIkB1Lk2xtbeHn5wd/f38EBASgcePGKFiwIMdqInqhc+fOiSZNmnB8fg2urq44deoUypUrx/FWAhZqCTIzM0W9evVw5swZ2VGsjru7O37++WfUrFmTAwYR/a3MzEwRGRmJHTt2ICIiAufOnUNubq7sWLpVvnx5NG7cGK1atUJgYCDc3Nw4fhPR3zpy5Iho0aIFH7d5DbVq1cLhw4d53oUELNQSjB07VkyfPl12DKvj6OiIXbt2oVGjRhwoiOhPHj58KHbv3o2tW7di9+7dePr0qexI9DdsbGxQvXp1BAUFITg4GDVr1uQz2ET0J1u2bBEdOnTgjdDXMGbMGEybNo1jqoWxUFvYnj17RKtWrVT5OhU1MxgMWLNmDUJCQjhIEBFycnLE0aNHsXXrVuzduxenT58Gr2fWx8fHBy1btkRwcDBatGgBT09PjvFExHOGXpOiKNi8eTOCgoI4lloQC7UFJSQkCD8/P9y9e1d2FKszc+ZMjBo1ioMDkY7l5uaKI0eOIDw8HKtWrUJcXJzsSGRCNjY2aNq0KXr27Im3336br0Mk0rnPPvtMfPHFF7JjWJ0CBQrg7NmzKFy4MMdQC2GhtqDOnTuL8PBw2TGszgcffICpU6dyUCDSIaPRKA4fPozw8HCsWbOGJ8DqhKOjIwIDAxESEoKOHTvyHatEOiSEEAMGDMCSJUtkR7E6TZo0wd69e2FjY8Ox0wJYqC0kLCxMDB48WHYMq9O1a1esXLkSBoOBAwKRTvyxRK9duxYPHz6UHYkkcnJyQvPmzRESEoJOnTrBxcWF1wMincjOzhbt2rXDzp07ZUexOlOmTMG4ceM4XloAC7UF3LhxQ9SoUQMpKSmyo1iVJk2aYOfOnXBwcOBgQKQDMTExYvHixViyZAnu3bsnOw6pkIeHB7p27YpBgwahRo0avDYQ6UBaWppo3rw5jh49KjuKVbGzs8OhQ4dQp04djpVmxkJtZtnZ2SIgIADHjx+XHcWqVKlSBQcPHuQBNUQaZzQaRUREBMLCwrBx40bk5OTIjkRWolatWujZsyd69eoFLy8vXiuINOzx48fC398f169flx3FqlSsWBGnTp2Ck5MTx0gzYqE2s3HjxompU6fKjmFVihcvjiNHjqBo0aL85ifSqF9//VWsXLkSc+fORUxMjOw4ZMUcHR0RHByMQYMGITAwkNcNIo26du2a8Pf354GUr2j06NGYMWMGx0YzYqE2owMHDohmzZrxPXqvwNXVFZGRkfDz8+M3PpHGGI1GsWnTJsyfPx979+7l6wPJ5KpXr45BgwahV69efNaaSIMiIyNFYGAgMjMzZUexGgaDAXv27EGzZs04JpoJC7WZJCYmCj8/P668vAKDwYCNGzeiXbt2/IYn0pDMzEzx448/4uuvv8aVK1dkxyEd8PDwQO/evfHhhx9ytxORxvz444+ia9euYId5eUWLFsX58+f5eIyZGGQH0KoBAwawTL+i6dOns0wTacjjx4/FpEmTRLFixdC7d2+WabKYp0+fYvbs2fD19UWvXr3EpUuXOPMm0oh3331X+fjjj2XHsCq//vorRowYITuGZnGF2gxWrFghevXqJTuGVenfvz8WLVrEMk2kATdv3hSzZ8/GokWLkJaWJjsOERRFQfPmzTFixAgEBwfzWkNk5YQQonv37li9erXsKFZlzZo1ePfddzkGmhgLtYk9ePBAVKlSBU+ePJEdxWo0btwYu3fvhr29Pb/BiazYsWPHxNdff40tW7bw+WhSrTfffBPjx4/H22+/DUVReN0hslLp6emiWbNmfJ3WK/D09MS5c+dQvHhxjn0mxC3fJvb++++zTL+CChUqYOPGjSzTRFbswoULonPnzqJ+/frYtGkTyzSp2vHjx9GxY0dUq1YN4eHhQnBlgcgqOTk5KRs3bkSJEiVkR7EaiYmJ6N+/PzjumRYLtQn98MMPYuPGjbJjWA1vb29s27aNByQQWanLly+LXr16CT8/P4SHh/OAGLIqFy5cQOfOnVG/fn1s2bKFX7xEVqhQoULK5s2b4ebmJjuK1dizZw/mz58vO4amcMu3iTx8+FBUqVIF8fHxsqNYBXt7e+zbtw8BAQEs00RWJjo6Wnz11VdYvHgxXwtImuHv748vvvgCTZs25XWJyMps3bpVtG/fnjukXpKbmxvOnz+PkiVLcrwzAa5Qm8j777/PMv0K5syZwzJNZGViYmLEoEGDRNmyZREWFsYyTZpy6NAhNGvWDK1btxYnTpzgagORFQkKClK++OIL2TGsRnJyMvr168et3ybCFWoT+OGHH0SPHj1kx7Aa7733Hr777juWaSIrkZaWJqZOnYrQ0FBkZGTIjkNkEUFBQfj222+5gkNkJYQQomvXrvjxxx9lR7EaixYtQv/+/TnG5RELdR49fvxYVK5cGY8fP5YdxSo0aNAAP//8Mw8hI7ICQgixbt06jB07FjExMbLjEFmcs7Mzhg8fjgkTJsDV1ZXXLSKVS09PFwEBATh9+rTsKFbB3d0dFy5c4KnfecQt33k0dOhQlumXVLx4cZ7oTWQlTp06JRo2bIjOnTuzTJNupaWlITQ0FBUrVsTy5ct5IjiRyjk5OSkbNmyAt7e37ChWISkpCUOGDJEdw+qxUOfBqlWrxPr162XHsAqOjo5Yv349ChYsyDJNpGIPHjwQgwcPFm+++SYOHTokOw6RKty7dw+9e/dG/fr1cezYMZZqIhUrWbKksmbNGtja2sqOYhW2b9+O5cuXc1zLA275fk2PHz8WVapUwaNHj2RHsQpLlixB3759WaaJVCorK0vMmDEDX375JVJSUmTHIVItGxsb9O/fH1999RXy58/P6xqRSs2YMUOMGTNGdgyr4OnpiQsXLqBo0aIc014DV6hf09ChQ1mmX9LYsWNZpolULCoqStSvXx8fffQRyzTRC+Tm5iIsLAzlypVDWFgYVyWIVOpf//qX0q9fP9kxrEJiYiKGDh0qO4bV4gr1a/jxxx9Fly5dZMewCoGBgdi5cydsbGxYqIlUJj09XUyePBnTpk3jK7CIXlObNm0wb948lChRgtc5IpVJT08XDRs2xKlTp2RHsQqrV69Gly5dOJa9IhbqVxQfHy8qVqzIg8heQrFixXD69GkUKFCA35hEKnPgwAExcOBAXLt2TXYUIqvn7u6Ozz//HMOHD4fBYOA1j0hFbt++LWrVqoWEhATZUVSvQIECuHz5Mh9neUXc8v2Kxo0bxzL9Euzs7LBmzRqWaSKVSUxMFIMHDxZNmjRhmSYykaSkJIwaNQqNGjXC5cuXuVJBpCKlS5dWVqxYAYOBtedFHj9+jA8//FB2DKvDr6xXEBkZKZYsWSI7hlX45ptv4O/vzzJNpCLr1q0TFStWRFhYGLg7icj0Dh06hJo1a+Lrr78WOTk5/CYjUom2bdsq48aNkx3DKixduhQREREcv14Bt3y/pJycHFG7dm2cPXtWdhTVa9++PTZu3AhFUVioiVQgKSlJfPDBBwgLC5MdhUg36tSpg1WrVuGNN97gtZBIBYxGo2jVqhX27NkjO4rqlStXDmfPnoWjoyPHr5fAFeqXNG3aNJbpl1C2bFksX76cZZpIJY4fPy5q1arFMk1kYSdOnEDNmjV5EjiRShgMBmXlypUoWrSo7Ciqd+3aNUydOlV2DKvBFeqXEBMTIypVqoTU1FTZUVTNyckJhw8fRvXq1VmmiSTLzc0V06ZNw6effors7GzZcYh07Z133sGCBQuQL18+Xh+JJDty5Iho3Lgxr40v4ODggDNnzqBChQoct16AK9QvYdiwYSzTL2HevHks00QqEBMTI5o1a4bx48dzwkCkAuvWrUONGjVw4MABrmIQSVa/fn3lyy+/lB1D9TIzMzFkyBAIrr6+EAv1C2zYsEFs2bJFdgzVGzRoEHr37s0yTSTZunXrRPXq1XHgwAHZUYjoD2JiYtC0aVOMHDlSZGdnc4JKJNHYsWPx9ttvy46hevv378eKFStkx1A9bvn+B8nJyaJSpUq4d++e7CiqVrlyZZw4cQJOTk4s1ESSpKeni6FDh2LZsmWyoxDRC9SvXx9r165FsWLFeN0kkiQxMVHUqFEDd+7ckR1F1fLnz4/Lly/zVbj/gCvU/+Czzz5jmX4BR0dHrFq1imWaSKK7d++Kxo0bs0wTWYkjR46gRo0a2LdvH1c1iCTx9PRU1qxZAzs7O9lRVC0+Ph7jx4+XHUPVWKifIyoqSnz77beyY6jerFmzUK1aNZZpIkl++eUXUbt2bZw4cUJ2FCJ6BXFxcWjVqhVCQ0NZqokkqVu3rvLpp5/KjqF6S5cuRWRkJMeq5+CW779hNBpFQEAAjhw5IjuKqnXq1Anr1q1jmSaSQAghpk6dik8++QS5ubmy4xBRHnTp0gWLFi2Ci4sLr6lEFmY0GkXLli2xb98+2VFUrUqVKoiKioKtrS3Hqb/gCvXfmD9/Psv0CxQvXpzvtSWSJCUlRXTu3Bnjx49nmSbSgDVr1qBBgwa4efMmVzmILMxgMCjLli2Dt7e37CiqduHCBc79n4Mr1H/x8OFDUbFiRSQmJsqOolq2trY4cOAA6tevzztURBZ27do10bFjR1y8eFF2FCIyMXd3dyxbtgxvv/02r69EFrZlyxbRvn17sBs9X758+XD16lV4e3tzjPoDrlD/xUcffcQy/QKff/45yzSRBDt37hR16tRhmSbSqKSkJHTq1AnffPMNZ/REFhYcHKwMHz5cdgxVe/LkCT755BPZMVSHK9R/EBUVJWrXrg2j0Sg7imo1btwY+/btg42NDQs1kQUtWbJEDBkyBNnZ2bKjEJEF9O/fH/Pnz+fzikQWlJmZKerXr4+oqCjZUVTLYDDgyJEjePPNNzk2/YaF+jdCCNGwYUMcOnRIdhTVypcvH86fP48iRYrwG4jIQoQQYvLkyZg8ebLsKERkYS1btkR4eDjc3d153SWykCtXroiaNWsiPT1ddhTVqlevHg4fPgxFUTg2gVu+n1mzZg3L9AvMnTuXZZrIgrKyskTPnj1Zpol0avfu3WjYsCHu3bvH1Q8iC6lQoYISGhoqO4aqHT16FMuWLZMdQzW4Qg0gPT1dVKxYEdHR0bKjqFaPHj2wYsUKlmkiC0lISBAdOnTA/v37ZUchE7O1tUX+/PmRP39+eHt7I3/+/LC1tYWDgwOcnZ0BAK6urrCzs/vT/5eVlYXU1FQAQEpKCrKzs5GdnY24uDjEx8c/+8GT37WnZMmS2L59OypVqsTrMJEFCCFE27ZtsWPHDtlRVKtgwYK4evUqPD09dT8usVADmDx5spg0aZLsGKpVtGhRnD9/Hl5eXrr/hiGyhNu3b4u2bdvi8uXLsqPQK3J1dUXp0qVRqlSpP/21UKFCyJ8/PwoUKGD2yceTJ0/E7yX7wYMHuHPnDm7fvv3sr7dv30ZaWprsPyp6RZ6entiwYQOaNm3KazGRBdy/f19UrVoVT548kR1FtUaPHo0ZM2bofkzSfaG+d++eKF++PCcXz6EoCvbs2YPmzZvr/puFyBKioqJE69atERsbKzsK/YN8+fLBz88PVatWRbVq1VC1alX4+vpazatEYmNjxa1bt3D+/HmcO3fu2V/5lgt1s7e3x7Jly9ClSxer+DojsnZr1qwRXbt2lR1DtWxtbXH27Fnd757RfaHu1q2bWL16tewYqjVq1CjMnDlT198kRJZy9OhR0bp1a5YalSlQoAAaNGiAevXqoVq1aqhWrRqKFSumyXExOjpanD9/HmfPnsXRo0dx+PBhrs6ojI2NDcLCwtCvXz9Nfg0SqU337t3FqlWrZMdQrTZt2mDbtm26Ho90XaiPHDki/P39+QL356hYsSJOnToFJycnXX+TEFnCwYMHRVBQEJKSkmRH0T1fX1/4+/ujVq1aCAgIQM2aNXV9kumtW7dEZGQkDh06hMjISFy+fJnXTckURcGMGTMwatQo3X5dElnK06dPRbVq1RATEyM7imrt2rULLVu21O14pNtCLYQQ9erVw/Hjx2VHUSVbW1scPnwYderU0e03B5Gl7N69W3To0IGPnkhSsGBBvPXWW2jTpg2aN2+OAgUKcNz7Bw8fPhR79+7F9u3bsXv3bsTHx8uOpFuhoaH48MMP+fVKZGb79u0TLVq04M3E56hWrRpOnz4NGxsbXY5Hui3Uy5YtE3369JEdQ7W++OILTJgwQZffFESWtG3bNvHOO+8gIyNDdhTdMBgMqFGjBgIDAxEUFIQGDRrAYDBwvHsNRqNRREVFYe/evdiyZQuOHDkCo9EoO5aujBs3DlOmTOHXL5GZjRw5UsyePVt2DNVatGgR+vfvr8uxSJeFOiUlRZQvXx7379+XHUWVqlevjuPHj8POzk6X3xRElrJ27VrRo0cPZGdny46ieba2tmjWrBneffddtG/fHvnz5+f4ZgaPHj0SGzduxI8//ogDBw7wFV4WMnbsWEydOlXXjyYQmVtaWprw8/PDjRs3ZEdRJR8fH1y7dg3u7u66G4d0Wag//vhj8fXXX8uOoUq2trY4duwYatasqbtvBiJLWrVqlejduzdycnJkR9Esg8GA+vXrIyQkBO+++y4KFSrEcc2C4uPjxbZt27BixQpERERw5drMBg8ejLlz53K3BZEZ7d+/XzRt2pRbv5/j008/xeeff667MUh3hfrOnTuiYsWK3F75HBMnTsSkSZN0941AZEkrVqwQffr0YcEwEz8/P/Tr1w8hISEoXLgwxzMVuHv3rggPD8fixYtx6dIl2XE06/3338e3337Lr3kiM3rvvffEvHnzZMdQJWdnZ1y9elWzb8J4Ht0V6p49e4qVK1fKjqFK1apVw4kTJ2Bvb6+rbwIiS/rpp59ESEgIV6ZNzNHREcHBwRg0aBACAwM5hqnYqVOnRFhYGH744QekpqbKjqM5fN0lkXmlpqaKatWq4datW7KjqFLv3r3x/fff62oM0lWhPn/+vKhevTpXhf6Gra0tjhw5gtq1a+vqG4DIkvbu3SuCgoKQmZkpO4pmVKpUCb169cLAgQORL18+jl9W5OnTp+LHH3/EvHnzcObMGdlxNOXLL7/Exx9/zO8HIjOJiIgQgYGB3Pr9NwwGA44dO6arTmGQHcCSPv74Y5bp5/jwww919YVPZGkHDhwQ7du3Z5k2ARsbG3Tu3BnHjh3DxYsXlXHjxiks09bHw8NDGTRokBIVFaVERkaiQ4cOMBh0NS0xm08++QRz5szhTJ/ITJo1a6b069dPdgxVMhqN+OCDD2THsCjdrFBHRkaKhg0byo6hShUqVEBUVBQcHR05ISUygzNnzoimTZsiMTFRdhSr5urqim7dumHMmDEoV64cxysNunXrlpg1axYWLVrE97LnkaIoWLBgAQYOHMjvFSIzSEpKElWqVMHdu3dlR1GlHTt2oFWrVroYf3RTqJs2bSp++eUX2TFUx2Aw4ODBg2jQoIEuvuCJLO3ChQuiSZMmiI+Plx3FahUsWBBDhw7F8OHD+bornXj8+LFYsmQJZs2ahQcPHsiOY7VsbGywcuVKdOnShd83RGawfft20bZtW9kxVKlatWqIiorSxZsHdLG3atu2bSzTzzFq1CiWaSIzuX79umjRogXL9GsqXLgw5syZg5iYGEyaNElhmdaPAgUKKOPGjVNu3LiBadOmoUCBArIjWaXc3Fz07t0b27dv18fqCZGFtWnTRunWrZvsGKp07tw5hIeHy45hEZpfoTYajaJWrVo88ORvlChRAhcvXoSrqysnqUQmFh8fL+rXr4/r16/LjmJ18ufPjw8++AAjRoyAk5MTxydCamqq+PbbbxEaGoqEhATZcayOk5MTIiIiUK9ePX4/EZlYbGysqFixIsemv1G2bFlcvHgRdnZ2mh57NL9C/cMPP7BMP8ecOXNYponMICMjQ7Rr145l+hW5ublh3LhxuHnzJsaNG6ewTNPvXFxclHHjxinR0dGYMmUKPDw8ZEeyKunp6ejQoQOio6O1vYpCJIGPj48yZcoU2TFU6fr16/j+++9lxzA7Ta9QZ2dni4oVK+LmzZuyo6hOp06dsG7dOk5WiUxMCCG6dOmCtWvXyo5iNRwcHDB69GiMGzcOnp6eHJfohR4/fiz+/e9/Y968ecjOzpYdx2pUqVIFkZGR8PDw4PcZkQkJIUSjRo0QGRkpO4rqFClSBNevX4ezs7Nmxx1Nr1DPnz+fZfpvuLm54T//+Y/sGESa9PHHH7NMv4KgoCBcvHgRX3/9tcIyTS+rQIECyqxZs5QLFy6ABwK9vAsXLuDtt99GVlaWdldTiCRQFEWZP38+7O3tZUdRnfv372Pu3LmyY5iVZgt1SkqK+Oqrr2THUKUvv/wSxYoV48SVyMSWLFkiuO3r5VSoUAHbt2/Hli1blDJlynA8otdSrlw5ZevWrcqePXtQqVIl2XGswi+//IKhQ4fKjkGkOZUrV1bGjh0rO4YqffXVV0hISNDsjTzNFuoZM2bg4cOHsmOoTu3atfHee+/JjkGkOXv27BFDhgyRHUP18ufPj2+//Rbnz59H69atWaTJJAIDA5WoqChMnToV7u7usuOo3pIlSzBlyhTNTm6JZJkwYQLKlCkjO4bqJCQkYObMmbJjmI0mn6GOi4sTZcqUQVJSkuwoqmJjY4Pjx4+jZs2anMQSmdClS5eEv78/EhMTZUdRtZCQEHz33XcoUKAAxyAym4cPH4phw4Zh/fr1sqOomqIoWLlyJbp168bvRyIT+vnnn0Xz5s2hxY6VFy4uLrh58yZ8fHw0N+ZocoV6ypQpLNN/Y+TIkSzTRCb25MkTERwczDL9D4oXL46tW7di7dq1Css0mVuhQoWUdevWKWvXroWPj4/sOKolhMCAAQMQFRXFWT+RCTVt2lTp2rWr7Biqk5qaitDQUNkxzEJzK9SxsbHC19cXaWlpsqOoSqFChXD16lW4u7tzMktkIkajUQQHB2P79u2yo6iSoigYOHAgvvnmG449JEViYqIYN24cFi5cyNWi5yhZsiROnjwJb29vfo8SmUhsbKwoX748nj59KjuKqjg6OuLmzZsoUqSIpsYbza1QT5s2jWX6b8yYMYMTWiIT+/zzz1mmn6NcuXLYv38/FixYoHDsIVk8PT2VBQsWKDt37kSpUqVkx1Gl6Oho9O7dG0ajkXcciEzEx8dH+fTTT2XHUJ2MjAxMnz5ddgyT09QKdXx8vChVqhRSUlJkR1GVgIAAHDhwAIqicFJLZCJ79uwRrVu3Rm5uruwoqtOzZ0/MmzcPLi4uHHNINZKTk8XYsWMRFhYmO4oqTZw4EZMmTeL3LJGJ5OTkiJo1a+L8+fOyo6iKFlepNbVCPX36dJbpv7CxscG3337LMk1kQtHR0aJr164s03/h6emJ1atXY/ny5QrLNKmNm5ubsmDBAmXt2rXw8vKSHUd1vvjiC2zfvl07qyxEktna2ipaPtn6dWVkZGDGjBmyY5iUZlaoExMTRalSpfiswl+MGDECs2bN4sSWyEQyMjJEQEAATp06JTuKqjRr1gzLly9H0aJFOd6Q6kVHR4uePXvi4MGDsqOoipeXF06cOAG+G57IdN555x3Btw78mbOzM27fvo2CBQtqYqzRzAr1zJkzWab/omDBgpg8ebLsGESaMmTIEJbpP7C3t8fUqVOxZ88elmmyGiVLllQiIiLw2WefwcbGRnYc1UhISEBISAjS09O1sdpCpAIzZ86Ei4uL7BiqkpaWhmnTpsmOYTKaKNRPnz4Vc+bMkR1Ddb766it4enpygktkImFhYWLZsmWyY6hG0aJF8csvv+CDDz5QDAYDxxqyKra2tsrkyZOV3bt3o0CBArLjqEZUVBSGDRsmOwaRZhQvXlz58MMPZcdQnblz5+LRo0eauHmniUI9e/ZsJCQkyI6hKrVq1ULfvn1lxyDSjCtXrojRo0fLjqEaAQEBOHHiBOrXr88iTVatWbNmyunTp1G3bl3ZUVRjyZIl+PHHHzUx0SVSg3HjxqFs2bKyY6hKamqqZk78tvpnqJOTk0Xp0qURHx8vO4pqGAwGHD16FHXq1OFEl8gEsrOzRUBAAI4fPy47iioMGjQIc+bMgb29PccY0ozMzEwxbNgwLFq0SHYUVfD09MTZs2dRokQJfp8TmcDmzZtF+/btZcdQFRcXF9y+fRsFChSw6nHG6leov/vuO5bpv+jRowfLNJEJffrppyzT+O+rLhYvXowFCxYoLNOkNQ4ODsrChQuVBQsWwN7eXnYc6RITE9GzZ0++n5rIRNq1a6c0b95cdgxVSU1N1cSz1Fa9Qp2amip8fX3x6NEj2VFUw8nJCVeuXOEdZSIT2b9/v2jWrBmMRqPsKFIVLVoUW7ZsQY0aNTi2kOYdPnxYdOjQgfMLAN988w3Gjh3L73siEzh79qyoVasWX7v5B25uboiOjoaXl5fVjjNWvUI9f/58Xuz+YuzYsSzTRCby9OlT0bt3b92X6SpVquDw4cMs06QbDRo0UI4ePYoKFSrIjiLdhAkTcObMGetdfSFSET8/P6V3796yY6hKcnIy5s6dKztGnljtCnVGRoYoU6YM7t+/LzuKahQsWBDXr1+Hu7s7J71EJtC9e3exatUq2TGkat68OdavXw8PDw+OK6Q7T548ER06dMCBAwdkR5GqUqVKOHnyJJycnDgOEOVRbGysKFu2LJKTk2VHUY2CBQvizp07VjvGWO0K9YIFC1im/+LLL79kmSYykR9++EH3ZbpPnz7YsWMHyzTpVr58+ZTdu3ejW7dusqNIdenSJYwbN052DCJN8PHxUcaMGSM7hqo8evQIS5culR3jtVnlCnV2drbw9fXFvXv3ZEdRjapVqyIqKgo2Njac+BLl0a+//iqqVKmCxMRE2VGkUBQFkyZNwmeffcbxhAiA0WgU48ePxzfffCM7ijSKomD37t0IDAzkuECUR6mpqaJ8+fL49ddfZUdRDV9fX1y9ehW2trZWN8ZY5Qr1mjVrWKb/4ptvvmGZJjKRYcOG6bZMGwwGzJs3j2Wa6A8MBoMydepUZdq0aVAUfX5rCCEwePBgpKWlWd9KDJHKuLi4KP/+979lx1CVW7duYe3atbJjvBarXKGuWbOmiIqKkh1DNVq1aoUdO3bo8wpPZGLr168X77zzjuwYUtjY2GDRokXo06cPxxOi5wgLCxNDhw7V7WGFH374IUJDQzlGEOWR0WgUb775Jk6dOiU7impUq1YNZ86cgWJldy6trlBHREQIvsPt/9nY2ODMmTOoUqWKVX3hEanR06dPReXKlXW5BcvW1hZLly5Fjx49OJYQvcCqVatE7969kZOTIzuKxdna2uLYsWOoWbMmxwqiPPr5559Fs2bNZMdQle3bt6N169ZWNb5Y3ZZvLbz825R69+7NMk1kIh988IEuy7S9vT3Wrl3LMk30krp166b88MMPsLOzkx3F4nJyctCvXz/k5ORY14oMkQo1bdpUadWqlewYqhIaGio7wiuzqhXqq1evikqVKul2m9Vf2dvb48qVKyhdujQnwUR5dODAAdGkSRNY05hoCs7Ozti4cSNatmzJcYToFW3atEm8++67yMzMlB3F4qZNm4YxY8Zw3CDKo3PnzokaNWqw3/zBoUOH0KBBA6sZX6xqhXratGn8YvuD9957j2WayAQyMzPFkCFDdFem7e3tsW7dOpZpotfUvn17Ze3atbpcqf7ss89w69YtfQ2aRGZQrVo1JSQkRHYMVbG2NypYzQr1o0ePRMmSJZGRkSE7iiq4urrixo0b8PHx4USYKI8mTJggvvzyS9kxLMrGxgarV69GSEgIxxCiPFq/fr149913kZubKzuKRTVr1gx79+61ugOEiNTm+vXronLlysjOzpYdRRUMBgOuXbuGMmXKWMXYYjUr1HPmzGGZ/oMxY8awTBOZwOXLl8XUqVNlx7Aog8GAZcuWsUwTmUinTp2UuXPn6u6VWhEREfjxxx9lxyCyemXLllX69OkjO4ZqGI1GzJkzR3aMl2YVK9RpaWmiZMmSiIuLkx1FFby9vXHz5k24u7vr68pNZAatW7cWO3fulB3DYhRFwdy5czFkyBCOH0QmNnv2bDFy5EjZMSyqWLFiuHLlClxcXDimEOXB/fv3RdmyZZGWliY7iiq4ubnh7t278PDwUP3YYhUr1MuWLWOZ/oOPPvqIZZrIBLZv366rMg0AU6ZMYZkmMpMRI0YoEydOlB3Dou7du4fp06fLjkFk9YoUKaIMHTpUdgzVSE5OxpIlS2THeCmqX6EWQohKlSrhypUrsqOoQtGiRXH9+nU4OTlxQkyUB9nZ2cLPzw+XL1+WHcViPvzwQ4SGhnLsIDKz9957T8ybN092DItxcXHB1atXUbRoUY4vRHkQHx8vfH19kZSUJDuKKpQqVQo3btyAjY2NqscW1a9Qb968mWX6DyZPnswyTWQCc+fO1VWZ7tSpE77++mvZMYh0Yc6cOWjXrp3sGBaTmpqKjz/+WHYMIquXP39+ZcyYMbJjqMadO3ewadMm2TFeSPUr1I0bNxYHDhyQHUMVypQpgytXrsDW1paFmigPEhISRNmyZREfHy87ikXUrl0b+/fvh7OzM8cOIgtJTk4WjRo1wpkzZ2RHsQhFUXD06FG8+eabHGeI8iA5OVmULl1aN3OUF2nUqBH279+v6nFF1SvUJ06cYJn+g08++YRlmsgEJk6cqJsLValSpbB161aWaSILc3NzU7Zt24bixYvLjmIRQgiMHDkSQu0rNUQq5+bmpowePVp2DNU4cOAATp8+repxRdWFevbs2bIjqIavry969uwpOwaR1bt8+bKYP3++7BgW4e7ujs2bN/MVe0SSFClSRNm+fTs8PDxkR7GIo0ePYs2aNbJjEFm94cOHI1++fLJjqMasWbNkR/hHqi3U8fHxYt26dbJjqAZXp4lMY+zYscjOzpYdw+xsbW2xYcMGVK1aleMGkURVqlRRVq5cCYNBtVMukxo/fjwyMjJUvZpEpHbu7u7KqFGjZMdQjdWrV+PXX39V7bii2tF9yZIlyMjIkB1DFUqXLs3VaSITOHz4sNi+fbvsGBbx9ddfo3nz5izTRCoQFBSkfPrpp7JjWERMTAzCwsJkxyCyeiNGjICXl5fsGKqQnZ2t6nFFlYeSCSFE+fLlcf36ddlRVGHRokXo378/J8ZEedS8eXMREREhO4bZtW/fHhs3boSiKBw3iFTCaDSK4OBg6OGmXqFChXDz5k2e3UCUR59//rnQ27vtn6dw4cKIjo6GnZ2d6sYVVa5Q79q1i2X6NyVKlODqNJEJREZG6qJMlytXDsuXL2eZJlIZg8GgrFy5Er6+vrKjmN3Dhw+hp/dwE5nLyJEjuUr9mwcPHmDz5s2yY/wtVRZqDsL/b8KECbC3t+fEmCiPJkyYIDuC2bm6umLDhg1wd3fnmEGkQl5eXsqGDRvg7OwsO4rZTZkyBcnJyerbBklkRTw8PJSRI0fKjqEaaj1UVnWF+u7du2Lbtm2yY6hCiRIl0Lt3b9kxiKzenj17xP79+2XHMCtFUbB48WJUrlyZZZpIxfz8/JQFCxbIjmF2cXFx+O6772THILJ6o0aN4ir1b/bt24dr166p7kad6gr1woULkZubKzuGKnz00UdcnSYygUmTJsmOYHbvvfceOnfuzPGCyAr06NFD6dWrl+wYZjdt2jQkJSWpbvJLZE08PDyU4cOHy46hCkIIqPGGpKoOJcvOzhalSpXC/fv3ZUeRzsfHB7dv34aTkxMnyER5sGPHDtGmTRvZMcyqYsWKOHnyJA8AIrIiKSkpokaNGrhx44bsKGb1xRdfYMKECRybiPIgPj5elCpVCikpKbKjSOfl5YV79+6pas6jqhXqjRs3skz/ZtSoUSzTRCYwefJk2RHMys7ODsuWLVPVhYWIXszV1VX5/vvvYWNjIzuKWU2fPh0JCQnqWb0hskL58+dX+vXrJzuGKiQkJGDdunWyY/yJqgo1DyP7L3d3dwwZMkR2DCKrt2vXLnHs2DHZMczqiy++QJ06dVimiayQv7+/8vHHH8uOYVaJiYmYO3eu7BhEVm/s2LGws7OTHUMV1HY4mWoK9ZUrVzR/aNDLGjp0KDw9PTlBJsqjadOmyY5gVg0bNsTYsWNlxyCiPPjss89Qr1492THMavbs2cjIyOAqNVEeFC9eXOnSpYvsGKpw5MgRnD59WjVjimoK9bx586Cm57llcXBwwIgRI2THILJ6586dE/v27ZMdw2w8PT2xcuVK2NjY8OYbkRWztbVVli9fDldXV9lRzObRo0dYvXq17BhEVu+jjz6CwaCa+ibVwoULZUd4RhWfkbS0NLF8+XLZMVShd+/eKFKkCCfIRHk0ffp0Td+k++abb1CiRAmOFUQaULZsWeXLL7+UHcOsZsyYAaHlQZnIAipWrKho/aDVl/XDDz+o5l33qijUq1evRmJiouwY0tnY2HD7JpEJ3L9/X6xZs0Z2DLNp3Lgx+vfvLzsGEZnQsGHD0KBBA9kxzObChQvYtWuX7BhEVm/cuHGyI6hCcnIywsPDZccAoJJCvXjxYtkRVKFTp04oW7YsV5yI8ujbb79FVlaW7Bhm4eDggHnz5kFRFI4VRBpiMBiU+fPna/rQoenTp8uOQGT1AgICFH9/f9kxVGHp0qWyIwBQQaG+du2aOHr0qOwYqvDhhx/KjkBk9dLS0kRYWJjsGGbz2WefoWLFiizTRBpUtWpV5YMPPpAdw2z27t2LM2fOqGKLJpE14yr1fx06dAjXrl2TPqZIL9TLly/X9HOOL6tJkyaoVasWJ8lEebRkyRLEx8fLjmEWVatWhZYn20T07KaZ7BhmM3PmTNkRiKxeUFCQpseJlyWEwPfffy87htxCbTQaxYoVK2T/GajCyJEjZUcgsnpGo1HMmjVLdgyzsLGxwcKFC2FnZ8cbb0Qa5uDgoMydOxdafapjzZo1uH//PldSiPJAURRl2LBhsmOowrJly5Cbmyt1TJFaqH/++WfExMTIjKAKpUqVQnBwsOwYRFZv165duHHjhuwYZtG/f3/UrVtXmzNsIvqTJk2aKN26dZMdwyyysrKwaNEi2TGIrF6fPn2QP39+2TGku3//vvQDD6UW6mXLlkn94NVi5MiRfJcskQlodZLm5uaGyZMny45BRBYUGhoKFxcX2THMYtGiRdJXlIisnbOzs8I3fvyX7MPJpBXqlJQUsXHjRqkfvBq4ubmhb9++smMQWb3Y2FixZcsW2THMYsKECShUqBBvuhHpSNGiRRWtvkrz7t272Ldvn+wYRFZvxIgRmn4zwMvavHkzHj9+LO0mnbRCHR4ejpSUFFm/vWr0798fHh4enCgT5dGyZcuQnZ0tO4bJ+fr68owFIp0aN24cSpQoITuGWWh1RxGRJRUtWlTp2LGj7BjSZWVlYfXq1dJ+f2mFmtu9AYPBAB4oQGQasrf7mMs333wDBwcH3nQj0iEnJyflyy+/lB3DLDZt2oRHjx5x2zdRHvGm+3/JvEknpVDfvn1bHDhwQNoHrRZBQUEoU6YMJ8pEebR//35x5coV2TFMrkmTJujYsSPHCCId6969O/z9/WXHMLmsrCzwTS9EeVe/fn2lbt26smNId/78eURFRUm5SSelUPPd0/81evRo2RGINEGLWwcVRcHUqVNlxyAiyRRFUb7++mvZMcxCi2M3kQxcpf6vH374Qcrvq1i62AohRNmyZXHz5k0pH7BaVK1aFefOnePKE1EeJSYmiqJFiyItLU12FJNq164dNm3axDGCiAAALVu2FHv27JEdw+QiIyPh7+/PsY4oD7Kzs0WpUqVw//592VGkKlKkCO7evQuDwWDRMcXiK9QHDx7UfZkGgPfee092BCJNWLlypebKtKIomDRpkuwYRKQin3/+uewIZrFw4ULZEYisnp2dnTJgwADZMaS7f/8+9u/fb/Hf1+KFmoeRAa6urujWrZvsGESasHLlStkRTK5jx46oUaMGV2yI6Jl69eoprVu3lh3D5DZs2ID09HQ+B0iUR4MHD4atra3sGNKtWrXK4r+nRQt1enq6WL9+vcU/SLXp2bMn3N3dOVkmyqO7d++K48ePy45hUoqi4NNPP5Udg4hU6IsvvoCiaGv6kJycjJ07d8qOQWT1ihQporRt21Z2DOnWrVuHzMxMi96ks2ih3rx5M54+fWrJ31KVBg8eLDsCkSasWbNGcwccdu7cGX5+ftqaMRORSdSqVUsJDg6WHcPkwsPDZUcg0oShQ4fKjiBdYmIitm/fbtHf06KFeu3atRb94NTI39+fk2UiE1m3bp3sCCZlMBjw2WefyY5BRCqmxfMVtmzZwm3fRCbQsmVLlC1bVnYM6VavXm3R389ihTo1NVXs2rXLoh+cGvHOEZFp3L59W5w4cUJ2DJNq27YtKlWqxBtuRPRcNWrUUAIDA2XHMKmUlBRs27ZNdgwiq6coCg8nw39v0j19+tRiN+ksVqg3b96M1NRUS/12quTt7Y1OnTrJjkGkCWvXrtXcdu8xY8bIjkBEVkCLYwW3fROZRr9+/eDo6Cg7hlQZGRn46aefLPb7WaxQc6B89gXO1SciE9DamFKrVi00btyY4wMRvVCrVq0UPz8/2TFMauvWrUhNTdXWXVIiCby9vRUu4Fl227dFCnVKSorQ+wmOBoMBgwYNkh2DSBNu3bolTp8+LTuGSf3rX/+SHYGIrMjIkSNlRzCptLQ0bvsmMhE+Ygrs3bsXsbGxFrlJZ5FCvXnzZqSnp1vit1KtZs2aoUyZMlx9IjIBrZ3uXbRoUYSEhMiOQURWpFu3bihcuLDsGCaltZ1HRLL4+/srlSpVkh1DqtzcXFjqdc0WKdQcIIG+ffvKjkCkGZs3b5YdwaRGjhwJOzs73nAjopfm4OCgvP/++7JjmNSOHTss/v5YIq3q06eP7AjSWapQK+Ze5UlOThY+Pj66XqH28PDA/fv34ezszAkzUR7FxcWJQoUKITc3V3YUk3BycsKvv/4KLy8vjg9E9Eri4uJEsWLFkJmZKTuKyezduxfNmzfneEiUR7GxsaJ48eLIzs6WHUUaGxsb3L9/HwULFjTrmGL2FWpu9wa6du3KMk1kIrt379ZMmQaAd955h2WaiF6Lt7e30r59e9kxTErvZ+4QmYqPj4/SqlUr2TGkys3NtciuRrMXam735nZvIlPS2vvs+b5IIsqL/v37y45gUizURKbDDmKZbd9m3fLN7d5A5cqVceHCBa4+EZmAEEIULVoUDx48kB3FJMqVK4crV65AURSOEUT0WoQQomzZsrh586bsKCYTHR2NEiVKcFwkyqOcnBxRvHhxPHz4UHYUaezs7PDw4UPky5fPbGOKWVeoN23apOsyDfDOEJEpRUVFaaZMA/9dWWKZJqK8UBRF6dWrl+wYJrV7927ZEYg0wdbWVunatavsGFJlZ2dj69atZv09zFqo9b7d29bWFt27d5cdg0gzduzYITuCydja2qJnz56yYxCRBvTr1w82NjayY5iM1h7tIZKpX79+siNIZ+5t32Yr1MnJyULvdxjbtm2LQoUKcfWJyES0NMlq164dChcuzPGBiPKsWLFimjp8aM+ePcjJyeHrs4hMoEqVKkrt2rVlx5Bq165dSEpKMtuYYrZCvWXLFmRkZJjrl7cKfP8bkekkJSWJo0ePyo5hMj169JAdgYg0REs74p4+fYojR47IjkGkGXp/BDUzMxPbt283269v1kKtZ15eXmjdurXsGESasW/fPs28S9HNzQ1aWk0iIvmCg4Ph5OQkO4bJ6H2XI5EpdenSBfb29rJjSGXObd9mKdQ5OTlCS1szX0dISAgcHBy4nZPIRA4ePCg7gsm0a9cOTk5OHB+IyGRcXV2VNm3ayI5hMpGRkbIjEGlGvnz5lJYtW8qOIdWOHTuQkZFhlm3fZinUBw8eREJCgnn/VFROS1uviNTg8OHDsiOYTEhIiOwIRKRBWhpbjh07hqysLD5HTWQiej/tOzU1FREREWb5tc1SqLdt22bWPxC1K168OAICAmTHINKM9PR0ERUVJTuGSbi5ueGtt96SHYOINCg4OBguLi6yY5hEeno6zp49KzsGkWa8/fbbcHV1lR1DKnN1VLMUanO/60vtunbtCoPBwO2cRCZy4sQJZGVlyY5hEm+//TYcHR05PhCRyTk7O2tq27eWdiYRyebs7Ky0a9dOdgyptmzZAiGEyXe+mLxQ37x5U1y9etUyfyoq1a1bN9kRiDRFS6e9durUSXYEItIwLW37PnTokOwIRJqi923fd+/exfnz503+65q8UG/evNkifyBqVbFiRfj5+XH1iciEtHI4jYODAwIDA2XHICINa9WqFezs7GTHMAkWaiLTatWqFQoWLCg7hlTmeBOVyQu13rd78zAyItMSQmjm/dONGzeGi4sLb7gRkdm4ubkpDRo0kB3DJO7fv487d+7wYDIiE7G1tVX0vlPOHM9Rm7RQJyUlCa2sJL0ORVF0v5WCyNSuXr2KuLg42TFMgoeREZElaOk991ylJjItvXeVY8eOITY21qQ36kxaqHft2qWZg4NeR7169eDr68vVJyIT0tJkqnXr1rIjEJEOaKlQ82AyItMKCAhAiRIlZMeQxmg0YufOnSb9NU1aqPW+3VtLB4EQqcWpU6dkRzCJEiVKoGLFirzhRkRm5+fnh8KFC8uOYRInT56UHYFIUxRF0f22b1N3VpMVaqPRKEzd9q3N22+/LTsCkeZo5T2kXJ0mIktRFEXRyiMmFy5cgNFo5HPURCak90K9e/duZGVlmWxcMVmhPnbsGB49eiTnT0UFateujdKlS3P1iciEhBDi4sWLsmOYhFYmt0RkHbSy7TstLQ03b96UHYNIU+rXr48iRYrIjiFNUlISDhw4YLJfz2SF2hxHkFuTd955R3YEIs2Jjo7G06dPZcfIM0VR0LBhQ9kxiEhHmjRpIjuCyZjjvbFEemYwGJQOHTrIjiHVrl27TPZrmaxQ6/35aW73JjK9c+fOyY5gEhUqVIC3tzd3sBCRxfj4+Ci+vr6yY5gECzWR6XHb926T/VomKdS//vqr0PNgV7VqVZQvX56TZSIT08q4opV3whKRdfH395cdwSS0ci0gUpNGjRqhQIECsmNIc/78eTx8+NAkz1GbpFBHRETI/RORjNu9icxDK5MoFmoikkErhVoru5WI1MTGxkbR8w5bIQT27t1rkl/LJIV63759Uv9AZNP7lgkic9HKJIqFmohk0EqhvnnzJlJTU3nSN5GJ6b3D7NmzxyS/jiJE3senEiVKiLt378r+M5GiXLlyuHr1Krd7E5lYZmamcHV1RU5OjuwoeZI/f348fvwYiqJwnCAiixJCCG9vbzx58kR2lDw7fvw46tSpw3GUyISys7NFoUKFNDFGvI5ChQrh/v37eZ6j5XmF+tq1a7ot0wDv7BCZy+XLl62+TAP/fTUFyzQRyaAoilK3bl3ZMUxCK48AEamJnZ2dEhQUJDuGNA8fPsSFCxfy/OvkuVCbau+5tWrfvr3sCESadP36ddkRTKJ27dqyIxCRjmllDOK7qInMIzg4WHYEqUzRZfNcqPX8/HTBggVRp04d2TGINOnOnTuyI5hEtWrVZEcgIh2rWrWq7AgmoZVrApHatGrVCg4ODrJjSGOK56jzVKiNRqM4cOCA7D8Hadq2bQuDwcCtnERmoJXJk1Yms0RknbQyBt2+fVt2BCJNcnV1VRo2bCg7hjT79+9HZmZmng4Vy1OhjoqKQlxcnOw/B2n0/MwBkblpoVC7uLjA19dXdgwi0rGyZcvCyclJdow808I1gUit9Nxp0tLScOjQoTz9Gnkq1Hp+/7S9vT1atGghOwaRZmlh8lSlShXuYiEiqWxsbJRKlSrJjpFnDx8+RHp6Ol+dRWQGei7UQN63feepUOv5QLImTZrAzc2NE2UiM4mOjpYdIc+0stWSiKybFsYiIQRiYmJkxyDSpDJlyigVK1aUHUOa/fv35+n/f+1CnZWVJfK6PG7N9H4nh8icYmNjRWpqquwYeaaFSSwRWT+tjEV8jprIfPTcbU6ePInU1NTX3gHz2oX6yJEj0MKE93W1adNGdgQizdLCdm8A0MI2SyKyfloZi1ioicynbdu2siNIk52djSNHjrz2///ahVrPr8uqXLkyypQpw+3eRGailUJdunRp2RGIiDQzFmnhUSAitQoICED+/Pllx5AmL2+ueu1CrecDyfR8B4fIErQwaTIYDChevLjsGEREKFmyJBTF+tcBtHKzlUiNbGxslJYtW8qOIU1enqN+rUKdnJwsjh8/Lvvjluatt96SHYFI02JjY2VHyLOiRYvC3t7e+mewRGT1HB0dlUKFCsmOkWdauDYQqZmeO87x48eRkZHxWs9Rv1ahPnz4MLKzs2V/3FI4OzvD399fdgwiTdPC++1LlSolOwIR0TNaGJPi4+NlRyDStMDAQE3sZnkdGRkZeN0F49cq1Hl5aNvaNW7cGA4ODvr8SiOyEC1MmrQweSUi7dDCc9RauDYQqVnRokX5+qzXwEL9ilq0aCE7ApHmaWHSxEJNRGqihTFJC9cGIrXT83PUr3sw2SsXaqPRKI4dOyb745WGhZrI/J48eSI7Qp6VLFlSdgQiome0sEKdmZmJlJSU135XLBG9mJ67zuHDh5GVlfXKY8wrF+oLFy7g6dOnsj9eKQoVKoTKlSvLjkGkeY8fP5YdIc+0cAAQEWlHwYIFZUcwCa5SE5nXb4+3yo4hRVpaGk6fPv3K/98rF+qjR4/K/liladGiBRS9PqlPZCG5ublCCzft9PwuRyJSH62MSVo4tJJIzVxcXJQGDRrIjiHN62z7fuVCffjwYdkfpzR6fqaAyFKePHkCo9EoO0aeaWXySkTa4O3tLTuCSXCFmsj8AgMDZUeQ5nUWj1moX5KiKGjevLnsGESap5XJklYmr0SkDVq5yaeVawSRmul5EdHshTouLk7cuHFD9scpRZUqVVC4cGFu9yYyMy0cSGZjYwMPDw/ZMYiInvHy8oLB8Fovd1EVFmoi86tZs6ZuFwYePHiA6OjoVzqY7JVG1sOHD0MIfR6u2KxZM9kRiHQhLS1NdoQ8y5cvHwwGA2/AEZFq2NjYKJ6enrJj5Fl6errsCESaZzAYlEaNGsmOIc2rvtHqlQq1nt8/recvKiJLyszMlB0hz7SytZKItEULY5MWrhFE1kDP3ceshVrPz08HBATIjkGkC9nZ2bIj5Bm3exORGmlhhZqFmsgyGjduLDuCNK/6HPVLF+rs7Gxx8uRJ2R+fFJUqVULBggW5fZPIArQwWdLr+xuJSN3s7e1lR8gzLdx0JbIG1apVQ758+WTHkOLUqVPIzMx86eecX7pQnzlzRhPPNr4OPd+hIbI0LRRqLUxaiUh7tHCzTwvXCCJrYDAYdPs+6szMTJw9e/al//uXLtR63e4N6PsZAiJLy8rKkh0hz7QwaSUi7dHCzT4tXCOIrIWeO9CrbPt+6UL9Ou/k0go9fzERWZoWVh+0MGklIu3Rws0+LVwjiKyFnnfpvsrBZC9dqI8fPy7745KiXLlyfP80kQVpYfWBhZqI1EgLhVoL1wgia1GzZk24ubnJjiGFyVeonz59Km7fvi3745KCq9NElqWFyZIWJq1EpD1auNnHFWoiy7G1tdXtc9S3bt1CXFzcSx1M9lKF+syZMxDipQ860xQ9b3UgkkELhdrOzk52BCKi/6GFm30s1ESWpefFxaioqJf67166UOsV3z9NZFl6vXlHRGRuRqNRdoQ8UxQ+hUdkSQ0bNpQdQRqTFurTp0/L/nikKFiwIEqVKsWRm8iCbG1tZUfIM66gEJEacQcQEb2q2rVr6/b7jivUJqDXZwaIZNJCodbCpJWItEcLN/v0OrEnksXJyUmpVq2a7BhSmKxQZ2ZmisuXL8v+eKSoW7eu7AhEusNCTURkHloYm7RwjSCyNvXq1ZMdQYrr168jJSXlhc8ivrBQX7hwAdnZ2bI/Hin0+sVDJJMWJktaWAUiIu3RwtjEFWoiy9PrIqPRaMS5c+de+N+9sFC/7FK31tjY2KBmzZqyYxDpjhYKtRZWgYhIe1ioieh16HmR8WXOEnthodbr89OVK1eGu7s7DyQjsjC+J5WIyDy0sOOQhZrI8t544w14e3vLjiHFyywuc4X6OfR8J4ZIJldXV9kR8iwjI0N2BCKi/5Geni47Qp5p4RpBZG0URVHefPNN2TGkyHOhNhqN4mX2jWuRXp8VIJJNC5OlhIQE2RGIiP7HkydPZEfIM3d3d9kRiHRJr93o4sWLyMrK+seDyf6xUP92spnsj0MKrlATyeHm5iY7Qp7FxcXJjkBE9D/i4+NlR8gzLVwjiKyRXrtRVlYWLl269I//zT8War0+P+3u7o4KFSrIjkGkS1pYoU5KSkJ2dvYLX7NARGQpWVlZIjk5WXaMPGOhJpLjzTffhKLo83ips2fP/uO//8dCrdfnp2vUqAGDwaDPrxgiybQwWRJCaGJrJRFphxZWpwFtXCOIrJGnp6dSpkwZ2TGkyNMKtZ4LNRHJoZXJklYmr0SkDVoZk7RyjSCyRnrtSBcvXvzHf/+Phfr8+fOy80tRvXp12RGIdMvT01N2BJPgc9REpCZaKdQeHh6yIxDpFgv133tuoU5KShIPHjyQnV+KWrVqyY5ApFtOTk6KFp6j1srklYi0QSs3+Xx8fGRHINItvRbq6OhopKSkPPdsnOcW6itXrsjOLoWjoyPKly8vOwaRrhUoUEB2hDzT6w1JIlKnhw8fyo5gEt7e3rIjEOlWzZo1ZUeQQgjxj92YhfovqlatCjs7Ox5IRiSRFgp1dHS07AhERM/cvn1bdoQ8c3Nzg7OzM+doRJIULFhQKVy4sOwYUvzTwWTPLdRXr16VnVsKvW5lIFITLRTqO3fuyI5ARPSMFsYkLVwbiKydXrsSC/Ur0OsXCZGaaGHSpIXVICLSDi2MSQULFpQdgUj39NqV/ulgMm75/gu9fpEQqYkWJk1aWA0iIu3QwmMoWrjZSmTt9NqVXnmFOjc3V9y8eVN2bouzsbFB1apVZccg0r2iRYvKjpBnjx8//scTIYmILCU5OVlo4c0DxYsXlx2BSPf0Wqjv3LmD1NTUv53XGZ73P2RkZMjObXFly5blYRdEKlCiRAnZEUxCCytCRGT9bt26JTuCSbBQE8lXunRpuLm5yY5hcUaj8bk7uP+2UOt1u3elSpVkRyAiaKdQa2USS0TWTQvPTwMs1ERqoCiKotfOdPny5b/95yzUf1ClShXZEYgI2inU58+flx2BiEgzY1HJkiVlRyAi6HcR8saNG3/7z/+2UOv1hG+9fnEQqY23t7fi7OwsO0aeaWUSS0TWTStjkVZuthJZO712puedMcYV6j/Q6xcHkRppYWufViaxRGTdzp07JztCntnY2KBIkSKyYxAR9NuZuEL9Ara2tihXrpzsGET0m9KlS8uOkGfXrl1DZmYmT/omImkyMjI08eaW4sWLw9bWlgfHEqkAC/Wf/U+hfvLkiXj06JHsvBZXpkwZODg4cKAmUgkt3ODKzs5+7gEWRESWcOnSJeTk5MiOkWfly5eXHYGIflOyZEldnvQdFxeHhISE/1ko+Z9CrcfVaQCoXLmy7AhE9Adly5aVHcEktLDVkoisl1bGIBZqIvVQFEWpUKGC7BhS/N2OHxbq3+h16wKRWmll8sTnqIlIpgsXLsiOYBJa2LVEpCV6XYz8u23f/1OotfKuwlfFQk2kLlqZPB07dkx2BCLSsaNHj8qOYBJ6XQ0jUquKFSvKjiDFS61Qx8TEyM4pBQs1kboUL14cTk5OsmPk2YkTJ5CVlcWDyYjI4jIzM8WpU6dkxzAJrdxkJdIKrlD/v/8p1NHR0bJzWpyiKJp5XpNIKwwGg6KF78uMjAxERUXJjkFEOnT69GlkZGTIjpFnrq6uKFasmOwYRPQHWpijvY6XWqHWY6EuUqQInJ2decI3kcpUq1ZNdgSTOHTokOwIRKRDkZGRsiOYRNWqVaEoCudpRCpSunRp2Nrayo5hcS9coTYajeLevXuyc1rcG2+8ITsCEf0NPz8/2RFM4vDhw7IjEJEOaeVmnlauBURaYmdnp5QoUUJ2DIt7+PAhUlNT//Qo358K9YMHD5CVlSU7p8WxUBOpk1YmUVpZJSIi6yGEEEeOHJEdwyS0ci0g0ho9dighxP+cOfanQq3H7d4AUKZMGdkRiOhvaGUSFRsbi1u3bvFgMiKymBs3buDRo0eyY5iEVh7/IdIavXaou3fv/unvWaihz7srRNagYMGCSqFChWTHMImff/5ZdgQi0pF9+/bJjmASBoOBhZpIpVio/4uFGizURGpWvXp12RFMYufOnbIjEJGO7Nq1S3YEk/D19YWrqysPJCNSIb12KBbqv6HXLwYia1C7dm3ZEUxi9+7dyM7O5rZvIjK77OxsERERITuGSbz55puyIxDRc+i1Q/EZ6r/w8fGBm5sb73wSqVTdunVlRzCJpKQkHDt2THYMItKByMhIJCUlyY5hElq5BhBpUZkyZWAwGPL+C1kZrlD/hV7vrBBZi/r160Mrrx/ltm8isgStbPcGgHr16smOQETP4ejoqBQpUkR2DIv7xxXqv/5LPfD19ZUdgYj+Qf78+RWtfJ+yUBORJWhlrHFwcNDM2x6ItEqPB5Pdu3fvT3//rFDHx8eLlJQU2fksrmTJkrIjENELaGWF4vTp04iNjeVz1ERkNg8fPhTnzp2THcMkatWqBQcHB21sUSLSKD12qbS0NMTFxT2bzz0r1HpcnQaA4sWLy45ARC+glWfohBDYvHmz7BhEpGEbN26EENq4b6eVm6lEWqbXLvXH56ifFWo9Pj8N6PeLgMiaBAQEyI5gMuHh4bIjEJGGaWmMadCggewIRPQCeu1Sf1uo/7oXXC+KFSsmOwIRvYCfnx+8vLxkxzCJiIgIPHr0SBvLR0SkKg8fPhQHDhyQHcMkFEVB48aNZccgohfQa6H+4+7uZ4U6NjZWdi4p9Ljvn8jaGAwGpVGjRrJjmERubi42btwoOwYRadC6deuQm5srO4ZJVK1aFd7e3nx+mkjlSpQoITuCFA8ePHj282eF+tGjR7JzWZybmxvc3d05WBNZgSZNmsiOYDJa2pJJROqhpbFFS2M+kZbpdXHyj91Z14Var3dUiKxR06ZNZUcwmV9++YWnfRORST18+FAcOnRIdgyTYaEmsg5ubm6Ku7u77BgW98fd3bou1Hrd809kjX7b/ic7hknk5uZiw4YNsmMQkYaEh4drZru3wWCAVh7zIdIDPS5SslD/Ro+ffCJrZTAYFC2tUi9btkx2BCLSkOXLl8uOYDLVq1dH/vz5+UgekZXQ4yIlt3z/Ro+ffCJr1qpVK9kRTObYsWM4e/Yst30TUZ6dO3dOnDx5UnYMk2nTpo3sCET0CvS4SPk/K9SZmZkiKSlJdi6LK1KkiOwIRPQKWrduDUXRzqLF0qVLZUcgIg0ICwuTHcGkWrduLTsCEb2CokWLyo5gcenp6UhOThbAb4Vaj6vTAFCoUCHZEYjoFRQuXFjx8/OTHcNkVqxYgYyMDK5SE9FrS09PF6tWrZIdw2Ty5cuHunXryo5BRK/Ax8dHdgQpfl+l1nWh1usnn8iaaWnl4smTJzycjIjyZN26dUhISJAdw2RatWoFGxsb7WxFItKBggULyo4gBQs19PvJJ7JmWirUALB48WLZEYjIimltDNHaGE+kB3pdpPy9Q7NQE5FVqV+/PvLnzy87hsn8/PPPuH79Ord9E9Eru3btmjhw4IDsGCZjY2OjqcMnifRCr4Va9yvUnp6ecHBw4JYiIitja2urtGvXTnYMkxFCYNasWbJjEJEV+s9//gMhtHM/rnHjxvD29ubcjMjK6HWR8k+F+vHjx7LzWJxeP/FEWtCxY0fZEUxq6dKliI+P186smIjM7smTJ0JL754GtDe2E+mFq6ur4uLiIjuGxcXFxQHQ8Qo1T/gmsl4tWrSAu7u77Bgmk5aWhgULFsiOQURW5LvvvkNqaqrsGCZjMBjQoUMH2TGI6DXpcbHy9wMhdVuo9brXn0gLHBwclDZt2siOYVKzZ8/mK7SI6KVkZmaKuXPnyo5hUvXq1UORIkW43ZvISumxWyUmJgLQcaHW410UIi3R2tbA2NhYrFmzRnYMIrICK1aswMOHD2XHMKlOnTrJjkBEeaD7Qq2l9xe+LD1+0om0pHXr1tDa8zozZsyA0NIJQ0RkckIIMXPmTNkxTEpRFM3dJCXSGz0uVv5py3dycrLsPBanpdfuEOmRq6ur0r59e9kxTOr8+fPYtm2b7BhEpGKbN2/GpUuXZMcwKX9/f5QqVYrbvYmsmLe3t+wIFvenFeqkpCTZeSzOy8tLdgQiyqPu3bvLjmByEydO5Co1Ef0tIYSYNGmS7Bgm17NnT9kRiCiPPD09ZUewuGeFOjs7W2RmZsrOY3F6/KQTaU3Lli019/jG6dOnsWnTJtkxiEiFNmzYgDPx8BWpAACAAElEQVRnzsiOYVL29vZ8fppIA/TYrdLS0pCZmSkMetzuDejzk06kNba2tkrnzp1lxzC5Tz/9FEajkavURPSM0WgUn3/+uewYJhcUFIT8+fNzuzeRldNrt0pMTIRBj9u9Af1+0om0Rovbvi9cuIANGzbIjkFEKrJ27VqcO3dOdgyT0+IYTqRHen2cNjExEbpdodbrJ51Ia+rWrauUL19edgyTmzRpElepiQgAkJubq8nV6fz586Nt27ayYxCRCeh1sTIhIUG/hVqvn3QiLRo4cKDsCCZ38eJFrF69WnYMIlKBVatW4fLly7JjmFzPnj3h4ODA7d5EGqDXbqXbFWoHBwc4OjpyACfSiN69e8PBwUF2DJMbP3480tLSuEpNpGPp6eliwoQJsmOYxYABA2RHICIT0evuX90War1+wom0ytvbW3PvpAaAe/fuYfr06bJjEJFEoaGhiImJkR3D5Pz9/VG5cmUubhBphKenJxRFf9/Sqamp+izUet2SQKRlWtz2DQBTpkxBTEwMV6mJdOjXX38V06ZNkx3DLLQ6ZhPpla2treLi4iI7hsWlpaXps1B7eHjIjkBEJta8eXO88cYbsmOYXFpaGj799FPZMYhIgg8//BCpqamyY5ich4cHQkJCZMcgIhPT46JlWlqaPl+b5e7uLjsCEZmYoijKoEGDZMcwi5UrV+LEiRNcpSbSkaNHjwqtHkzYu3dvODs7629vKJHGubm5yY5gcenp6fpcoXZycpIdgYjMYMCAAdDidiOj0YhRo0ZBCMFSTaQDRqNRjB49Glr8ljcYDBg2bJjsGERkBnrsWLot1M7OzrIjEJEZeHl5KT179pQdwywOHz6MxYsXy45BRBYQFhaGo0ePyo5hFm3btkXZsmW5Ok2kQXrsWLp9hlqPn2wivRg9erRmT5kcO3Ysfv31V+0tWRHRMw8fPhQff/yx7BhmM3LkSNkRiMhM9NixdFuo9bgdgUgvypUrp7Ro0UJ2DLN4+vQpRo8eLTsGEZnR+++/j4SEBNkxzKJy5cpo1qyZ7BhEZCa6LdQZGRmyc1icHj/ZRHoyYsQI2RHMJjw8HJs3b+YqNZEG/fTTT2LDhg2yY5jNyJEjoWh1CxER6XLRMj09HYacnBzZOSyOhZpI29q0aYMqVarIjmE2Q4cOxdOnT1mqiTQkKSlJDB8+XHYMs/Hx8UGPHj1kxyAiM9Jjx0pLS4MhOztbdg6L0+PdEyI9URRF+fDDD2XHMJv79+/jk08+kR2DiExo/PjxuHfvnuwYZjN69Gg4OTlxdZpIw/RYqLlCTUSa1bVrV5QqVUp2DLOZO3cuduzYwVVqIg3Ys2ePmD9/vuwYZuPu7o7BgwfLjkFEZqbHjpWWlqbPQs0VaiLts7W1VcaMGSM7htkIITBgwADEx8ezVBNZsbi4ONG7d29NvnP6d8OGDYOnpydXp4k0To8diyvURKRpAwYMQKFChWTHMJv79+9j4MCBsmMQUR689957ePDggewYZuPo6AgtPxtORP9Pjx0rNzdXn89QOzg4yI5ARBbg6OioaP2dpxs3bsSSJUu0u7RFpGELFy4U4eHhsmOY1W83Nrk6TaQD9vb2siNYXG5urj5XqG1sbGRHICILGT58OAoWLCg7hlmNGDEC165dY6kmsiI3b94UWn4sBfjv6vS4ceNkxyAiC9Fjx8rJydHnCrUeP9lEeuXi4qJ88MEHsmOYVWpqKnr37o3s7GyWaiIrkJWVJbp27Yrk5GTZUcxqyJAhKFasGFeniXRCjx2LK9REpAvvv/8+ihQpIjuGWR09ehRjx46VHYOIXsLo0aNx4sQJ2THMysXFBePHj5cdg4gsSI8di4WaiHTByclJ0++l/t3s2bOxbNkyrlITqdiqVavE3LlzZccwu2HDhsHHx4er00Q6YmtrKzuCxel2y7ceP9lEejd48GAUK1ZMdgyzGzp0KKKioliqiVTo/PnzQg8n87u6ukLrz4cT0f/S46IlV6iJSDccHR2ViRMnyo5hdunp6Xj33Xfx9OlTlmoiFUlMTBQdO3ZEWlqa7Chm98EHH6BAgQJcnSbSGT12LBZqItKVvn37okqVKrJjmN3169fRs2dPCCFYqolUQAgh+vXrhxs3bsiOYnZFihTh6jSRTumxY+l2y7ceP9lEBNjY2CihoaGyY1jEli1b8Pnnn8uOQUQAJk2ahI0bN8qOYbGP1cXFhavTRDqkx8dquUJNRLrTpk0bJTAwUHYMi5g8eTJWrFjBVWoiidasWSO++OIL2TEsomLFiujbt6/sGEQkiR47Fgs1EenStGnTYDAYZMcwOyEE+vfvj4iICJZqIgkOHDgg+vTpA708fTFt2jTY2tpydZpIp/S4Qp2TkwODXgZ5IqLf+fn5KT169JAdwyKys7MREhKCa9eucbAnsqArV66It99+G5mZmbKjWETz5s3Rpk0blmkiHdNjr1QUBQY9rtbm5ubKjkBEkk2dOhUeHh6yY1jEkydP0KpVKzx69Eh/VzoiCeLi4kRwcDASEhJkR7EIW1tbzJw5U3YMIpJMjx3LxsaGhZqI9MnHx0f59NNPZcewmNu3b6Njx45IT09nqSYyo7S0NBEcHKyLE71/N2LECFStWpWr00Q6p8eOZWtry0JNRPo1cuRIVK1aVXYMizl06BDat2+PzMxMlmoiM8jKyhLvvPMOjh49KjuKxfj4+OCzzz6THYOIVECvZ3OxUBORbtna2ip626a4Z88edOnSBTk5OSzVRCaUm5srevTogR07dsiOYlHTpk2Dh4cHV6eJSJcdy8bGBga9nsZGRAQAzZs3V9555x3ZMSzqp59+woABAyD0eHoIkRkYjUbRt29fhIeHy45iUQEBAejevbvsGESkEnos1NzyTUQEYPbs2fD09JQdw6KWLVuGYcOGyY5BpAljx47FihUrZMewKHt7e8yfPx+KonB1mogA6LNjccs3ERGAwoULK1999ZXsGBY3d+5cjB8/nqvURHkwbtw4obdHRwBg/PjxqFy5Mss0ET2jx13ALNRERL8ZPHgwAgICZMewuNDQUAwbNkxw+zfRqxFCiLFjx4qpU6fKjmJx5cqVw0cffSQ7BhGpjB47Frd8ExH9xmAwKIsWLYKDg4PsKBb33XffYejQoTAajSzVRC9BCCFGjRqF6dOny45icYqiYNGiRXB0dOTqNBH9iR47FleoiYj+oHz58sq4ceNkx5BiwYIF6NWrF0//JnqB3Nxc0b9/f8yePVt2FCkGDRqEhg0bskwT0f/QY8fS7SnfmZmZsiMQkUp98sknqFatmuwYUvzwww/o2bMnsrOzWaqJ/kZ2drbo2rUrli5dKjuKFCVKlEBoaKjsGESkUllZWbIjWJxuC3VaWprsCESkUvb29sqyZctgb28vO4oUa9asQUhICDIyMliqif4gPT1ddOzYUXevxvqdoihYsmQJ3zlNRM+lx45la2sLg6Ojo+wcFqfHTzYRvbzq1asrn332mewY0mzatAlNmzbFo0ePWKqJAMTHx4uWLVti69atsqNIM3z4cDRv3pxlmoieKz09XXYEi3N2dobB2dlZdg6L0+Mnm4hezbhx41C3bl3ZMaQ5evQo6tevj6tXr7JUk67dvHlTNGjQAJGRkbKjSFOmTBl8+eWXsmMQkcrpcdHSyckJBicnJ9k5LI6FmohexNbWVlm2bBn0OEb+7tatW2jQoAEOHjzIUk26dPToUVG/fn1cu3ZNdhRpDAYDvv/+e7i6unJ1moj+kR4LtW5XqPX4ySaiV1e+fHlFj++Y/aMnT57grbfewvr161mqSVfCw8NF06ZN8fjxY9lRpPr4448REBDAMk1EL6THjsVCTUT0Au+//z7atWsnO4ZU6enp6Ny5M6ZMmSKEECzWpGlCCPHll1+KLl26ICMjQ3Ycqfz9/TFx4kTZMYjISuhxF7Czs7M+t3yzUBPRy1IURfn+++9RokQJ2VGkMhqN+Oijj9C+fXs8ffqUpZo0KTk5WYSEhGDChAkwGo2y40jl6emJlStXwtbWlqvTRPRS9NixnJycuEJNRPQiXl5eyooVK2BjYyM7inRbtmzBm2++iUuXLrFUk6Zcu3ZN1KtXD+vXr5cdRRXmzZuHUqVKsUwT0UvTY8film8iopfUqFEj5aOPPpIdQxWuXbuG34oHSzVpwpYtW8RvN4pkR1GFQYMGoUuXLizTRPRK9NixdFuo9bi/n4jybuLEiWjSpInsGKqQnJyMkJAQfPrppyI3N5fFmqxSTk6O+Oijj8RvjzLIjqMKfn5+mDlzpuwYRGSF9NixdPvarKSkJNkRiMgK2draKmvWrEHRokVlR1EFIQT+/e9/w9/fHzdv3mSpJqsSHR0tmjVrhilTpoBn7f2Xp6cn1q9fD2dnZ65OE9Er02PH0u2hZImJibIjEJGV8vHxUdatWwd7e3vZUVTj2LFjqFmzJlauXMlWQlYhPDxc1KhRAwcPHpQdRTUURcGSJUtQpkwZlmkiei167Fi6PZRMj59sIjKdevXq6f791H+VlJSEnj17onPnziIxMZHFmlQpOTlZDB48WHTu3BkJCQmy46jKJ598gg4dOrBME9Fryc7OFqmpqbJjWJyzszMMbm5usnNYHAs1EeXVyJEjlXfffVd2DNUJDw9H7dq1cezYMZZqUpUjR46I6tWrIywsTHYU1WnRogUmTZokOwYRWTG99itXV1cYPD09ZeewuKysLKSmpnKyR0R5snTpUtSuXVt2DNW5efMmGjRogMGDB4uUlBSOtSRVenq6GD9+vGjYsCFu3bolO47qlC5dGj/88ANsbGy4Ok1Er02vu368vLz0WagB/d5FISLTcXJyUtavXw8fHx/ZUVTHaDQiLCwM1apVw969e1mqSYoDBw6I6tWrIzQ0FLm5ubLjqI6bmxs2b96MAgUKsEwTUZ7otVuxUBMR5VGJEiWUDRs2wMHBQXYUVbp9+zZatGiBzp07i/j4eBZrsojExEQxePBg0aRJE1y7dk12HFUyGAz44YcfUKVKFZZpIsozvXYrT09P/RZqvW5LICLTa9CggbJgwQLZMVQtPDwcVatWxbp161iqyax+/PFHUaFCBYSFhfF1WP8gNDQUwcHBLNNEZBJ67Vaenp4weHl5yc4hhV7vohCRefTu3Vv54IMPZMdQtQcPHiAkJASBgYHi/PnzbDpkUmfPnhVNmzYVXbp0QWxsrOw4qta7d2+MHTuWZZqITEaP3UpRFHh4eMDg4OCg8F3URER5Fxoaiu7du8uOoXr79u1D9erV0atXL/Ho0SMWa8qTJ0+eiJEjR4patWrhl19+kR1H9Zo0aQLuqCEiU9Njt3Jzc4Otra1iAP67VK03evykE5F5KYqiLFmyBM2aNZMdRfWMRiNWrFiBChUqIDQ0VGRlZbFY0yvJyckRYWFhonz58pg9ezYPHXsJlStXxsaNG+Hg4MDVaSIyqadPn8qOYHEeHh4AAN0W6ri4ONkRiEiD7O3tlfDwcFSoUEF2FKuQkJCA8ePHo0aNGti4caMQfOiVXkAIIdavXy+qVauGwYMH83r+kooVK4Zdu3bB09OTZZqITO7x48eyI1jc749OG/74N3rC56uIyFzy5cun7NmzB8WKFZMdxWpcunQJHTt2hJ+fH8LDw1mq6W/t3btX1KlTB++88w4uX74sO47VcHd3x9atW1G0aFGWaSIyCz12qz8Vaj2uUOvxk05EllOsWDFl06ZNcHd3lx3Fqpw/fx6dO3eGv7+/+Pnnn1msCcB/i3T9+vVFixYtcOrUKdlxrIqjoyN++un/2rvv+Jrux3/gr3OzI1MkYkTIQKg9K7ZQI7RFUG3Nij06lH5bq9qS6jBKidqqSPGp2RJb7L1XiL0SkSWy7vv3R8dPWzTk3vs+95zX8/HIo6Qhrxv3nvd53ff7vM//UKVKFZZpIjKbu3fvyo5gcX92aBZqIiIzqV69urJmzRrocePHgtq9ezeaNm2KZs2aiW3btrFY69SWLVtE48aNRfPmzbF3717ZcayOra0tli1bhiZNmrBME5FZ6bFbccm3Dv/RicjyGjZsqPzyyy9wcHCQHcUqbdmyBU2aNEG1atXEwoULRW5uLsu1xhmNRrFmzRpRt25d0axZM2zfvl12JKukKAqio6PRrl07lmkiMjs9XkP9t03JvL29ZeexOBZqIrKU5s2bK0uWLIGNjY3sKFbr6NGj6N69O4KDgxEVFSVSUlJYrDUmPT1dREdHi/Lly6Ndu3bYt2+f7EhW7euvv0bPnj1ZponI7NLS0kRGRobsGBZXtGhRAH8U6j9/oyfp6enIyMjgCRkRWUT79u2V77//HorC89uCSEhIwMiRIxEQEICPP/5YXLlyhcdxK5eQkCD+7//+T5QqVQp9+/bFhQsXZEeyep999hneffddHmyIyCL0eP00APj4+AD4o1D/+Ru90es/PhHJ0adPH2XWrFks1SZw//59fPHFFwgICEDz5s1FTEyMyMnJYbm2Enl5eSI2NlZ06tRJBAUFYcKECUhOTpYdSxNGjBiBjz/+mAcZIrIYva78/XNS2vbx3+jNnTt3UKZMGdkxiEhH+vTpowghRL9+/cBbLhec0WhEbGwsYmNj4evri+7du4s+ffogMDCQhUKFLl68KBYvXoy5c+fi2rVrsuNozogRIzBx4kQ+94nIovReqHW75BvQ7z8+EckVGRmpTJkyhTPVJnb79m1ERUUhODgYTZo0EbNmzRKJiYl810Kye/fuie+//140btxYlC1bFuPGjWOZNoNRo0axTBORFHrtVH+u8rZ9/Dd6o9d/fCKSb/DgwYqDgwNnqs1ACIFt27Zh27ZtGDhwIOrWrSsiIiLQtWtXeHt7s3BYwIMHD8Tq1asRExOD3377DTk5ObIjadqHH36ITz/9lM9tIpJCjzt8A/8o1G5uboqTk5PIzMyUncuibty4ITsCEelYZGSkkpOTI4YMGQKj0Sg7jibl5eUhLi4OcXFxGDFiBFq0aCHat2+Pli1bwtfXlwXEhG7duiU2bNiAVatWYePGjcjOzpYdSRfGjRuH0aNH87lMRNJcv35ddgSLc3Nzg5OTkwL8UaiB3xv2lStXZGezqKtXr8qOQEQ6N3DgQMXT01N0794dubm5suNoWlZWFtasWYM1a9YAACpUqCDatm2LsLAwNGrUCHZ2diwlzyEvL08cPXoUa9aswdq1a3H48GGutrAgRVEwadIkvP/++3zeEpFUeuxUj18ybfv4J/VWqHkNFxGpQdeuXRUnJyfxxhtvICsrS3Yc3Th9+jROnz6NqKgoeHp6onnz5iIsLAyhoaEICQmBwovc/0YIIU6fPo1du3b9tRHcgwcPZMfSJRsbG8yaNQu9e/fmc5SIpNNjp3r8kum/FWq90eM/PhGp0+uvv65s2LBBvPrqq0hLS5MdR3eSk5OxfPlyLF++HMDvS7lq164tQkNDUb9+fYSGhv61tEsvcnNzxbFjx7Br1y7ExcVh69atSExMlB1L9+zs7LB48WJ06tRJV89HIlIvPXaqp85Q683Vq1chhBCchSAiNWjSpImyYcMG0a5dO9y/f192HF1LTU39axYWABwcHFCtWjVRuXJlVK5cGZUqVULlypXh4eGhifEjOTlZnDhxAidOnMDx48dx7NgxHD16lCsmVKZQoUJYvnw5WrdurYnnHRFZvwcPHojU1FTZMSzuiYVajzt9P3r0CImJifD29pYdhYgIABAaGqrs2rVLtGrVSneX4ahZVlYW9u7di7179/7t8/7+/qJSpUp46aWXEBgYiNKlS6NMmTIoVaqU6q7Jzs7OFlevXkVCQgIuX76MS5cu4c8Srcfr36yNj48P1qxZg9q1a6vqeUVE+qbH2WkAf+uPfxXq4sWLy84lxbVr11ioiUhVQkJClD179ojWrVvj6NGjsuPQM1y5cgVXrlzB2rVr//Z5GxsblChRQpQpUwalS5dGiRIl4OXl9ddHkSJF/vqvp6dngQpScnKySExMRGJiIpKSkv76SExMxM2bN3H58mUkJCTgxo0byMvLk/0joxcQHByMDRs2IDAwkGWaiFRFr4X68e78V6H28/OTnUuKa9euoXr16rJjEBH9TbFixZQdO3aIDh06YNOmTbLj0HPKy8vD1atXcfXqVWzfvv2/vlw4OjrCyckJAODu7g6DwQA7Ozu4uLgAANLS0pCbm4u8vDz8ubTu4cOHXJKtA3Xq1MGaNWt4D3UiUiW9rnDy9/f/69cs1Dp9V4WI1M/V1VVZt26diIyMxPz582XHITN69OgRHj16BOD3DdKIAODVV1/FkiVL4OzszDJNRKqk1y71eHc2/PmLUqVKyc4lhV6fBERkHezs7JR58+YpkydPhsFgKPhfSERWYciQIVi5ciXLNBGpml5nqJ9YqL28vBRnZ2fZ2SxOr08CIrIuQ4cOVdauXQt3d3fZUYjIjBwcHDBv3jxMmTJFMRgMLNNEpGp6nJx0d3eHm5vbX8fnv013lCxZUnY+i7t06ZLsCERE+dKqVStl586dKF26tOwoRGQGRYoUwW+//YYePXqwSBORVYiPj5cdweL+ubL7b4Vaj9dRX7hwQXYEIqJ8q1SpkrJv3z40bNhQdhQiMqGqVavi4MGDaNSoEcs0EVmFzMxMcfPmTdkxLO6fnflvhVqP11EnJyfj/v37QnYOIqL88vHxUTZv3owRI0ZAUXjuTWTt3nrrLcTFxcHf358vaCKyGvHx8TAajbJjWNwzC7UeZ6gB4OLFi7IjEBE9F1tbW2XixInKqlWreF01kZVycHDA5MmTsWjRIoWbjxGRtdHjcm+AhfqJWKiJyFq9+uqryr59+1ChQgXZUYjoOZQsWRLbtm3D0KFDWaSJyCrptUPxGuon0OuTgYi0oVy5csqePXvQuXNn2VGIKB9atmyJw4cPo27duizTRGS1OEP9OxZq6PfJQETa4ebmpixdulRZsGABChUqJDsOET2Bra0txowZg3Xr1sHb25tlmoisml4nJZ85Q12qVCldbnDDnb6JSCu6deumHDx4EFWqVJEdhYge4+/vj+3bt2Ps2LG8vzQRaYIeJyUNBgNKlCjx9889/hsXFxelaNGisnNanB6fDESkXeXLl1f27NmDfv36yY5CRAA6d+6MY8eOoV69eizSRKQJOTk54urVq7JjWJyfnx8cHBz+diw3/POLAgMDZee0uLt37yIlJYW3ziIizXByclK+//57ZcOGDShevLjsOES65O7ujlmzZmHp0qWKu7s7yzQRacbly5eRm5srO4bFBQUF/etzhvx8kR5w2TcRaVHLli2VU6dO4c0335QdhUhXwsLCcOLECURGRrJIE5Hm6LU7PWnymTPUfzh9+rTsCEREZuHh4aEsXrxYWb58OQoXLiw7DpGmOTk5YeLEifjtt9/g5+fHMk1EmnTq1CnZEaTgDPUzsFATkdZFREQox44dQ6tWrWRHIdKk0NBQHD16FCNGjODGY0SkaXrtTizUz6DXd1mISF9KliyprF+/Xlm+fDm8vb1lxyHSBGdnZ0ycOBHbt29H2bJlWaSJSPP02p2e1JUVIf6+F9eDBw+Ep6en7KwWFxAQgPj4eA6CRKQbycnJYuTIkYiOjpYdhchqtWrVCjNnzkSpUqV4DkFEuiCEEG5ubkhPT5cdxaIURUFaWhoKFSr0t+P9vwo1ABQpUkQkJSXJzmxRBoMBqamp//oBERFp3bp160SXLl10NzASFYSdnR1++OEHdOvWjecNRKQrCQkJokyZMrJjWFzx4sVx48aNfx3zDU/6Yj0u+zYajTh37pzsGEREFnPr1i0RFRUlhgwZwjJN9JxycnIwYsQIjBw5UsTHx/PWm0SkG7x++u9YqB+j12sBiEg/jEajiI2NFZ06dRL+/v4YOXIkLl26JDsWkVW6ffs2oqKiULZsWTRv3lzExMSI7Oxslmsi0jS9dqandWTb5/lirdPruy1EpH03b94UixYtwsyZM5GQkCA7DpGmGI1GxMbGIjY2Fp6enoiIiBBDhgxBxYoVuRyciDRHr53pabeX5gz1Y/T6bgsRaVNubq5YvXq1CA8PF6VKlcLIkSNZponMLDk5GdHR0ahUqRLCwsLEsmXLOGtNRJqi10L9tI78xE3JDh06JGrWrCk7s8Vxp28i0oK0tDQxd+5cfPvtt7hy5YrsOES65+Pjg/79+2PQoEEoUqQIzzOIyGoJIYS7uzvS0tJkR7G4EydO4KWXXvrXMfyJhfrhw4fC1dUVRqNRdm6LUhQFycnJcHd352BHRFbn0qVLIjo6GrNmzcKDBw9kxyGif3BwcECnTp3w4YcfPvGkjIhI7S5evCiCg4Nlx7A4W1tbpKenw8HBIX+7fDs7Oyv+/v6yc1ucEALHjx+XHYOI6LkcOnRIdOvWTZQrVw5RUVEs00QqlZWVhUWLFqFSpUqoX7++WLNmjRBPmtkgIlKpI0eOyI4gRXBw8BPLNPCUQg0AFStWlJ1bisOHD8uOQET0n3JyckRMTIx4+eWXRc2aNbFo0SLk5ubKjkVE+RQXF4d27dqhXLlymDJlinj48CGLNRGpnl4LdYUKFZ76/wwv8oe0TK9PEiKyDmlpaeLLL78UpUuXRqdOnbB3717ZkYioAC5cuIBhw4ahdOnSGDdunEhOTmaxJiLV0mtXetZkMwv1P+j1SUJE6paWliaioqJE6dKlMWLECNy8eVN2JCIyoXv37mHs2LEoVaoUhg4dKm7fvs1iTUSqc/ToUdkRpHhWN1aedunOgQMHRO3atWVntzhbW1ukpaXB0dGRm4UQkXRJSUli2rRpmDp1KpKTk2XHISILKVSoEHr37o0RI0agePHiPCchIulu3bolihcvLjuGFMePH0elSpWe7xrqkJAQKIr+jt+5ubk4efKk7BhEpHP37t0TY8eOFYGBgRg3bhzLNJHOZGRkYOrUqShTpgz69u0rrl27xhlrIpJKr7PTtra2KFu27FP//1MLtYuLiy53+ga47JuI5Llz544YOXKk+ON6SqSkpMiOREQSZWdnIzo6GkFBQejWrZu4cOECizURSaHXjhQUFPTUHb6BZxRqgNdRExFZyu3bt8WgQYOEv78/oqKi8PDhQ9mRiEhFsrOzsWjRIlSsWBHvvPMOZ6yJyOL02pH+qxOzUD8Bb51FRJaSnp4uoqKiRLly5TB9+nRkZWXJjkREKpaTk4M5c+YgKCgIffv2FXfv3mWxJiKL0Guh/q/bSRsK8oe16vjx48jJyeEARURmk52dLaKjo0VQUBBGjhyJ1NRU2ZGIyIr8uRQ8MDAQI0eOFGlpaTxvISKzefDggbh06ZLsGFIUaIa6atWqsvNLkZmZiePHj8uOQUQaZDQaRUxMjAgJCUHfvn1x584d2ZGIyIqlp6cjKioKgYGBiIqKEtnZ2SzWRGRy+/btw9PuDqV11apVe+b//88ZagcHB9mPQYp9+/bJjkBEGhMbGytq1KiBTp06Qa/v8hKRedy7dw8jR45EpUqVEBMTI4Rez3yJyCz27t0rO4IUhQoVQnBw8DO/5pmF2s7OTtHrsm8WaiIylf3794uGDRuK5s2b6/aWE0RkGefPn0enTp1Qt25d7Nixg6WaiExCr92oSpUqMBgMz7yXtOG//pL/muLWKr2+C0NEpnP79m3Rt29f8fLLL2Pnzp2y4xCRjuzfvx+NGjVC27ZtRUJCAos1Eb0wIYTYv3+/7BhS5KcLs1A/xYULF5CYmMgBiIieW05OjpgyZYooV64coqOjYTQaZUciIp1au3YtKlasiLFjx4rMzEye1xDRczt//jySkpJkx5CChboAhBDQ6zsxRPTiYmNjRdWqVTFs2DDu3E1EqvDw4UOMGzcOZcuWxcKFC1mqiei56HnlrkkKdZUqVWBjYyP7sUih12sFiOj5Xbx4UbRt21Y0b94cp0+flh2HiOhfrl+/ju7du6Np06bixIkTLNZElC967UR2dnb5uo30fxbqQoUKKf+1s5lW6fXJQ0T5l5GRIcaOHSteeuklrF27VnYcIqL/tHXrVlSvXh19+/YVvLyNiP6LXmeoK1SoAAcHB+W/vu4/CzWg32Xf+/btg9Fo5EBDRE/0888/i+DgYIwbNw5ZWVmy4xAR5Vtubi6io6NRoUIFLF68mOc6RPREDx8+FCdOnJAdQ4r8dmAW6md48OABzp07JzsGEanMrVu3RMeOHUVERARu3bolOw4R0Qu7d+8e3n77bTRp0kScP3+exZqI/ubgwYPIzc2VHUOKqlWr5uvr8lWoq1evLvvxSLNr1y7ZEYhIJYQQIjo6WpQvXx4rVqyQHYeIyGS2bduGqlWrYuzYsSInJ4fFmogAQNe3/axRo0a+vi5fhbpq1apQlP9cPq5J27dvlx2BiFTg5MmTol69eujbty937yYiTcrMzMS4ceNQq1YtHDhwgKWaiLBjxw7ZEaQwGAyoXLly/r42P1/k5eWlBAYGyn5cUrBQE+nbo0ePxNixY0WNGjV0uykHEenLsWPHUK9ePQwdOlSkp6ezWBPpVG5urtizZ4/sGFJUqFABbm5u+ZpRts3vX1q3bl1cvHhR9mOzuOvXr+Py5cuiTJky+pyiJ9Kxbdu2icjISFy4cEF2FNIQOzs7uLi4wMnJCY6OjnBzc4ONjQ0KFSoEe3v7f329wWCA0Wj82+eMRiNSUlIAAMnJycjJyUF6ejoyMzPx6NEj2Q+RNCA3NxdTp07FmjVrMHPmTNGiRQueBxHpzKFDh5CWliY7hhR169bN99fmu1DXqVMHixcvlv3YpNi+fTvKlCkjOwYRWUhGRoYYPnw4Zs6cCSE4OUNPV6RIEfj4+MDHxwfFihX769fe3t7w8PCAp6cnPD094eHh8deHjY2N2YtJcnKyePDgAR7/SE5Oxv3793Hr1i3cu3cPd+7c+evX9+7dQ15enuwfJ6nQ5cuX8corr6BXr17i22+/zfeMDRFZP70u9wZ+77759VyFWq927NiBHj16yI5BRBawZ88e0b17d85KE2xtbeHv74+goCD4+/vDz88PpUqVgp+fH/z8/FCyZEk4Ojqqslx4enoqnp6e+f763NxccfPmTVy9ehVXr17F9evXce3aNVy5cgUXL17EpUuXeGs4nZs7dy62bNmCBQsWiIYNG6ryeU9EpsVCnT9KfmdfcnJyhLu7OzIzM2U/PosLCAhAfHw8Bw8iDcvOzhbjxo1DVFQUZ+p0xtfXFxUrVkRISAjKlSuHwMBABAUFoXTp0rCzs+OxH4DRaBTXr1/HxYsX//o4deoUTp8+jStXrnAlh44YDAa89957GD9+vGrfUCKigjMajcLLywsPHjyQHcXiXF1dkZycnO8VZfku1AAQGhoqdu/eLfsxSnH16lX4+flx4CDSoJMnT4pu3brhyJEjsqOQGbm4uKBKlSqoVq0aXnrpJVSoUAEVK1ZE4cKFeWwvgPT0dHHmzJm/CvaRI0dw5MgRJCUlyY5GZvTSSy9h0aJFqFq1Kl8/RBp05MgRoddbJzdr1gyxsbH5Prble8k38PvF2Xot1Dt37kTXrl1lxyAiEzIajeKbb77BqFGjuJGTxri5uaFmzZqoUaMGqlevjmrVqiE4OBgGg4En/ybm4uKi1KpVC7Vq1frb569evSqOHDmCw4cP48iRI9i/fz/u3LkjOy6ZyMmTJ1GnTh2MGTNGjBgxwiJ7AxCR5eh5uffzbEgGPGeh1vN11Nu3b2ehJtKQK1euiB49emDbtm2yo5AJBAQEIDQ0FDVq1ED9+vVRrVo1lmfJSpUqpZQqVQqvvvrqX5+7efOmOHToEOLi4rBr1y4cOnSIb2ZZsezsbHz88cdYvXo1Fi5cKMqWLcvXHJFG6PnWwc/beZ9ryffVq1eFv7+/7McoRXBwMM6fP8+BgkgDFi1aJAYOHKjbW0FYO1tbW9SoUQMNGzZEo0aNUL9+fbi7u/P4bIUePXok9u3bh23btmHHjh3Yu3cvHj58KDsWvYBChQph8uTJeOedd/haJLJyRqNRFC1aFImJibKjSHH79m0ULVo038ey5yrUAFCiRAlx8+ZN2Y9TikuXLoH3oyayXg8fPhSDBg3CvHnzZEeh52AwGFCtWjU0b94cjRs3RmhoKFxcXHgs1qDs7Gxx4MABbNu2DbGxsdi9ezeys7Nlx6Ln0LVrV8ycOROurq58jRJZqQMHDojatWvLjiFFYGAgLl68+FzHr+da8g38PgW+atUq2Y9Vik2bNiEyMlJ2DCJ6AWfPnhWdOnXCiRMnZEehfChatCgaNmyIsLAwhIeHo3jx4jw51wF7e3slNDQUoaGh+Pjjj/Hw4UOxe/duxMbGIjY2FocPH+aO4iq3ZMkSHDx4EMuWLRPcsIzIOm3cuFF2BGme9/ppADBY4ptoxaZNm2RHIKIXMG/ePFGjRg2WaRWzsbFBaGgoJk6ciJMnT+L27dvK8uXLlcjISIVlWr+cnZ2VsLAwZeLEicrBgweVhIQEzJgxA61atYKjo6PsePQU58+fx8svv4yZM2fy3Q8iKxQbGys7gjQvsmfYcy/53rNnj6hXr57sxyqFp6cn7t27x50siaxEenq6GDBgABYtWiQ7Cj2Bq6srWrZsifDwcLRu3RpFihThsZXyLSMjQ2zatAlr167F2rVruYO4SnXq1AmzZ8+Gm5sbX99EViAjI0N4eXkhKytLdhQpjh49iipVqjzX8eq5C3VOTo7w9PRERkaG7Mcrxb59+1C7dm0OCkQqd+bMGdGpUyecPHlSdhR6jIeHB5o3b47w8HB06NABhQoV4vGUCsxoNIrdu3cjJiYGK1aswI0bN2RHosf4+/tj6dKlqFu3Ll/vRCq3bt06ER4eLjuGFJ6enkhMTHzuu4Q895JvOzs7Rc/LvvV8TQGRtZg9e7aoUaMGy7RKeHp6onfv3tiwYQPu3LmD5cuXK926dVNYpslUDAaDUr9+fWXKlCnKtWvXsHv3brz//vvw8/OTHY0AXLlyBY0bN8a0adO4BJxI5fR8iWuDBg1e6Jabz12oAaBhw4ayH680en6SEaldVlaWeOedd0RkZCQyMzNlx9E1BwcHhIeHY8GCBbh+/Tp++OEHpWXLloq9vT1LNJmVoijKyy+/rHz11VdKQkICdu7ciSFDhsDb21t2NF3LysrCkCFD0KVLF/Hw4UMWayKV0vPk4Yt23Ode8g0A27dvF40bN5b9mKWws7NDYmIirwUiUpkbN26I9u3bY//+/bKj6JaiKGjSpAnefvttvP7667w3NKlKVlaW2LBhAxYvXow1a9bwdlwSVatWDatWrYK/vz+PEUQqcuPGDVGyZEnZMaQ5cOAAatas+dzHpRcq1FlZWcLDwwOPHj2S/bilWLNmDcLDwzkIEKlEXFyciIiIwK1bt2RH0aWiRYuic+fOiIyMRMWKFXlsJNVLTk4WMTExmDZtGi8NkcTLywtLly5FWFgYjxlEKjFv3jzRq1cv2TGkcHFxQXJyMmxtbS2z5NvBwUHR682+AeDXX3+VHYGI/hAdHS2aNm3KMm1hBoMBYWFhWL58Oa5evYopU6YoLNNkLTw9PZXIyEjlxIkTysGDBxEZGQknJyfZsXQlKSkJLVu2RFRUFJd/E6mEnpd7169f/4XKNPCChRrQ93XUa9askR2BSPeys7NFZGSk6Nu3L5duWpCvry9GjBiBCxcuYNOmTUpERASviyarVqNGDWXWrFnKzZs3MWvWLFSqVEl2JN3Iy8vDyJEj8eabb/K6aiLJcnNzhZ4nDQvSbV9oyTcAbNq0SbRo0UL2Y5fm+PHjqFSpEk8iiSS4efOm6NixI/bs2SM7ii4YDAY0bdoUkZGReO2112BnZ8djH2naoUOHRHR0NBYvXoyHDx/KjqMLvK6aSK6tW7eKpk2byo4hTVxcHOrVq2fZGerQ0FDY29vLfuzSrF27VnYEIl3au3evqFWrFsu0Bbi4uGDo0KG4ePHiX7PRLNOkB3/OWl+7dg1ffPEFfH19ZUfSvCNHjqBOnTrYtWsXZ6qJJFi3bp3sCNI4OTmhZs2aL/znX7hQOzs7K9WrV5f9+KVhoSayvBUrVoimTZvi5s2bsqNoWtGiRTFmzBhcuXIFkydPVsqUKcMSTbpUuHBh5aOPPlKuXLmCBQsWoGLFirIjadqdO3fQrFkzLFq0iKWayML03G1efvllFOTytRcu1ACg11tnAcC+ffuQmJjIAz6RhUyZMkV06tSJ95c2o+DgYEyePBkJCQkYO3asUrhwYRZpIgD29vZKt27dlBMnTmDTpk0IDw+XHUmzsrOz0b17d4wdO1aIF70ukYiey8WLF8W5c+dkx5CmoJ22QIU6LCxM9uOXJi8vD+vXr5cdg0jz8vLyxMCBA8WwYcNgNBplx9Gk0NBQrF69GufOncPQoUMVR0dHFmmiJ1AURQkLC1PWrFmjHDlyBG+//TZsbW1lx9IcIQTGjRuHXr16IScnh6WayMz0vuFy8+bNC/TnX3hTMuD3XXYLFy6MjIwM2T8HKTp16oRly5bxxJPITNLT08Ubb7yh62VI5mIwGNC6dWt88sknqFOnDo9jRC8oISFBzJw5EzNnzkRKSorsOJrTrFkz/Pzzz/Dw8OBxishMwsLCxObNm2XHkMLDwwOJiYmwsbGRs+Tb3t5eqV+/vuyfgzS//vorsrOz+c4pkRncuHFDNGjQgGXaxGxsbNCjRw9cvHgRa9asUVimiQqmdOnSysSJE5X4+HiMHDkShQoVkh1JUzZv3owGDRrg6tWrPN8iMoPU1FSxc+dO2TGkadasWYHKNFDAQg0UfIrcmqWmpkLPT0Aiczl58qSoV68ejh49KjuKZiiKgoiICJw6dQrz5s3jRmNEJubl5aVMmDBBSUhIwIgRI+Dk5CQ7kmacPHkSderUwcGDB1mqiUzst99+Q3Z2tuwY0piiyxa4UOv5XtQArzkgMrXY2FhRv359XL16VXYUzQgLC8OhQ4ewfPlypVy5cizSRGZUpEgRZeLEicr58+cxZMgQODg4yI6kCbdv30bjxo2xZs0almoiE9L7SkBT7AlWoGuoAUAIIUqUKIFbt27J/nlIUbJkSVy9ehWKovAklaiAFi9eLHr27Inc3FzZUTShZcuWGD9+PGrWrMnjE5Ekly9fFp9++ikWLVqEvLw82XGsno2NDWbPno2ePXvyuEZUQDk5OaJo0aJITk6WHUWKMmXK4NKlSwU+lhR4hvqPHS9l/zykuX79Og4cOCA7BpHV+/7770X37t1Zpk0gNDQUW7duxYYNGxSWaSK5ypQpo8ybN0+5cOECIiMjYWNjIzuSVcvLy0Pv3r3x1VdfcaaaqIBiY2N1W6YB4JVXXjHJ31PgQg3o+zpqAFixYoXsCERW7bPPPhMDBgzgbbEKqEaNGoiNjcWuXbuUxo0bs0gTqUiZMmWUWbNmKUeOHEGbNm1kx7FqQggMHz4co0ePZqkmKgC9dxhTddgCL/kGgNu3b4vixYvDFH+XNTLVcgEivRFCiA8//BBfffWV7ChWzcvLC6NGjcKgQYMKvFMlEVnG5s2bxbBhw3Dy5EnZUazagAEDMG3aNBgMBh77iJ5DXl6eKFasGO7duyc7ihQ2Nja4d+8ePD095S/5BgBfX1/lpZdekv1zkeby5cs4evSoPt9NIHpBeXl5IjIykmW6AOzs7DBkyBDEx8dj6NChCss0kfVo1qyZcuTIEcyaNQtFihSRHcdqzZgxA2+//TZycnJ4Hkb0HLZv367bMg0AtWrVMkmZBkxUqAEu+9b7kgmi55GdnS3eeOMN/PDDD7KjWK2wsDAcPXoUU6ZMUdzd3VmkiayQra2tEhkZqZw7dw5Dhgzh9dUvaMmSJWjfvj0yMzNZqonyaeXKlbIjSGXK7mqyQt2qVSspPwy1iImJkR2ByCpkZGSIdu3a8TXzgsqWLYu1a9di06ZNSoUKFVikiTSgcOHCypQpU5QTJ06YbJMcvVm7di1atWqF1NRUlmqi/2A0GoXeC3Xr1q1N9neZ5Bpq4Pdt1729vZGSkiLr5yLdqVOnwBNcoqd78OCBaN26Nfbs2SM7itXx9PTEmDFjMGDAANjZ2fE4Q6RhP//8sxg+fDgSEhJkR7E6tWvXxq+//mqypZxEWrRr1y7RoEED2TGk8fb2xu3bt02294LJZqjt7OwULvvmsm+ip0lJSRGvvPIKy/RzUhQF77zzDs6fP4+hQ4cqLNNE2texY0fl9OnTGDduHBwcHGTHsSr79+9H8+bN8eDBA85UEz2F3jtLmzZtTLqRockKNQCEh4db/ieiIj///LPsCESqlJqaKlq2bIn9+/fLjmJVAgICsHHjRsyePVspUqQIizSRjjg5OSmjR49WTp48iSZNmsiOY1UOHTqEpk2b4v79+yzVRP8ghND9cm9T37rQpIW6devWut5Q4/jx4zh58iQP3kSPycjIEG3btsXevXtlR7Eatra2GDJkCI4fP46wsDAWaSIdCwoKUjZv3oxZs2bB1dVVdhyrceTIETRv3pylmugfdu7ciatXr8qOIY2dnZ3JN9M2aaH29vZWateubdEfitr89NNPsiMQqUZGRoZo3bo1duzYITuK1ahUqRLi4uIwZcoUpVChQizTRARFUZTIyEjl7NmzeO2112THsRqHDx9G8+bNkZyczFJN9Ae9d5VGjRrB1HdHMWmhBrjs+8cff4Qw1U5vRFYsIyNDtGnThmU6n+zs7DBixAgcPHgQtWvXZpEmon8pXry4smrVKmX58uXw9vaWHccqsFQT/X85OTlC75eomqOrslCb2JUrV7jpEuleRkaGCA8Px/bt22VHsQr16tXDsWPHMHHiRMXe3p5lmoieKSIiQjl37hwiIyNlR7EKhw4dQps2bXhLLdK93377DYmJibJjSGXq66cBMxTqypUrK6VLl7bEz0O1lixZIjsCkTTp6emiVatW2LZtm+woqufq6orvvvsOO3fuREhICIs0EeWbp6enMmvWLGXNmjUoWbKk7Diqt2fPHrRq1QppaWks1aRbeu8oISEhCAoKMvn5lskLNWDaG2Vbo+XLlyMnJ4cHbNKdzMxMER4ejp07d8qOonovv/wyjh49ioEDByqmvHUDEelLeHi4cuLECXTu3Fl2FNXbvXs3WrVqhYcPH/IcjXQnIyNDrFmzRnYMqcy1ktoshVrvy77v3buH2NhY2TGILCovL0+89dZbXOb9H2xsbDBixAhs374dAQEBLNJEVGAeHh7K0qVLleXLl8PDw0N2HFWLi4vDq6++iqysLJZq0pX//e9/SE9Plx1DKnMs9wbMVKibNGkCFxcXs/5A1E7vSypIX4QQok+fPtD7fQ3/S6lSpbBlyxZMnDhRsbOzY5kmIpOKiIhQjhw5gtDQUNlRVC02NhZdu3ZFXl4eSzXpht539/b09DTbsdEshdrR0VHR+7LvVatWISMjgwdq0oUPPvgA8+bNkx1D1Tp27IijR4+iYcOGLNJEZDalS5dWtm3bhjFjxsDGxkZ2HNVauXIlBg8eLDsGkUXcv39fbNq0SXYMqV599VXY2tqa5RzMLIUaANq3b2++n4gVyMjIwP/+9z/ZMYjM7tNPPxXffPON7Biq5erqilmzZiEmJkbx9PRkmSYis7O1tVXGjh2r7Ny5EwEBAbLjqNb333+PMWPGcPKDNO+nn35Cdna27BhSmbObKua6ZXJ6errw8fFBZmam2cKrXVhYGDZt2sQTaNKs77//XgwYMEB2DNWqVasWlixZYpYdJYmI8iMlJUUMGDCAl6I9w9dff4333nuPx2nSrJo1a4pDhw7JjiGNq6sr7t69C0dHR+uaoXZxcVFatGhhvp+MFdi8eTMuXbrEdz5Jk3766ScxaNAg2TFUyWAw4JNPPsHu3btZpolIKnd3d+XHH39U5syZg0KFCsmOo0rDhw/H4sWLeb5GmnTy5Eldl2kAaNu2rdnKNGDGQg0AHTp0MOdfr3pCCCxevFh2DCKTi42NFT179oTRaJQdRXXc3NywcuVKjB8/XjHXtTpERM+rV69eysGDBxESEiI7iuoYjUb06NEDK1euZKkmzZkzZ47sCNKZu5Oabck3ADx48EAULVpU12v2S5cujfj4ePA+s6QVe/fuFc2aNcPDhw9lR1GdKlWqYOXKlbwdFhGp1oMHD8Rbb72FdevWyY6iOk5OToiNjUW9evV4DCdNyM7OFiVLlsS9e/dkR5HG2dkZd+/eRaFChaxzhtrDw0Np1qyZOb+F6iUkJPC+vKQZCQkJ4rXXXmOZfoI33ngDcXFxLNNEpGoeHh7KmjVrMHHiRBgMZj0NtDqZmZlo164dLly4wJlq0oS1a9fqukwDQOvWrc1apgEzF2qAy74B8HZCpAmpqamiXbt2uHPnjuwoqmJra4uJEydiyZIlirkP2EREpqAoijJixAhlzZo18PT0lB1HVZKSktC2bVskJyezVJPVYwexTBc165JvAEhKShK+vr7Izc01+4NRKycnJ9y8eRMeHh482SarlJOTI1q3bo3Y2FjZUVSlSJEiWLp0KZo1a8bXNhFZpYsXL4r27dvjxIkTsqOoSsOGDbFx40Y4ODjw+E5W6c6dO8LPzw85OTmyo0jj4OCAu3fvws3NzbpnqL28vJSGDRua+9uoWmZmJmJiYmTHIHphQ4YMYZn+h+rVq+PgwYMs00Rk1YKCgpTdu3ejU6dOsqOoyo4dO9C3b1/ZMYhe2IIFC3RdpgHglVdeMXuZBixQqAEu+wa45IKs14QJE8TMmTNlx1CVt99+G7t27YK/vz/LNBFZPRcXF2XZsmXKrFmzYGdnJzuOaixYsACff/45l36TVZo/f77sCNK1b9/eIt/H7Eu+AeDu3buiRIkSul72DQDHjx9HpUqVeAJOViMmJkZ07twZljhOWAMbGxtMmTIFAwcO5OuYiDTpt99+E506dUJqaqrsKKqgKAqWLFmCLl268LhPVmPXrl2iQYMGsmNI5eDggNu3b1vkkluLzFD7+PjofrdvAJg1a5bsCET5dvDgQdGjRw+W6T8UKlQIq1atYpkmIk175ZVXlLi4OJQqVUp2FFUQQqBnz57YvXs3B0OyGt9//73sCNK1adPGYvtXWex+CW+88YalvpVqLVy4EGlpaTwgk+pdvnxZtGnThrfH+oOvry+2bduGtm3bskwTkea99NJLSlxcHCpXriw7iio8evQIr776KuLj43kOR6qXmJgoVq5cKTuGdJbsnhYr1O3bt4eTk5PFHpgapaWl4aeffpIdg+iZMjMzRceOHXH37l3ZUVQhKCgIO3fuRM2aNVmmiUg3SpYsqcTFxaF169ayo6hCYmIiwsPDkZqaylJNqjZ37lw8evRIdgyp3Nzc0KZNG4t9P4sValdXVyU8PNxiD0ytZsyYITsC0TP169cPhw8flh1DFerVq4c9e/YgKCiIZZqIdMfFxUX55Zdf0K9fP9lRVOHs2bPo3r07BK+FIpUSQogffvhBdgzpOnToACcnJ4udu1msUANA165dLfntVOnYsWPYu3cvD8SkSl9//bVYuHCh7BiqEBERgc2bN6NIkSIs00SkW7a2tsr333+vTJ48GYrCw+H//vc/TJo0SXYMoifauHEjLly4IDuGdJa+1Ngiu3z/KTs7WxQrVgz379+36INUm+7du2P+/PkclUhVtm7dKlq0aKH73fiB3++7/e2338JgMPB1SkT0h5iYGNGtWzfdLyc1GAxYt24dWrZsyTGCVOX1118X//vf/2THkMrHxwc3btyAra2tNmeo7e3tFUvdD0zNli9fjqSkJM5Sk2pcvXpVdO7cWfdl2tbWFtHR0ZgyZYrCMk1E9HcRERHKunXr4OHhITuKVEajEW+99RYSEhJ4LkeqcfPmTbFu3TrZMaR74403LFqmAQsXaoDLvgEgMzMTCxYskB2DCADw6NEj0bFjR9y7d092FKns7e2xbNky9OnTh0WaiOgpmjZtqmzduhXe3t6yo0iVlJSE1157DQ8fPmSpJlWIjo5GTk6O7BjSybizlEWXfAOA0WgUpUqVwo0bNyz+YNUkODgY586dg8ILkkiy3r17i7lz58qOIZWDgwOWL1+Odu3a8fVIRJQPZ8+eFWFhYbo/n+vatSt+/PFHjh0kVW5urihdurTuX4+BgYG4cOGCxfuVxWeoDQaD0qVLF0t/W9W5cOEC1q9fLzsG6dx3332n+zJdqFAhrF27lmWaiOg5lC9fXtm5cycCAgJkR5FqyZIlmDJlCmepSaqYmBjdl2kAePPNN6VMVlp8hhoAjh49KqpVq2bx76s2zZs3x8aNG3kST1Ls3r1bNG7cWNfLg9zd3bF+/XrUq1ePr0Miohdw5coVERYWhosXL8qOIo2dnR02b96MBg0acCwhKV5++WWxd+9e2TGkO3v2LMqVK6ePQg0A1apVE0ePHpXyvdXk2LFjqFy5Mg/AZFEPHjwQ1apVQ0JCguwo0nh6emLDhg2oU6cOX39ERAVw+/Zt0aJFC5w4cUJ2FGlKliyJI0eO8FaLZHF79uwR9erVkx1DutDQUOzatUvK68/iS77/1LNnT1nfWlW+++472RFIh/r166frMu3j44Nt27axTBMRmYCvr6+ybds21KpVS3YUaa5fv47u3btDyJqpIt2aPHmy7AiqILNbSpuhTkpKEiVKlEBWVpa0B68GDg4OuHr1Knx8fHhiTxYxffp0MWjQINkxpPH19UVsbCwqVqzI1xwRkQk9ePBAtG7dGnv27JEdRZrJkydj6NChHF/IIq5fvy4CAgJ0ffke8Pt+OLdu3YKrq6u+Zqi9vLyUtm3byvr2qpGVlYXZs2fLjkE6cfLkSTF8+HDZMaTx9/fHzp07WaaJiMzAw8ND2bRpE5o2bSo7ijTDhw/Hvn37OEtNFjF16lTdl2kAiIiIkFamAYkz1ACwfv160aZNG2nfXy2KFy+Oy5cvw97enif5ZDYZGRmiVq1aOHPmjOwoUpQqVQo7d+5EqVKl+DojIjKjjIwM0bJlS+zatUt2FCmCg4Nx6NAhqSf4pH0PHz4Ufn5+uH//vuwo0m3fvh0NGzaU9nqTNkMNAC1btoSfn5/MCKpw8+ZNxMTEyI5BGjd48GDdlmkfHx/89ttvLNNERBZQqFAhZd26dahZs6bsKFJcuHAB77zzjuwYpHHz5s1jmQZQpkwZNGjQQGoGqYXaYDAob775ptQfgFp8++23siOQhi1fvlzMmzdPdgwpPDw88Ouvv6J8+fIs00REFuLm5qZs2LABFStWlB1FiuXLl2P+/Plc+k1mIYQQ3Nj4d7169ZJy7+nHSV3yDQDnz58X5cuXh+wcarBjxw7ew5BMLj4+XlSvXh2pqamyo1icm5sbYmNjUatWLb6uiIgkuHPnjmjUqBHOnTsnO4rFFSpUCAcOHEBISAjHIDKpNWvWiHbt2smOIZ3BYEBCQgL8/PykvsakzlADQNmyZRXeO+13UVFRsiOQxuTm5oo33nhDl2Xa2dkZa9asYZkmIpKoaNGiyoYNG1CyZEnZUSwuIyMDb7zxBrKysjhrRCbFzvC75s2bSy/TgAoKNcB7Uv9p3bp1OHLkCA+6ZDKfffYZDhw4IDuGxdnZ2WH58uVSN6ggIqLflSlTRtmyZQt8fX1lR7G4Y8eOYdy4cbJjkIbs3LlTxMXFyY6hCmrpkNKXfANAWlqaKFGiBNLS0mRHke7NN9/E4sWLWQKowI4cOSLq1Kmju9sp2NjY4Mcff0Tnzp35OiIiUpHjx4+LJk2a6G4jJYPBgO3bt6N+/focl6jA2rZtK9auXSs7hnReXl64fv06HB0dpb+uVDFD7erqqnTt2lV2DFVYunQp4uPj5b/LQVYtKytLdO/eXXdlWlEUzJo1i2WaiEiFKleurKxfvx4uLi6yo1iU0WhEjx49kJ6ezvM7KpATJ06IdevWyY6hCj169FBFmQZUUqgBYMCAAbIjqEJeXh4mT54sOwZZudGjR+PEiROyY1jctGnT0Lt3b1UcXImI6N/q1Kmj/O9//4ODg4PsKBYVHx+PTz75RHYMsnJffvklN3LG7xMokZGRsmP8/zxq+kepV6+e2LNnj+wY0jk6OuLy5cvw9fVlMaDntmfPHtGgQQPk5eXJjmJRI0aMwMSJE/maISKyAsuWLRNvvPGGrsqBwWBAbGwsmjRpwrGKntu1a9dEYGCg7lYfPklYWBg2bdqkmteRamaoAaBfv36yI6jCo0ePMH36dNkxyAo9fPhQdO/eXXdlukOHDvjiiy9kxyAionzq3LmzMnbsWNkxLMpoNKJXr15ITU3Vz7sIZDKTJk1imf6D2jqjqmaos7KyhJ+fH+7duyc7inSenp64cuUKXF1dVfPuC6nfoEGDhN7ejKlZsya2b98OZ2dnvlaIiKyIEEL07NkTCxYskB3Fovr06YPo6GiOWZRvSUlJwt/fHxkZGbKjSFesWDFcuXIFdnZ2qnkNqWqG2sHBQenevbvsGKqQnJyM6Oho2THIimzevFnMmDFDdgyLKl26NNauXcsyTURkhRRFUWbPno1mzZrJjmJRs2fPxvr169Uzo0WqN3XqVJbpP7zzzjuqKtOAymaoASA+Pl6ULVsWRqNRdhTpfH19ER8fz7JA/yktLU289NJLuHr1quwoFuPp6Ym4uDiEhITw9UFEZMWSk5NFvXr1cPbsWdlRLKZ48eI4deoUPDw8OIbRM6WkpIgyZcogOTlZdhTpbGxsEB8fD39/f1W9blQ1Qw0AgYGBit7eqXya27dvc5aa8uWTTz7RVZm2s7PD8uXLWaaJiDTA09NTWb9+PYoWLSo7isXcvHkTH330kewYZAUmT57MMv2H8PBw1ZVpQIUz1ACwcuVK0aFDB9kxVMHX1xeXLl2Ck5OT6p48pA4HDx4UdevW1dVGZDNnzkTfvn35miAi0pADBw6Ixo0b4+HDh7KjWITBYMCOHTsQGhrK8YyeiLPTf7dhwwa0bNlSda8X1c1QA0C7du1QokQJ2TFUgbPU9Cx5eXmib9++uirTo0aNYpkmItKgWrVqKQsWLIDBoMrTU5MzGo3o168fcnJy1De7RaowZcoUluk/lClTBi1atJAd44lUecSytbVV+vTpIzuGanz55Zd49OgRD7b0L1OmTMHhw4dlx7CYLl26YNy4cbJjEBGRmXTs2FH5/PPPZcewmJMnT+Krr76SHYNUKCUlRUyePFl2DNXo168fDAaDKidUVLnkGwDu3r0r/P398ejRI9lRVGHq1KkYPHiwKp9EJMfVq1dFxYoVkZ6eLjuKRVSqVAl79+7lJn1ERBonhBBdunTB8uXLZUexCCcnJ5w4cQKBgYEc3+gv48ePF6NHj5YdQxWcnZ1x9epVeHl5qfI1osoZagDw8fFRunTpIjuGakyYMAGZmZnqfPeDpBg8eLBuyrSHhwdWrlzJMk1EpAOKoihz5sxBhQoVZEexiMzMTAwYMEB2DFKR1NRUzk4/pkePHqot04CKCzUAvPfee1AU1f7sLOrWrVuYM2eO7BikEitWrBCrV6+WHcMiFEXB3LlzERQUxIMBEZFOuLi4KKtWrYKbm5vsKBaxceNGLFmyhBMnBOD3lan379+XHUMVFEXBoEGDZMd4dka1Lvn+U5MmTcS2bdtkx1CFEiVK4OLFi3B0dGSx0LHU1FRRoUIF3LhxQ3YUixg1ahQ+/fRTPueJiHTol19+Ea+//jrUfr5qCkWKFMGZM2dQpEgRjnk6lpqaKsqUKcNC/YdWrVph/fr1qn5NqHqGGgCGDh0qO4Jq3LhxAzNnzpQdgyT7+OOPdVOmW7RogbFjx8qOQUREkrz66qvKe++9JzuGRSQmJvLe1IRvv/2WZfoxw4YNkx3hP6l+htpoNIqyZcsiPj5edhRVKFKkCOLj4+Hm5qbqd2rIPI4dOyZq1Kihi9tklSpVCocOHeI79UREOpebmyvCwsKwfft22VHMTlEU7N27F7Vr1+bYp0OJiYkiMDAQqampsqOoQoUKFXDy5EkoKr8GWPUz1AaDQVH7unlLSkxMBDcp0K9hw4bpokw7OjpixYoVLNNERARbW1tl2bJlKFGihOwoZieEwNChQyHUPuNFZjFhwgSW6ccMGzZM9WUasIIZagBIS0sTfn5+SElJkR1FFVxcXBAfHw8fHx/VP8HIdH7++WcREREhO4ZF/PDDD+jduzef30RE9Je9e/eKRo0aITs7W3YUs/vxxx/RtWtXjoM6cvPmTREUFITMzEzZUVShcOHCuHbtmlXc4UX1M9QA4OrqqvTs2VN2DNVIT09HVFSU7BhkQVlZWUIv11X16dOHZZqIiP6lbt26yldffSU7hkV8+OGHyMjIUP+sF5nMmDFjWKYf079/f6so04CVzFADQEJCgggKCtLFctf8cHR0xPnz5+Hn52cVTzQqmC+++EJ8/PHHsmOYXYUKFXDw4EE4OTnxeU1ERE/UuXNnsXz5ctkxzG706NEYN24cx0MduHDhgqhQoQJyc3NlR1EFOzs7XLp0CSVLlrSK579VzFADQOnSpZV27drJjqEajx49wqeffio7BlnAnTt3hB5WJDg4OGDJkiUs00RE9EwzZ86En5+f7BhmN2nSJFy5csU6Zr6oQEaNGsUy/ZhOnTpZTZkGrKhQA+CtBP5h3rx5OHPmDA+0Gvfhhx/qYoOKzz//HFWqVLGagycREcnh6empzJkzB1awV1GBZGZmYuTIkbJjkJkdP35cxMTEyI6hGoqi4IMPPpAd47lYVaGuVauW0rhxY9kxVCMvLw9jxoyRHYPM6NChQ2Lx4sWyY5hdw4YN8e6778qOQUREVqJ58+bK0KFDZccwu6VLl2LHjh2cPNGwESNGwGg0yo6hGm3atEHVqlWt6t0yq7mG+k+//vqraNWqlewYqsH7FWqXEEI0bNgQu3btkh3FrDw8PHDs2DGUKlWKz2EiIsq3rKwsUadOHRw7dkx2FLOqVq0aDh48CIPBwHFSY7Zu3SqaNm0qO4aq7NixAw0aNLCq57pVzVADQMuWLZXq1avLjqEaQggMGzaM9yvUoKVLl2q+TANAdHQ0yzQRET03BwcHZdGiRXB0dJQdxayOHDmChQsXyo5BJmY0GsXw4cNlx1CVOnXqWF2ZBqywUAOwunX15rZnzx6sXLlSdgwyoZycHDFq1CjZMcyue/fuiIiIsLoDJxERqUOlSpWUCRMmyI5hdmPGjEFWVhYnTzRkwYIFOHTokOwYqmKtd7SxuiXfAJCXlyfKly+Pixcvyo6iGgEBATh9+jQcHBxYTjRg5syZon///rJjmFWZMmVw9OhRuLm58TlLREQvTAghwsPDsX79etlRzGry5MkYOnQox0wNyMzMFOXKlcO1a9dkR1GNkJAQnDx50iovbbDKGWobGxvlvffekx1DVS5duoQZM2bIjkEm8OjRI/H555/LjmFWBoMB8+bNY5kmIqICUxRFmT17Nry8vGRHMavPPvsMaWlp1jcTRv8SFRXFMv0PI0eOtMoyDVhpoQaAnj17olixYrJjqMr48eORlJTEA62VmzZtGq5fvy47hln93//9Hxo1amSVB00iIlKf4sWLK9HR0bJjmFViYiK+/fZb2TGogG7evCm++uor2TFUxc/PD126dJEd44VZbaF2dHRUBg0aJDuGqiQnJ+Ozzz6THYMKICUlRURFRcmOYVbly5fHJ598IjsGERFpTPv27ZWOHTvKjmFW33zzDSdPrNwnn3yCjIwM2TFU5YMPPoC9vb3VTrRY5TXUf0pNTRWlSpVCSkqK7CiqYWdnh1OnTiE4ONhqn5R6Nnr0aDF+/HjZMczGYDBgx44dCA0N5fOTiIhM7vbt26JChQpITk6WHcVshg8fji+//JLjqBU6duyYqF69Ou87/ZjChQvjypUrcHFxsdrntNXOUAOAm5ubovWNm55XTk4ORo4cKTsGvYDExEQxefJk2THMqn///izTRERkNr6+vorWV3r9cWmY9c6I6dj777/PMv0Pw4YNs+oyDVj5DDXwewkpU6YM0tPTZUdRla1bt6Jx48ZW/eTUm3fffVfThbp48eI4deoUPDw8+LwkIiKzEUKIsLAwbNmyRXYUs+nbty9mzpzJ8dSK/PLLL+K1116THUNVPD09cfnyZbi7u1v1c9mqZ6gBoEiRIsqAAQNkx1CdQYMGIScnx7rfLdGRGzduiFmzZsmOYVYzZsxgmSYiIrNTFEX5/vvv4ejoKDuK2cyZMwfnzp3jeZ6VyMrKEsOHD5cdQ3Xeffddqy/TgAYKNfD7tSQuLi6yY6jKqVOneBstKzJu3DhkZmbKjmE2ERERePXVV63+gElERNahbNmyipY3wMzNzYWW91zRmqioKFy4cEF2DFVxd3fH4MGDZccwCatf8v2nDz/8UEyaNEl2DFVxc3PD2bNnUaxYMRYZFbt+/boIDAxEdna27Chm4e7ujlOnTqFEiRJ8HhIRkcXk5uaKWrVq4ejRo7KjmIWNjQ3OnDnDjWhV7tq1ayIkJIQ7e//D2LFjMWbMGE08dzUxQw0AH374IWep/yE1NZW3J7ICkyZN0myZBoCvvvqKZZqIiCzO1tZWmTVrFmxsbGRHMYu8vDxwMkn93n33XZbpf3B3d8eQIUNkxzAZzRTqIkWKKH379pUdQ3XmzZuHvXv3amMZggYlJSWJOXPmyI5hNo0aNULv3r1lxyAiIp2qXbu2pu8IM3/+fFy9epXneSq1efNmsWLFCtkxVGfYsGHw9PTUzGSLZpZ8A9zx+2mqV6+OAwcOwGAwaOaJqxUff/yx+OKLL2THMAtHR0ccO3YMZcuW5fOOiIikSUtLExUrVsS1a9dkRzGLYcOG4dtvv+VYqzK5ubmievXqOHHihOwoquLu7o7Lly9rqlBrZoYa+H2WOjIyUnYM1Tl8+DC0PAtqrVJTU4WWN4577733WKaJiEg6V1dXTd+bOjo6Gvfu3dPODJlGTJ06lWX6CbQ2Ow1obIYaAO7cuSMCAgLw8OFD2VFUpXDhwjh//jy8vLw09QS2Zp9//rnQ6jXuRYsWxfnz5+Hm5sbnGxERSSeEEA0bNsSuXbtkRzGLjz/+GJ999hnHXJW4c+eOKFeuHFJSUmRHURU3NzckJCRorlBraoYaAIoWLcprqZ/g/v37+Pjjj2XHoD88fPhQTJkyRXYMs/niiy9YpomISDUURVGmTJkCg0Fzp74AgGnTpuHBgwfamiWzYu+//z7L9BNocXYa0GChBoD/+7//g6urq+wYqjN79mzExcXxYKsCs2bNwr1792THMIuqVauiR48esmMQERH9TfXq1ZU333xTdgyzSE1NhZYvI7Mm27ZtE0uWLJEdQ3U8PT0xbNgw2THMQpOFukiRIopW/8EKwmg0ol+/fsjJyWGplignJ0dMnjxZdgyzmTx5MjfAIyIiVZowYQIKFSokO4ZZfPPNN0hPT+c5nkRZWVmiX79+0Noltabw0UcfaXJ2GtBooQaA4cOHw8fHR3YM1Tl58iS+/vpr2TF0bcGCBbh69arsGGbRoUMHNGrUSJMHSyIisn4lSpRQRowYITuGWSQlJWHu3LmyY+ja+PHjce7cOdkxVKd48eIYOHCg7Bhmo7lNyR739ddfiw8++EB2DNVxcnLCiRMnEBgYyOIjQZUqVcTx48dlxzA5e3t7nDp1CkFBQXxeERGRamVmZoqQkBBcuXJFdhSTCwwMxPnz57lSTIJz586JKlWqICsrS3YU1Zk1axYiIyM1+5zU7Aw1AAwcOBB+fn6yY6hOZmampt8lUrPNmzdrskwDv2/AwTJNRERq5+TkpEyYMEF2DLOIj4/HunXrZMfQHSGE6N+/P8v0EwQHB6Nnz56yY5iVpgu1o6OjMmrUKNkxVOm3337D0qVLtbs8QaW0urO3j48PRo4cKTsGERFRvnTp0gX169eXHcMstHquoWY//PADtm7dKjuGKn366aews7PT9ISLppd8A0BeXp6oVKkSzpw5IzuK6hQtWhRnzpzR7AYBapOQkCCCgoKQl5cnO4rJzZkzB7169eLziIiIrMbhw4dFrVq1YDQaZUcxuWPHjqFy5cocly0gMTFRhISEIDExUXYU1alUqRKOHj2q+UsQND1DDQA2NjbKmDFjZMdQpTt37uCjjz6SHUM3pk6dqskyXbFiRd4mi4iIrE716tWViIgI2THMYvr06bIj6MawYcNYpp9iwoQJmi/TgA5mqIHfr2uoWbMmDh8+LDuK6iiKgo0bNyIsLEzzT3aZ0tLShJ+fH1JSUmRHMbnly5cjIiKCzx8iIrI658+fFxUqVNDcG95OTk64du0avLy8OD6b0fr160WbNm1kx1Cl+vXrY+fOnbp4/ml+hhoAFEVRPv/8c9kxVEkIgcjISN630Mzmz5+vyTL90ksvoUOHDrJjEBERvZCyZcsqXbp0kR3D5DIzM/HDDz/IjqFpqampol+/frJjqNZnn30mO4LF6KJQA0DLli2VJk2ayI6hSpcvXwY3bzMfIYSYMWOG7BhmMX78eF0s5SEiIu0aO3YsbG1tZccwuWnTpiEnJ4cTJmbywQcf4Nq1a7JjqFJ4eDgaNWqkm/ND3RRqAPjmm29gMOjqIefb1KlTsXPnTh50zWDDhg04e/as7BgmV716dbz66quyYxARERVIUFCQ8tZbb8mOYXI3btzA//73P9kxNGnLli2CKwCezNbWFhMnTpQdw6J01S6rVq2qvP3227JjqJLRaMQ777yDzMxMlmoTmzZtmuwIZjFu3DgoiqKbdx+JiEi7Ro0aBTs7O9kxTI630DK9jIwMERkZCT3sQ/Ui+vXrh4oVK+rq/FBXhRoAPv/8cxQqVEh2DFU6f/48xo4dKzuGpiQkJIiNGzfKjmFyNWvWBDfhICIirQgICFC0eMeKuLg4nDp1is3PhEaMGIH4+HjZMVTJw8MDery7ku4KdYkSJZT33ntPdgzV+uqrr7B7924eeE1k3rx5mry/5WeffcbZaSIi0pRPPvkEDg4OsmOY3Ny5c2VH0Izdu3eL77//XnYM1fr4449RpEgR3Z0f6uK2Wf+Unp4uypYti1u3bsmOokrly5fHkSNH4OjoqLsXhCkZjUYREBCAK1euyI5iUvXq1UNcXByfG0REpDkDBgzQXGHy8vLCjRs34ODgwLG7AB4+fCiqVq2KCxcuyI6iSmXKlMGZM2d0+TzT3Qw1ALi4uCiffvqp7BiqdfbsWYwfP152DKu3ceNGzZVpAHxuEBGRZn3yySdwcnKSHcOkkpKSsHr1atkxrN4nn3zCMv0MEydO1GWZBnRaqAGgV69eqFatmuwYqjVx4kTs2LFDf8sXTEiLS6waNWqEpk2b6vJgSURE2le8eHGlT58+smOY3Jw5c2RHsGo7d+4U3ODt6erWrYuIiAjZMaTR5ZLvP23ZskU0a9ZMdgzVCggIwNGjR+Hq6soC9ZySkpJEiRIlkJWVJTuKSW3YsAEtW7bk84GIiDTr+vXrIiAgADk5ObKjmIzBYMClS5fg7+/PMfw5paSkiCpVqmhy1aEpKIqCnTt3IjQ0VLfPLd3OUANA06ZNlVatWsmOoVqXLl3CBx98IDuGVVqwYIHmynS5cuXwyiuvyI5BRERkViVLllQ6dOggO4ZJGY1GzJ8/X3YMqzRo0CCW6Wfo3Lmzrss0oPMZagA4deqUqFq1KnJzc2VHUSVFUbBmzRq0adNG1y+U51WlShVx/Phx2TFM6ocffkDv3r35PCAiIs07dOiQqFmzpuwYJuXn54fLly/DxsaGY3k+xcTEiE6dOsmOoVqOjo44c+YMSpcurevnlK5nqAGgYsWKyoABA2THUC0hBHr27Ik7d+7o+52X57B3717NlWkfHx+8+eabsmMQERFZRI0aNZSGDRvKjmFS165dw+bNm2XHsBo3b94U/fv3lx1D1T788EPdl2mAhRrA77sWFytWTHYM1bp37x769u0rO4bV0OLGH4MGDeJt1IiISFfef/992RFMTovnKOYghBB9+vRBUlKS7Ciq5efnhw8//FB2DFXQ/ZLvP82dO1f07t1bdgxVmzdvHnr06MFS9QyZmZnC19cXqampsqOYjJOTE65cuQJvb2/+2xMRkW4YjUYREhKC8+fPy45iMg4ODrh16xY8PT05pj/Dd999JwYPHiw7hqqtWLEC7du35/MInKH+S48ePVCnTh3ZMVRt6NChSEhI4Dswz7Bu3TpNlWkA6N69O8s0ERHpjsFgUN59913ZMUwqKysLK1eulB1D1c6dOydGjBghO4aqhYWFsUw/hoX6DwaDQZk+fToMBv5IniY1NRWdO3dGTk4OS/VTLFu2THYEk1IUBUOGDJEdg4iISIru3bujSJEismOYlNbOVUwpJydHdO/eHQ8fPpQdRbVsbW3xzTffyI6hKmyPj6lRo4bSq1cv2TFUbf/+/fj0009lx1CltLQ0sW7dOtkxTCo8PBwhISF8B5KIiHTJyclJ0drGVFu2bOFms0/x4YcfYt++fbJjqNrQoUNRqVIlnhs+htdQ/0NSUpIoV64cNyF4BoPBgI0bN6JZs2Z8MT1m8eLF4u2335Ydw6S2bduGRo0a8d+ZiIh06+7du8Lf3x+PHj2SHcVkpk2bhkGDBnF8f8yvv/4qWrduDXajpytatCjOnTsHd3d3Pncewxnqf/Dy8lLGjh0rO4aqGY1GdO/eHYmJiTziPGb58uWyI5hUtWrVWKaJiEj3fHx8FK3dOnLp0qWyI6jKnTt3RM+ePVmm/8OkSZNYpp+AhfoJ+vfvjypVqsiOoWo3btxAt27dIHjkAQAkJyeL3377TXYMk+rXr5/sCERERKqgtduH7t69mxvN/sFoNIq33noLt2/flh1F1V5++WW89dZbsmOoEgv1E9jY2CjTpk2DovANmGfZsGEDpk6dKjuGKqxYsQLZ2dmyY5hMoUKF0KVLF9kxiIiIVKFWrVpK1apVZccwGSEEYmJiZMdQhaioKMTGxsqOoWo2Njb47rvvoLAcPREL9VM0aNBA6d69u+wYqjdixAgcOXJE9+9wam3HzC5dusDNzY0HTSIioj/07t1bdgST4rJvYP/+/WLMmDGyY6jeoEGDUL16dZ4XPgU3JXuGpKQkERISgnv37smOompBQUE4fPgwXF1ddflCu3fvnihevDhyc3NlRzGZ3bt34+WXX9blvycREdGTpKSkiOLFi2vqlkqnT5/W7d08UlJSRLVq1XD58mXZUVStWLFiOHPmDK+dfgbOUD+Dl5eXMmnSJNkxVO/ixYsYOHCg7BjSxMTEaKpMV6xYkWWaiIjoH9zd3ZX27dvLjmFSel32LYQQvXv3ZpnOh+nTp7NM/wcW6v/QrVs3NGvWTHYM1Vu0aBGio6N1udxh5cqVsiOY1DvvvCM7AhERkSppbdn3qlWrZEeQ4ttvv8WKFStkx1C91q1b4/XXX2eZ/g9c8p0PFy5cEJUrV9bU/QfNwcHBAXFxcahRo4ZuXngpKSnCx8dHMxuS2dvb4/r16/D29tbNvyEREdHzCAkJEWfPnpUdw2QuX76M0qVL62bc37t3r2jUqJFmzt3MxdnZGadOndLVc+NFcYY6H4KDg5WRI0fKjqF6WVlZ6NChA5KSknTzLs2vv/6qqQNyhw4dWKaJiIieoUePHrIjmNT69etlR7CYu3fvio4dO2rq3M1cPvvsM5bpfGKhzqePPvoIISEhsmOo3pUrV9C9e3fd3J96zZo1siOYlNaWshEREZlajx49YGdnJzuGyWjtXOZpjEajePvtt3Hjxg3ZUVSvcuXKGDx4sOwYVoOFOp/s7e2VmTNn8t7U+bBu3TpERUXJjmF2eXl54tdff5Udw2TKlCmDJk2ayI5BRESkakWLFlXCw8NlxzCZrVu3Ii0tTfMTIaNHj8bGjRtlx1A9g8GAWbNmwdbWlqUnn1ion0PDhg0VrS3zMZePP/4YmzZt0vTBedeuXUhKSpIdw2TeeecdGAwGHjyJiIj+g5Y28MzKytJ80Vy/fr2YMGGC7BhWYfDgwahbty7PB58DC/VzmjRpEry9vWXHUD2j0Yhu3brh1q1bmi3Vq1evlh3BZBRFwZtvvik7BhERkVV45ZVX4OvrKzuGyWh52feVK1dEt27dYDQaZUdRvZIlS2L8+PGyY1gdFurn5OXlpUydOlV2DKtw+/ZtdO7cGTk5OZos1WvXrpUdwWQaNmwIf39/vhtJRESUDzY2NkqnTp1kxzCZtWvXIi8vT3Pna48ePRIRERGaWlFoTjNnzoSrqyvPB58TC/UL6NKli9K+fXvZMazCzp07MWzYMNkxTO7s2bPi/PnzsmOYzBtvvCE7AhERkVXR0tiZlJSEvXv3yo5hcoMGDcKBAwdkx7AK3bp1Q5s2bVimXwAL9QuaPn06ChcuLDuGVZgxYwZmz56tqXc9tbQ0ys7ODh07dpQdg4iIyKrUrVtXCQoKkh3DZLR0bgMAU6ZMEXPmzJEdwyr4+vri22+/lR3DarFQvyBfX1+FT7z8GzhwIHbu3KmZUq2l5d4tWrSAl5cX35EkIiJ6Tlpa9q2lQr1r1y7x4Ycfyo5hNf6YKOS54AtioS6Abt26Ka+++qrsGFYhJycHnTp1wvXr162+VKenp4s9e/bIjmEyWlqyRkREZElaGkNPnz6NGzduWP152tWrV0X79u2RnZ0tO4pV6NKlC9q3b88yXQAs1AU0Y8YMeHp6yo5hFW7fvo1XX30VmZmZVn2w3rlzJ3JycmTHMAkHBwe0bdtWdgwiIiKr9NJLLynly5eXHcNktmzZIjtCgWRmZooOHTrg3r17sqNYhSJFimDKlCmyY1g9FuoCKl68uPLll1/KjmE1Dh8+jL59+8qOUSDWPtg8rnnz5nBzc+O7kkRERC9ISxvVWvs5Tu/evXHw4EHZMazGd999Bx8fH54HFhALtQn07t0br7zyiuwYVmPRokX47rvvrHaWevPmzbIjmIyWTgKIiIhk0NJYumnTJtkRXtiXX34pfvrpJ9kxrEbbtm3RuXNnlmkTUISw2l6jKgkJCaJSpUpIT0+XHcUq2NnZ4bfffkOTJk2s6oV8//594e3tDaPRKDtKgdnY2OD27dsoUqSIVf0bEBERqU1gYKC4dOmS7Bgmcf78eQQHB1vVucFvv/0m2rRpg7y8PNlRrIKnpydOnTqFYsWKWdW/s1pxhtpESpcurURFRcmOYTVycnLQsWNHnD9/3qre0dm6dasmyjQANG7cmGWaiIjIBF577TXZEUzG2lbinTp1SnTu3Jll+jlMnjyZZdqEWKhNqH///mjVqpXsGFbj/v37aNWqFRITE62mVFv7tUWP4w71REREpvH666/LjmAy1lSoExMTxWuvvYaUlBTZUazGa6+9hm7durFMmxCXfJvYzZs3ReXKlZGUlCQ7itVo0KABNm3aBAcHB9W/uMuXLy/OnTsnO4ZJXLx4EYGBgar/mRMREaldXl6eKFq0qCbO/7y8vHD37l0YDAZVnyM8evRINGvWDLt375YdxWr4+PjgxIkT3IjMxDhDbWLFixdXoqOjZcewKjt37kS/fv1kx/hPN2/e1EyZDg4OZpkmIiIyERsbG6Vly5ayY5hEUlISjh8/LjvGMwkhRJ8+fVimn9PcuXNZps2AhdoM2rdvr3Tt2lV2DKsyf/58TJo0SdXLJWJjY2VHMBmtDPpERERq0aZNG9kRTEbty74//fRTLF68WHYMq9KvXz+0adOGZdoMWKjNZMaMGShVqpTsGFZl5MiR+N///qfaUr1161bZEUyGt3kjIiIyrVdeeQW2trayY5iEmgt1TEyMGDdunOwYViUgIABffvml7BiaxUJtJu7u7srcuXNhMPBHnF9GoxFdu3bF/v37VVmq4+LiZEcwCQcHBzRu3Fh2DCIiIk0pXLiwUq9ePdkxTGLPnj0wGo2qOx87ePCg6NGjB7gHVP7Z2trixx9/hKurK2enzYRtz4yaNWumDB48WHYMq5KZmYn27dvj2rVrqjpSJiUliYsXL8qOYRINGzZEoUKFeFAlIiIyMa3c7eXBgwc4e/as7Bh/c+nSJREeHo6HDx/KjmJVPvroI9StW5fnfWbEQm1mUVFRqFSpkuwYVuXGjRto2bIl7t+/r5pSvXfvXs28G8rrp4mIiMyjefPmsiOYzN69e2VH+EtSUpJo3bo17ty5IzuKValevTpGjRolO4bmsVCbmYODg7JgwQLY29vLjmJVTp8+jddeew2PHj1SRYtV06BSUFp595yIiEhtqlWrBm9vb9kxTEIt5z6ZmZmiXbt20MqdVizF0dERCxcuhJ2dHWenzYyF2gKqVaumjB07VnYMq7Nz505069ZNFdfwqGVQKSg/Pz+EhITwwEpERGQGBoNBadKkiewYJqGGc5+8vDzRpUsX3h7rBXz11VeoWLEiz/ksgIXaQkaMGIGwsDDZMaxOTEwMBg0aJDWD0WgUBw4ckP2jMInWrVvLjkBERKRpWjnfO3XqFFJTU6VOagwbNgyrV6+W/aOwOm3atMGAAQNkx9ANFmoLMRgMyuLFi+Hr6ys7itX5/vvv8dVXX0k7oJ8+fRopKSmyfwwmweuniYiIzKtFixayI5iE0WiEzAmF8ePHi++++072j8HqlCxZEgsWLICiKJydthAWagsqWrSoMm/ePPD5/fw+/PBDLFq0SEqp3r9/v+yHbxI2NjbQyjI0IiIitfL391cCAwNlxzAJWcu+f/zxRzFmzBjZD9/qGAwGLFiwAF5eXiwbFsRCbWEtW7ZUhg0bJjuG1RFCoE+fPti6davFS/WePXtkP3yTqFKlCtzd3XmAJSIiMrMGDRrIjmASMgr1b7/9Jnr27KmZu6tY0qhRo9C0aVOe61kYC7UEUVFRqFOnjuwYVicrKwuvvfYaDh48aNEjrBo25TCFhg0byo5ARESkC1op1Hv27IGwYLPdt2+f6NixI3JycmQ/dKvToEED3iJLEhZqCezs7JQff/wRbm5usqNYndTUVLRq1QpnzpyxyME9LS1NnDlzRvbDNgmtDO5ERERq16hRI9kRTCIpKQkXL160yPc6efKkaN26NdLT02U/bKvj6emJRYsWwcbGhrPTErBQSxIYGKhER0fLjmGVEhMT0bx5cyQkJJi9VB89ehR5eXmyH3KBKYqC+vXry45BRESkC4GBgUrx4sVlxzCJw4cPm/17xMfHixYtWuD+/fuyH65Vmjt3Lvz9/VmmJWGhlqhz587K22+/LTuGVbpx4waaN2+O27dvm7VUHz9+XPZDNYmQkBD4+PjwQEtERGQhWrnU6sSJE2b9+2/evCmaN2+OW7duyX6oVmngwIF47bXXeI4nEQu1ZNOnT0dwcLDsGFbp4sWLaNWqFVJSUsxWqk+ePCn7YZpEaGio7AhERES6opWVYeacXLh//7545ZVXcPnyZdkP0ypVrlwZX331lewYusdCLZmrq6uyYsUKODs7y45ilY4ePYqWLVsiIyPDLKVaKzPUdevWlR2BiIhIV7SyAa25zoUePnwo2rVrp5nJC0tzcXHB0qVL4ejoyNlpyVioVaBSpUq8nroA9u7di9deew1ZWVkmLdVCCKGVg7xWBnUiIiJrUaVKFU1MmFy9ehUPHjww6TlWdna2aN++PeLi4mQ/PKukKArmzZuHkJAQlmkVYKFWiTfffFPp1auX7BhWKzY2Ft27d0deXp7JDvgJCQlITU2V/dAKzNXVFeXLl5cdg4iISFfs7OyUatWqyY5RYEIIk15HnZubK7p06YLffvtN9kOzWsOGDUPHjh1ZplWChVpFpk+fjurVq8uOYbWWLVuGrl27mqxUm3sTDkupXbs2b6NAREQkgVYuuTLVsu+8vDzRvXt3rFq1SvZDslp169bFxIkTZcegx7BQq4ijo6OycuVKFC5cWHYUq7V8+XK88847MBqNBS7VWrl+msu9iYiI5NDKGGyKSQaj0Sh69uyJJUuWyH44VsvHxwc///wz7O3tOVGiIizUKuPv76/Mnz8fisLXyYuaP38++vTpAyFEgUq1Vq6frlmzpuwIREREulSrVi3ZEUzi2LFjBfrzQggxYMAALFq0SPZDsVoGgwGLFi1CiRIlWBJUhoVahdq2bat88MEHsmNYtblz52Lo0KEFKtUFHTzUgpcREBERyeHv76+JlYcnTpx44dV/QggxaNAgzJo1S/bDsGqffvopWrRowTKtQizUKvXFF1+gYcOGsmNYtWnTpuG99957oT+blZUlLl68KPshFJinpydKlSolOwYREZEuKYqiVKlSRXaMAsvIyHjhe0WPGDECM2bMkP0QrFrr1q3x0UcfyY5BT8FCrVK2trbK8uXLUaxYMdlRrNrkyZPx/vvvP/c7qufOnUNubq7s+AVWtWpVKLx+gIiISJqqVavKjmASp06deu4/89FHH4lJkybJjm7VSpUqhQULFsBgMPB8TqVYqFWsaNGiyk8//QQ7OzvZUazaN998g9GjRz9XqdbC7DTA5d5ERESyaaVQP++50f/93/8J7kZdME5OTli5ciWKFCnCMq1iLNQq16hRI+Wbb76RHcPqjR8/HiNHjsx3qdZKodbC/S+JiIismVbG4vj4+Hx/7ejRo8WECRNkR7Z606dPR40aNVimVY6F2goMGjRI6dOnj+wYVi8qKgrDhw/PV6m+dOmS7LgmUalSJdkRiIiIdK18+fKwt7eXHaPA8jPZIIQQ7733nhg/frzsuFbvvffeQ8+ePVmmrQALtZWYPn06GjRoIDuG1fvqq6/Qv39/8V+7f2thhtrW1hblypWTHYOIiEjX7OzslODgYNkxCuy/ZqiFEGLYsGH49ttvZUe1es2aNUNUVJTsGJRPLNRWws7OTlm+fDlKlCghO4rVmzlzJvr16/fM2z9ooVAHBgbCwcGB72wSERFJVqFCBdkRCuzKlSvIycl54rnTn7fGmjp1quyYVs/f3x9Lly6Fra0tz+GsBAu1FfH19VV+/vlnODg4yI5i9aKjoxEZGfnEUp2dnS2uX78uO2KBaWHwJiIi0gItjMm5ubm4cuXKvz6fl5cnevXqxVtjmQA3IbNOLNRWpm7dukp0dLTsGJowZ84cvPXWW8jNzf1bqb58+TLy8vJkxyswLQzeREREWqCVMfmfK/jy8vJEz549MX/+fNnRrJ6iKJg3bx6qV6/OMm1lWKitULdu3ZQBAwbIjqEJP/30E958882/LWF6nl0s1SwkJER2BCIiIoI2C3VOTo7o3LkzFi1aJDuWJnz00Ufo3Lkzy7QVYqG2UpMnT0ajRo1kx9CE5cuXo0OHDsjMzBSAdgp1+fLlZUcgIiIiAGXLloWNjY3sGAX25zlSVlaW6Ny5M1asWCE7kia0aNECn376qewY9IJYqK3Un5uU+fv7y46iCWvWrEF4eDjS0tKEFjYkA4CgoCDZEYiIiAiAvb294ufnJztGgcXHxyMlJUU0b94cq1atkh1HE8qXL49ly5bBxsaGs9NWioXaivn4+Cjr16+Hu7u77CiasGXLFjRp0gRnz56VHaXAvL294e7uzgMzERGRSmjhje6zZ8+iSZMm2Llzp+womuDl5YXVq1fDw8OD52xWjIXaylWoUEFZtmwZbG1tZUfRhEOHDmHHjh2yYxSYFgZtIiIiLQkMDJQdocDi4+Nx5MgR2TE0wc7ODjExMQgODmaZtnIs1BrwyiuvKF9//bXsGJrx6NEj2REKTAuDNhERkZZoYWw2Go2yI2jG9OnT0aRJE5ZpDWCh1oghQ4YoAwcOlB2DVEILgzYREZGWcPUY/enjjz9Gnz59WKY1goVaQ6ZMmYLw8HDZMUgFWKiJiIjUhWMzAUCHDh24o7fGsFBriI2NjbJkyRJUqlRJdhSSjLu/ExERqUupUqVkRyDJatSogQULFsBgMHB2WkNYqDXG1dVVWb16NYoWLSo7CklUsmRJ2RGIiIjoMR4eHoqbm5vsGCRJ8eLF8csvv6BQoUIs0xrDQq1BpUuXVtasWQMnJyfZUUgCRVFQokQJ2TGIiIjoH/iGtz65uLhg/fr1KFGiBMu0BrFQa1StWrWUuXPnQlH4utUbHx8fODg48B+eiIhIZfz8/GRHIAuztbXFsmXLUKVKFZ6baRQLtYZ16dJF+fLLL2XHIAvjYE1ERKROHKP1Z8qUKWjdujXLtIaxUGvcBx98oAwbNkx2DLIgLvcmIiJSJxZqfRk7diwGDBjAMq1xLNQ68PXXXyMiIkJ2DLKQ4sWLy45ARERET+Dr6ys7AllI7969MWbMGJZpHWCh1gGDwaAsXrwYzZo1kx2FLMDb21t2BCIiInoC3oVFH1q3bo2ZM2fKjkEWwkKtE/b29sqKFStQuXJl2VHIzPjuNxERkTr5+PjIjkBmVrNmTSxbtgy2tracndYJFmodcXd3V9avX8/rdzSOgzUREZE6cYzWtoCAAKxduxYuLi4s0zrCQq0zJUqUUDZs2AAPDw/ZUchMuJyMiIhInViotatIkSLYsGEDihYtyjKtMyzUOlSxYkVl1apVcHBwkB2FzICDNRERkTq5uroqzs7OsmOQiTk5OWH16tUoW7Ysy7QOsVDrVOPGjZWFCxfCxsZGdhQysSJFisiOQERERE/h5eUlOwKZkL29PVasWIGXX36ZZVqnWKh1rFOnTsqMGTOgKHz9a4WiKHBzc5Mdg4iIiJ6Cl91ph8FgwMKFC9GqVSueTOsYC7XORUZGKt9++63sGGQirq6u3FWSiIhIxViotUFRFMyYMQOdO3fmeZfOsVAThg4dqowcOVJ2DDIBDtJERETqxrFaGyZMmIC+ffuyTBMLNf3uiy++QN++fWXHoALiIE1ERKRuHKut39ChQzFixAiWaQLAQk1/UBRFmTFjBrp06SI7ChUAB2kiIiJ18/T0lB2BCqBHjx7g5ZL0OBZq+ovBYFAWLlyINm3ayI5CL8jV1VV2BCIiInoGbh5qvV5//XX88MMPULijLz2GhZr+xs7OTlm+fDnq168vOwq9AN7bkoiISN04Vlunli1bYunSpbCxsWGZpr9hoaZ/cXZ2VtauXYtq1arJjkLPiYM0ERGRujk6OsqOQM+pfv36WLFiBezt7Vmm6V9YqOmJ3N3dlc2bN6N69eqyo9BzYKEmIiJSN47V1qVOnTpYt24dnJ2dWabpiVio6ak8PT2VX3/9FRUrVpQdhfKJgzQREZG6cay2HlWrVsX69evh5ubGMk1PxUJNz+Tt7a1s2bIFISEhsqNQPnCQJiIiUjeO1dahcuXKiI2NReHChVmm6ZlYqOk/+fj4KJs2bUJgYKDsKPQfeF0WERGRurFQq1/58uWxceNGeHl5sUzTf2KhpnwpUaKEsnXrVgQEBMiOQs9gZ2cnOwIRERE9g62trewI9Axly5bFli1bULRoUZZpyhcWaso3Pz8/JTY2Fn5+frKj0FPY2NjIjkBERETPwLFavYKDg7F161YUK1aMZZryjYWankuZMmWULVu2oESJErKj0BNwkCYiIlI3jtXqVKpUKWzcuBHFixdnmabnwkJNzy0oKEj549072VHoHzhIExERqRuXfKuPn58ftm3bhtKlS7NM03NjoaYXEhwcrGzevJmlWmVYqImIiNSNY7W6lC5dGtu2bUOZMmVYpumFsFDTCwsJCVG2b9+OkiVLyo5CfzAY+JImIiJSMxZq9ShdujS2bNmCgIAAlml6YTz7pgIJDg5Wdu3axd2/VYK3zSIiIlI3jtXqULZsWezcuZMz01RgLNRUYP7+/sof7+7JjqJ7bm5usiMQERHRM7i6usqOoHsVK1bEH6ssWaapwFioyST8/f2VuLg4VKhQQXYUXeO73kREROrGsVquChUqIDY2Fr6+vizTZBIs1GQyvr6+ypYtW/DSSy/JjqJbQ4YMwaFDh4TsHERERPRvBw4cEI0bN5YdQ7eqVauG7du3s0yTSbFQk0kVLVpU2bx5MypXriw7ii5dvHgRdevWxciRI0VOTg6LNRERkQrk5uaKqKgoUb9+fZw7d052HF2qUaMGYmNjUaRIEZZpMilFCJ5zk+klJyeLV155BQcOHJAdRbfq1KmDhQsXomzZshw4iIiIJLl06ZLo1q0b4uLiZEfRrdDQUKxfvx5ubm48JyKT4ww1mYWnp6fy22+/oW7durKj6Na+fftQvXp1zJo1Swi+c0ZERGRRQggxffp0UalSJZZpicLCwvDrr7+yTJPZcIaazCo9PV20b98emzZtkh1F11q2bIno6Gj4+flxMCEiIjKzhIQEERkZyfMfydq3b48lS5bAwcGB5z9kNpyhJrNycXFR1q5di4iICNlRdO3XX39F+fLlERUVJYxGI99FIyIiMgMhhIiOjhaVK1dmmZbsrbfewrJly1imyew4Q00WkZeXJ/r374/Zs2fLjqJ79evXx5w5c3htNRERkQldunRJvPPOO9i6davsKLo3ePBgTJ48GQaDgec6ZHacoSaLsLGxUWbNmoXhw4fLjqJ7u3btQtWqVREVFSXy8vL4jhoREVEBGI3Gv2alWablGzFiBKZOnaqwTJOlcIaaLC4qKkqMHDlSdgwC8PLLL2Pu3LkoX748Bx0iIqLndPHiRdG7d2/s2LFDdhTdUxQF33zzDYYNG8ZzGrIozlCTxY0YMUL5/vvvYTDw6Sfbnj17UL16dUyaNEnk5uby3TUiIqJ8yMnJEV988YV46aWXWKZVwM7ODj/++CPLNEnBGWqSZunSpaJbt27IycmRHYUAVKlSBTNnzkTdunU5GBERET3FoUOHRN++fXHo0CHZUQiAg4MDfvrpJ7z++us8fyEpOEVI0nTp0kVZvXo1XFxcZEchAMeOHUP9+vUxZMgQkZqaynfaiIiIHvPgwQPRv39/Ubt2bZZplShcuDBiY2NZpkkqzlCTdMePHxetW7fGjRs3ZEehPxQrVgwTJ05Et27dOEAREZHurVmzRgwYMADXr1+XHYX+ULp0aaxfvx4hISE8VyGpWKhJFS5fvixat26Ns2fPyo5Cj2nTpg2+++47lC5dmoMVERHpzqVLl8TAgQPx66+/yo5Cj6lUqRLWr1+PkiVL8vyEpOOSb1KFMmXKKHFxcahfv77sKPSYdevWoWLFihg7dqzIzs7mu29ERKQLOTk5YsqUKaJKlSos0yrTrFkz7Nq1i2WaVIMz1KQqDx8+FF27dsUvv/wiOwr9Q5UqVTBt2jQ0aNCAAxgREWnW1q1bxeDBg3Hq1CnZUegfunfvjtmzZ8POzo7nIqQanKEmVXF2dlZWrFiBgQMHyo5C/3Ds2DE0bNgQbdu2FVevXuU7cUREpCk3btwQ3bp1E82aNWOZVqEhQ4Zg3rx5LNOkOpyhJtWaMmWKeO+992A0GmVHoX9wdnbG8OHD8dFHH8HBwYEDGxERWa2cnBwxY8YMjBo1CmlpabLj0D/Y2Nhg2rRp6N+/P883SJVYqEnVFi9eLHr37o3s7GzZUegJgoODMXnyZLRu3ZqDHBERWZ3Y2FgxZMgQnDlzRnYUegJnZ2csXboUbdu25XkGqRYLNaneli1bRMeOHZGcnCw7Cj3Fq6++im+++QYBAQEc8IiISPUuXLgghg0bhvXr18uOQk9RrFgx/PLLL6hVqxbPLUjVWKjJKpw7d060bdsWFy5ckB2FnsLR0REffPABRowYARcXFw5+RESkOqmpqWLChAn49ttvkZWVJTsOPUXVqlWxevVq+Pn58XyCVI+FmqzG/fv3RceOHbF161bZUegZihQpgk8++QSDBg2CjY0NB0IiIpLOaDSKxYsXY8SIEbh9+7bsOPQMLVu2xLJly+Dm5sZzCLIK3OWbrEbhwoWVjRs3on///rKj0DMkJiZi2LBhqFSpEtatW8d37IiISKrY2FhRrVo1dO/enWVa5YYMGYK1a9eyTJNV4Qw1WSXuAG49wsLC8PXXXwUl+SkAABxgSURBVKNy5cocHImIyGLOnDkjhg8fjnXr1smOQv/B1tYWkydPxsCBA3muQFaHhZqs1oYNG0SXLl2QmpoqOwr9B4PBgDfffBNffvklfH19OVgSEZHZJCYmivHjx2P69OnIy8uTHYf+g6enJ2JiYtCsWTOeH5BVYqEmq3bkyBHRrl07XL9+XXYUygdXV1eMGDECw4YNQ6FChThwEhGRyaSnp4tvvvkGkyZNQnp6uuw4lA9BQUFYu3YtypUrx3MCslos1GT1bt68KV599VUcPHhQdhTKJ19fX3z88ceIjIyEvb09B1EiInphWVlZYubMmfjiiy9w9+5d2XEonxo3boyff/4ZXl5ePA8gq8ZNycjqFS9eXNm1axd69uwpOwrl0+3btzF48GAEBwcjOjpa5OXl8Z09IiJ6LkajUcTExIgKFSpg2LBhLNNWJDIyEhs3bmSZJk3gDDVpSnR0tBg0aBBycnJkR6HnEBISgnHjxqFjx45QFIWDKxERPZUQQqxduxaffPIJjh8/LjsOPQcHBwfMmDEDvXr14lhPmsFCTZqzc+dOERERgTt37siOQs+pdu3a+PzzzxEWFsaBloiI/iU2NlZ89NFHvMzLCpUoUQIrVqxAnTp1OMaTpnDJN2lOgwYNlL1796Jq1aqyo9Bz2r9/P5o3b46wsDARFxfHd/uIiAgAsGPHDtG4cWPRvHlzlmkrVL9+fRw8eJBlmjSJhZo0qXTp0sqePXvQvXt32VHoBWzevBn169dH/fr1xZYtW1isiYh0ateuXaJt27aiUaNG2L59u+w49AIiIyOxefNm3jaTNItLvknzoqOjxcCBA5Gbmys7Cr2g0NBQjBs3jveoJCLSiV27domxY8di8+bNsqPQC7K3t8d3332HPn36cOwmTWOhJl3Yvn27iIiIwL1792RHoQIIDQ3FiBEj0LZtWw7OREQaxCKtDcWKFcOKFSvw8ssvc7wmzWOhJt24fPmy6NixIw4fPiw7ChVQw4YNMWbMGDRt2pQDNRGRBmzatEl8+umn2LVrl+woVECNGjXCTz/9hGLFinGMJl3gNdSkG2XKlFHi4uIQGRkpOwoV0I4dO9CsWTOEhoaK1atXC8F3BomIrI7RaBSrVq0SdevWFS1atGCZtnKKouDDDz9EbGwsyzTpCmeoSZd+/PFH0bdvX2RkZMiOQiYQFBSEQYMGoW/fvnB0dOQgTkSkYtnZ2WLp0qWIiorC6dOnZcchE3Bzc8PcuXPRoUMHjsGkOyzUpFtnz54VHTt2xKlTp2RHIRPx9fVF37598e6778Ld3Z2DOhGRiqSnp4s5c+bg66+/xrVr12THIROpVq0aYmJiEBgYyHGXdImFmnQtPT1d9OnTB0uXLpUdhUzIzc0NPXr0wMiRI7nsjIhIsnv37onp06dj2rRpuH//vuw4ZEJvv/02Zs6cCWdnZ461pFss1EQApk6dKoYPH47s7GzZUciEnJ2d0atXLwwdOhRBQUEc7ImILOj8+fNi8uTJmD9/PjIzM2XHIRNydnbG999/j27dunFsJd1joSb6w8GDB0WnTp1w+fJl2VHIxAwGA5o2bYohQ4YgPDwciqLwBICIyEx27dolpk6dipUrVyIvL092HDKxsmXLIiYmBpUrV+ZYSgQWaqK/SUxMFD179sTatWtlRyEzqVy5MoYOHYquXbtyAzMiIhN59OiRWLx4MaZMmYKTJ0/KjkNm8tZbb2HGjBlwdXXl+En0BxZqoidYuHCh6N+/Px4+fCg7CpmJt7c3evXqhUGDBqFkyZI8MSAiegF37twR33//PWbMmIF79+7JjkNm4urqiq+++gqRkZEcL4n+gYWa6CmOHj0q3njjDZw9e1Z2FDIje3t7dO7cGYMHD0atWrV4okBElA/79+8X06ZNw/Lly7n/iMbVqFEDP/30E4KDgzlGEj0BCzXRM2RmZoqRI0di6tSpsqOQBdSoUQORkZHo2rUrXFxceOJARPSYR48eieXLl2PKlCk4fPiw7DhkZoqiYPDgwZg0aRLs7e05JhI9BQs1UT6sWLFC9OnTB8nJybKjkAW4ubmhS5cuGDhwIDddISLdO3v2rJg/fz5mz57N217phLe3N+bNm4c2bdpwDCT6DyzURPl05coV8eabbyIuLk52FLKgP2et3377bTg5OfHEgoh0ISsrS6xevRrR0dHYvHkzeL6oH02bNsWiRYtQvHhxjnlE+cBCTfQccnJyxOjRo/Hll1/CaDTKjkMW5O3tjZ49e6J3794oW7YsTzKISJPOnj0r5syZg/nz5yMxMVF2HLIgOzs7jB8/HsOHD4fBYOA4R5RPLNREL2DLli2iZ8+euHr1quwoJEFoaCh69uyJTp068dYhRGT1UlNTxbJlyzB//nzs3r1bdhySoHz58li4cCE35yR6ASzURC8oNTVVDB8+HNHR0bKjkCSOjo5o27YtIiMj0axZMyiKwhMRIrIahw4dEtHR0ViyZAnS09NlxyEJFEVBnz598M0336BQoUIcw4heAAs1UQGtWLFC9OvXj0vjdM7Pzw9du3ZF3759UaZMGZ6UEJEq3bhxQyxevBizZ89GfHy87Dgkka+vL3744QduPEZUQCzURCZw69Yt0bt3b2zYsEF2FJLMYDCgWbNmePPNN/H666/Dzc2NJypEJFVKSopYuXIlfvzxR2zdupV7gBC6dOmCGTNmwNPTk2MUUQGxUBOZ0MKFC8XAgQO5dI4AAA4ODmjevDkiIiLQsWNHODs788SFiCwiKytLbNy4ETExMVi5ciUyMjJkRyIVcHd3x5dffonIyEiOR0QmwkJNZGKXL18W3bt3x86dO2VHIRVxd3dHu3btEBERgVatWsHW1pYnM0RkUkajUezevRsxMTH48ccfkZSUJDsSqUhYWBjmzZuHkiVLcvwhMiEWaiIzyM3NFRMnTsSnn36KnJwc2XFIZYoVK4bOnTujS5cuqF27NjczI6IXJoQQe/fuxdKlS7Fs2TLcuXNHdiRSGWdnZ0ycOBGDBg3ieENkBizURGZ08uRJ0atXLxw4cEB2FFIpPz8/vP7662jbti0aN27MmWsi+k9/zkSvXbsWP//8MzcXo6cKDQ3FnDlzUK5cOY4tRGbCQk1kZrm5ueLrr7/G2LFj8ejRI9lxSMWKFCmCVq1aISIiAi1btoSdnR1PgIgIAJCXlyf27NmDmJgYxMTE4NatW7IjkYo5Oztj9OjRGD58OAwGA8cSIjNioSaykIsXL4revXtjx44dsqOQFShcuDDatGmDiIgItGjRAg4ODjwhItKZx0s0l3NTfjVs2BBz5sxBUFAQxw0iC2ChJrKgvLw8MWXKFIwaNQoPHz6UHYeshLu7O1q0aIHw8HC0atUK3t7ePEki0qi7d++K9evXY926ddi4cSNSU1NlRyIr4eHhga+//ho9e/bktdJEFsRCTSTBpUuXRJ8+fbBlyxbZUcjKGAwGVKtWDeHh4Wjbti2qV6/OEyciK3fq1Cmxdu1axMbGYtu2bcjNzZUdiaxM69atMXPmTPj5+XE8ILIwFmoiSYQQYvbs2fjggw+QlpYmOw5ZqaJFi6JFixZo27YtWrVqBRcXF55MEalcZmamiIuLw5o1a7Bq1Spcu3ZNdiSyUh4eHoiKiuJ9pYkkYqEmkiwhIUEMGDAAGzZskB2FrJyzszMaNGiA5s2bo3nz5qhUqRJnr4lUQAghjh07hk2bNmHTpk3YtWsXMjMzZcciK9e1a1d8++238PHx4XGeSCIWaiKVWLNmjRg4cCBnKshkvL290bhxY4SFhaFVq1ZcCkhkQXfu3BE7duxAbGws1q1bhxs3bsiORBoREBCAGTNm4JVXXuExnUgFWKiJVCQlJUX83//9H2bOnAmj0Sg7DmnMSy+99NfsdYMGDbg8nMiE0tLSxI4dO/6ahT59+rTsSKQx9vb2GD58OD7++GM4OTnx+E2kEizURCp0+PBh0a9fPxw4cEB2FNIoGxsblCtXDvXr10dYWBiaNm0KLy8vnqAR5VNaWprYt28fYmNjsWvXLhw4cADZ2dmyY5FG1a9fHzNnzkTFihV5nCZSGRZqIpXKzc0V06dPx6hRo7hpGVlEQEAAwsLCEBoaiiZNmnCJONFj7t69K/bt24e4uDjExsbiyJEjXElEZufh4YGxY8di8ODBMBgMPCYTqRALNZHKXblyRQwaNAhr166VHYV0JiQkBKGhoXj55ZdRp04dhISE8ISOdMFoNIrTp09j79692Lt3L+Li4nD27FnZsUhHFEXBW2+9ha+//hre3t487hKpGAs1kZVYuXKlGDZsGDctI2nc3NxQu3Zt1K1bF3Xq1EGdOnV4okeacO/ePbF3717s27cPe/fuxYEDB5Camio7FulU+fLlMX36dDRt2pTHVyIrwEJNZEUyMjLEhAkT8NVXXyErK0t2HCIEBQX9Va6rV6+OKlWqcLMzUrW0tDRx7NgxHD58GPv378fevXsRHx8vOxYR3NzcMGrUKAwdOhR2dnY8jhJZCRZqIisUHx8vPvroI8TExMiOQvQvxYoVQ40aNf76qFmzJooVK8aTQ7K45ORkcerUKRw6dOivj7Nnz/LaZ1IVRVHQsWNHfP3119y7gsgKsVATWbH169eLYcOG4cKFC7KjED1T8eLFUa1aNVStWhVVqlRBhQoVULZsWc7CkElkZ2eL8+fP4/Tp0zh+/DiOHDmCo0eP4ubNm7KjET1T9erVMW3aNNSrV4/HQiIrxUJNZOVycnLEjBkzuBs4WR1bW1uUKlUKFSpUQMWKFf/2X95jlZ4kJydHXLt2DadOncLp06f/9t9Hjx7JjkeUb56enhgzZgwGDRoEGxsbHu+IrBgLNZFG3LhxQwwfPhxLly4FX9dkzWxtbREUFISKFSsiKCgIQUFBCAwMRFBQEEqWLAlFUXjyqWFGo1Fcv34d8fHxuHjxIuLj43HhwgWcOnUK8fHxyM3NlR2R6IXZ2Nigb9++GD9+PAoXLsxjGZEGsFATacz27dvFsGHDcPToUdlRiEzO0dERAQEB/yraAQEB8PPzg4ODA09QrUBWVpa4evUqLl269K/ifOnSJW66SJrUqFEjTJ48GVWrVuVxikhDWKiJNMhoNIoVK1Zg+PDhuHLliuw4RBbj6emJYsWKoXjx4ggICEBAQMDffu/v78/llRaQnJwsLl26hJs3b+LWrVu4dOkSHv99QkICNwYj3QgODsbnn3+OiIgIHnuINIiFmkjDMjIyxNdff40vv/wSGRkZsuMQSWdnZwdfX1/4+vrCx8cH3t7eKFas2F+/9vX1RdGiReHt7Q1vb28YDAaeAOP3N+nu3buHe/fu4c6dO7h9+/a/fn337l3cunULd+7cQU5OjuzIRNJ5eXlh9OjR6N+/PzdgJNIwFmoiHbh165YYNWoU5s+fj7y8PNlxiKyCjY0NPD094eHh8deHp6fnvz7354eLiwucnZ1RqFAh2Nvbw8PDA7a2tnBzc5N6Ip2amipycnKQkpKC7OxsZGRk4OHDh0hPT8eDBw/++khOTn7qr5OTkzmjTJRP9vb2GDx4MD7++GN4enqySBNpHAs1kY4cP35cfPDBB9i0aZPsKES64uDg8Ley7ezsDAcHh799jZ2dHVxcXP72uT/3X/vnWJ2env6vWeBHjx4hMzPzb6WZ1yITWY6iKOjQoQMmTpyIwMBAFmkinWChJtKh2NhY8f777+P48eOyoxAREVm9WrVq4auvvkLDhg1ZpIl0xiA7ABFZXlhYmHL48GFER0ejRIkSsuMQERFZpeDgYCxduhT79u1jmSbSKc5QE+lcdna2mD9/PkaPHo07d+7IjkNERKR6JUqUwPDhw9G/f3/Y29uzSBPpGAs1EQEA0tPTxfTp0zFhwgSkpKTIjkNERKQ6Xl5eGD58OIYMGQInJycWaSJioSaiv0tKShKTJk3ClClT8OjRI9lxiIiIpCtUqBAGDRqEjz76CO7u7izSRPQXFmoieqLr16+L8ePHY+7cucjNzZUdh4iIyOLs7e3Ro0cPjBs3Dr6+vizSRPQvLNRE9Exnz54Vo0ePxs8//wweL4iISA9sbW3Ro0cPjB49Gn5+fizSRPRULNRElC8nT54UX375JZYsWYK8vDzZcYiIiEzOzs4OXbp0wSeffIKyZcuySBPRf2KhJqLncurUKREVFcViTUREmvFnkR41ahSCg4NZpIko31ioieiFnD59WkycOJHFmoiIrNafRXr06NEICgpikSai58ZCTUQFwmJNRETWhkWaiEyFhZqITOLSpUsiKiqKu4ITEZFq/Vmkx4wZg8DAQBZpIiowFmoiMqnz58+LSZMmYdGiRcjKypIdh4iICC4uLujTpw/effdd7tpNRCbFQk1EZnHnzh3x/fffY8qUKXjw4IHsOEREpENFihTBwIEDMXjwYHh5ebFIE5HJsVATkVmlpaWJuXPnYtKkSbhx44bsOEREpAP+/v5499130adPHzg7O7NIE5HZsFATkUVkZ2eLpUuX4osvvsC5c+dkxyEiIg2qVKkSPvjgA3Tt2hW2trYs0kRkdizURGRRRqNRrFu3Dp999hn2798vOw4REWlAaGgoRowYgfDwcCiKwiJNRBbDQk1E0sTGxorJkydjw4YNMBqNsuMQEZEVsbOzQ4cOHTBs2DDUqVOHJZqIpGChJiLp4uPjxezZszFr1ixuYEZERM/k7u6O7t274/3330epUqVYpIlIKhZqIlKN1NRUMW/ePEyePBkJCQmy4xARkYoEBwdj4MCBeOedd1CoUCEWaSJSBRZqIlKdP6+znjp1KmJjY2XHISIiiXh9NBGpGQs1EanaoUOHxOTJk7F8+XJkZ2fLjkNERBbg7OyMbt26YejQoShfvjxLNBGpFgs1EVmFO3fuiPnz52PWrFm4fPmy7DhERGQGZcuWRa9evfDOO+/Ay8uLRZqIVI+FmoisitFoFFu2bEF0dDRWrVqF3Nxc2ZGIiKgA7O3t8eqrryIyMhLNmjXjsm4isios1ERktW7evCkWLVqEGTNm4OrVq7LjEBHRcyhRogTeeecdDBgwAD4+PizRRGSVWKiJyOrl5eWJrVu3YsqUKVi3bh14XCMiUieDwYCmTZsiMjIS7du3h42NDYs0EVk1Fmoi0pTz58+L2bNnY/Hixbh9+7bsOEREBKB06dLo3r073nnnHZQsWZIlmog0g4WaiDTpz1nr6Oho/PLLL9whnIjIwhwdHdG2bVu8/fbbaN26NWejiUiTWKiJSPOSk5NFTEwMZs6ciSNHjsiOQ0SkaTVq1MDbb7+Nt956izt1E5HmsVATka6cOnVKLFq0CHPmzEFiYqLsOEREmuDr64tOnTqhV69eqFKlCks0EekGCzUR6dKjR4/EL7/8gvnz52PTpk3Iy8uTHYmIyKo4ODigTZs26NGjB1q1agVbW1sWaSLSHRZqItK9+/fvi59//hkLFy7E7t27uUs4EdFTGAwGvPzyy4iIiMCbb76JIkWKsEQTka6xUBMRPebatWti5cqVWLhwIQ4fPiw7DhGRKlSoUAHdunVDt27dUKxYMZZoIqI/sFATET3FqVOnRExMDBYvXoz4+HjZcYiILKp06dLo3LkzevXqhbJly7JEExE9AQs1EdF/EEKIuLg4LFmyBCtXrsSdO3dkRyIiMgt/f3907NgRXbt2RfXq1VmiiYj+Aws1EdFzMBqNYvfu3Vi7di1+/vlnzlwTkdUrXbo02rVrh4iICISGhkJRFBZpIqJ8YqEmIiqAP5eFL126FOfOnZMdh4goXwICAhAeHo6IiAjUr1+fBZqI6AWxUBMRmcif5TomJganT5+WHYeI6G8qVKiAiIgIdOrUCRUqVGCJJiIyARZqIiIzOH36tFi1ahXWrFmDAwcOwGg0yo5ERDpjZ2eH+vXrIzw8HK+//jrKlCnDEk1EZGIs1EREZpaUlCS2bNmCNWvWYPXq1UhJSZEdiYg0ysvLC02bNkV4eDjatWsHDw8PlmgiIjNioSYisqC8vDyxZ88erF27FqtXr8aZM2dkRyIiK/fn9dBt27ZFo0aNYGdnxxJNRGQhLNRERBKdPXtWrF27FuvWrUNcXBxycnJkRyIilXNyckLjxo0RHh6ONm3awN/fnwWaiEgSFmoiIpV4+PCh2L17N2JjYxEbG4vDhw+Dx2giAv4+C12/fn04OjqyRBMRqQALNRGRSt25c0fs2LEDsbGxWLduHW7cuCE7EhFZiK+vLxo0aICwsDCEh4ejePHiLNBERCrEQk1EZCUuXbok/py9/vXXX5GWliY7EhGZSKFChfDyyy8jLCwMYWFhqF69OhRFYYkmIlI5FmoiIiuUm5srjh07htjYWOzatQs7d+7k7uFEVsTFxQV169ZFaGgo6tevj4YNG8Le3p4FmojIyrBQExFpQF5enjh69Ch27dqFuLg4bN68Gffv35cdi4j+4OPjg9q1a6N+/foICwtDtWrVYDAYWKCJiKwcCzURkQbl5eWJ48ePY8eOHdi+fTt27dqFe/fuyY5FpBt+fn5o0KABGjZsiIYNGyIkJITlmYhIg1ioiYh04ubNm+LQoUOIi4vDrl27cOjQITx69Eh2LCKrZ2dnh8qVKyM0NBQ1atRAgwYNUKZMGRZoIiIdYKEmItKpnJwccfz48b/K9aFDh3D69GnZsYhUr1ixYqhfv/5fBbpWrVpwcHBggSYi0iEWaiIi+sutW7fEvn37sH//fhw5cgRHjx7F7du3Zcciksbf3x9Vq1ZFtWrVUKtWLdStWxeFCxdmeSYiIgAs1ERE9B+Sk5PFqVOn/prFPnToEM6ePQuj0Sg7GpHJ2NjYwN/fHxUqVECNGjVQo0YN1KlTBz4+PizPRET0VCzURET03FJSUsSxY8f+msU+duwYzpw5w2uyySq4ubkhJCQEVapUQfXq1VG1alVUqlQJzs7OLM9ERPRcWKiJiMhkbt68KU6fPo1Tp07hz/8eO3YM6enpsqORDrm5uSE4OBgVKlRAxYoV//pv6dKlecsqIiIyCRZqIiIyK6PRKBISEnD69Om/fcTHx/Ne2WQSRYsWRXBwMEJCQhASEvJXeS5ZsiRLMxERmRULNRERSZOcnCwuXbqEJ31cvnwZHKPoT56enggICEBAQMBfM80BAQEIDg6Gm5sbizMREUnBQk1ERKqUnp4uLl68iPj4eMTHx+PatWu4cuUKrl27huvXryMxMVF2RDIRRVHg6+uLkiVLws/PD35+fvD390dgYOBfH46OjizNRESkOizURERklTIzM8WVK1dw/fp1XL9+/W9l+9q1a7h58yYePHggO6buKYoCb29vFC1aFP7+/n8rzaVKlYKfnx9KlCjB+zgTEZFVYqEmIiLNysrKEvfu3cOdO3dw584d/Pnr27dv4969e7h79+5fv7537x5yc3NlR7YK9vb28Pb2ho+PD3x9feHj4/PXr//8fLFixeDt7Q1vb2/Y2tqyLBMRkSaxUBMREf0hLS1NPHjwAI9/JCcn45+f+/MjNTUVWVlZePjwITIyMpCdnY2UlBTV3qPbzs4OLi4ucHJygqOjI1xdXWFrawtPT0+4u7vDw8Pjrw9PT8+//f7xz/P2UkRERL9joSYiIjIxo9EoUlJSkJ2djYyMDGRmZuLRo0dIS0v71yz4kz7359c/7s8S/DgHBwc4Ozv/7XP29vYoVKgQnJ2d4eDgADc3N9ja2sLDw4MlmIiIyMT+H5UdWZpGKVhRAAAAJXRFWHRkYXRlOmNyZWF0ZQAyMDE3LTA2LTEyVDAzOjM0OjU4KzA4OjAwEQJG5QAAACV0RVh0ZGF0ZTptb2RpZnkAMjAxNi0wNC0xNlQxNjowMDowMCswODowMLzUBPIAAABUdEVYdHN2ZzpiYXNlLXVyaQBmaWxlOi8vL2hvbWUvZGIvc3ZnX2luZm8vc3ZnL2U1L2FkL2U1YWQ4NDEwM2E2ODRhMTc1OWYyMDgzODU5ODM0NmRjLnN2Z+dneRgAAAAASUVORK5CYII=;movable=0;resizable=0;rotatable=0;deletable=0;editable=0;locked=1;connectable=0;" vertex="1" parent="PAYdBrqbt7uTRZZeqFU2-21">
          <mxGeometry x="5.480000000000018" width="40" height="40" as="geometry" />
        </mxCell>
        <mxCell id="PAYdBrqbt7uTRZZeqFU2-22" value="microservice" style="rounded=0;whiteSpace=wrap;html=1;align=right;verticalAlign=top;spacing=5;strokeWidth=2;aspect=fixed;" vertex="1" parent="1">
          <mxGeometry x="2531.71" y="3029" width="265" height="265" as="geometry" />
        </mxCell>
        <mxCell id="PAYdBrqbt7uTRZZeqFU2-70" style="edgeStyle=orthogonalEdgeStyle;shape=connector;orthogonalLoop=1;jettySize=auto;html=1;entryX=0;entryY=0.75;entryDx=0;entryDy=0;labelBackgroundColor=default;strokeColor=default;fontFamily=Helvetica;fontSize=11;fontColor=default;endArrow=open;endFill=0;dashed=1;endSize=10;exitX=1;exitY=0.5;exitDx=0;exitDy=0;curved=1;" edge="1" parent="1" source="PAYdBrqbt7uTRZZeqFU2-24" target="PAYdBrqbt7uTRZZeqFU2-23">
          <mxGeometry relative="1" as="geometry" />
        </mxCell>
        <mxCell id="PAYdBrqbt7uTRZZeqFU2-23" value="" style="shape=image;verticalLabelPosition=bottom;labelBackgroundColor=default;verticalAlign=top;aspect=fixed;imageAspect=0;image=https://toplogos.ru/images/logo-postgresql.png;imageBorder=default;strokeWidth=1;" vertex="1" parent="1">
          <mxGeometry x="2682.06" y="3130" width="71.95" height="80" as="geometry" />
        </mxCell>
        <mxCell id="PAYdBrqbt7uTRZZeqFU2-24" value="GRPC&lt;br&gt;Server" style="rounded=0;whiteSpace=wrap;html=1;strokeWidth=1;fillColor=none;" vertex="1" parent="1">
          <mxGeometry x="2565.28" y="3190" width="70" height="60" as="geometry" />
        </mxCell>
        <mxCell id="PAYdBrqbt7uTRZZeqFU2-25" value="HTTP&lt;br&gt;Server" style="rounded=0;whiteSpace=wrap;html=1;strokeWidth=1;fillColor=none;" vertex="1" parent="1">
          <mxGeometry x="2566.9900000000002" y="3100" width="68.29" height="57.7" as="geometry" />
        </mxCell>
        <mxCell id="PAYdBrqbt7uTRZZeqFU2-55" style="edgeStyle=orthogonalEdgeStyle;rounded=1;orthogonalLoop=1;jettySize=auto;html=1;entryX=0;entryY=0.5;entryDx=0;entryDy=0;exitX=0;exitY=0.5;exitDx=0;exitDy=0;" edge="1" parent="1" source="PAYdBrqbt7uTRZZeqFU2-29" target="PAYdBrqbt7uTRZZeqFU2-24">
          <mxGeometry relative="1" as="geometry">
            <mxPoint x="2320" y="3250" as="targetPoint" />
            <Array as="points">
              <mxPoint x="2480" y="3828" />
              <mxPoint x="2480" y="3220" />
            </Array>
          </mxGeometry>
        </mxCell>
        <mxCell id="PAYdBrqbt7uTRZZeqFU2-27" value="" style="shape=image;verticalLabelPosition=bottom;labelBackgroundColor=default;verticalAlign=top;aspect=fixed;imageAspect=0;image=https://toplogos.ru/images/logo-postgresql.png;imageBorder=default;strokeWidth=1;" vertex="1" parent="1">
          <mxGeometry x="2683.3300000000004" y="3788" width="71.95" height="80" as="geometry" />
        </mxCell>
        <mxCell id="PAYdBrqbt7uTRZZeqFU2-72" style="edgeStyle=orthogonalEdgeStyle;shape=connector;rounded=1;orthogonalLoop=1;jettySize=auto;html=1;entryX=0;entryY=0.5;entryDx=0;entryDy=0;labelBackgroundColor=default;strokeColor=default;fontFamily=Helvetica;fontSize=11;fontColor=default;endArrow=open;endFill=0;dashed=1;endSize=10;" edge="1" parent="1" source="PAYdBrqbt7uTRZZeqFU2-29" target="PAYdBrqbt7uTRZZeqFU2-27">
          <mxGeometry relative="1" as="geometry" />
        </mxCell>
        <mxCell id="PAYdBrqbt7uTRZZeqFU2-29" value="HTTP&lt;br&gt;Server" style="rounded=0;whiteSpace=wrap;html=1;strokeWidth=1;fillColor=none;" vertex="1" parent="1">
          <mxGeometry x="2580" y="3798" width="70" height="60" as="geometry" />
        </mxCell>
        <mxCell id="PAYdBrqbt7uTRZZeqFU2-30" value="microservice" style="rounded=0;whiteSpace=wrap;html=1;align=right;verticalAlign=top;spacing=5;strokeWidth=2;aspect=fixed;" vertex="1" parent="1">
          <mxGeometry x="2526.99" y="4384" width="265" height="265" as="geometry" />
        </mxCell>
        <mxCell id="PAYdBrqbt7uTRZZeqFU2-75" style="edgeStyle=orthogonalEdgeStyle;shape=connector;rounded=1;orthogonalLoop=1;jettySize=auto;html=1;entryX=1;entryY=0.5;entryDx=0;entryDy=0;labelBackgroundColor=default;strokeColor=default;fontFamily=Helvetica;fontSize=11;fontColor=default;endArrow=open;exitX=0.5;exitY=1;exitDx=0;exitDy=0;dashed=1;endFill=0;endSize=10;" edge="1" parent="1" source="PAYdBrqbt7uTRZZeqFU2-32" target="PAYdBrqbt7uTRZZeqFU2-34">
          <mxGeometry relative="1" as="geometry" />
        </mxCell>
        <mxCell id="PAYdBrqbt7uTRZZeqFU2-32" value="HTTP&lt;br&gt;Server" style="rounded=0;whiteSpace=wrap;html=1;strokeWidth=1;fillColor=none;" vertex="1" parent="1">
          <mxGeometry x="2679.9999999999995" y="4424" width="70" height="60" as="geometry" />
        </mxCell>
        <mxCell id="PAYdBrqbt7uTRZZeqFU2-69" style="edgeStyle=orthogonalEdgeStyle;shape=connector;orthogonalLoop=1;jettySize=auto;html=1;entryX=0.5;entryY=0;entryDx=0;entryDy=0;labelBackgroundColor=default;strokeColor=default;fontFamily=Helvetica;fontSize=11;fontColor=default;endArrow=open;dashed=1;curved=1;endFill=0;endSize=10;" edge="1" parent="1" source="PAYdBrqbt7uTRZZeqFU2-33" target="PAYdBrqbt7uTRZZeqFU2-34">
          <mxGeometry relative="1" as="geometry" />
        </mxCell>
        <mxCell id="PAYdBrqbt7uTRZZeqFU2-80" style="edgeStyle=orthogonalEdgeStyle;shape=connector;rounded=1;orthogonalLoop=1;jettySize=auto;html=1;labelBackgroundColor=default;strokeColor=default;fontFamily=Helvetica;fontSize=11;fontColor=default;endArrow=classic;entryX=0;entryY=0.5;entryDx=0;entryDy=0;exitX=0;exitY=0.75;exitDx=0;exitDy=0;" edge="1" parent="1" source="PAYdBrqbt7uTRZZeqFU2-33" target="PAYdBrqbt7uTRZZeqFU2-38">
          <mxGeometry relative="1" as="geometry">
            <mxPoint x="2410" y="2840" as="targetPoint" />
            <Array as="points">
              <mxPoint x="2510" y="4470" />
              <mxPoint x="2510" y="4660" />
              <mxPoint x="2020" y="4660" />
              <mxPoint x="2020" y="2700" />
            </Array>
          </mxGeometry>
        </mxCell>
        <mxCell id="PAYdBrqbt7uTRZZeqFU2-33" value="Kafka&lt;br&gt;Consumer" style="rounded=0;whiteSpace=wrap;html=1;strokeWidth=1;fillColor=none;" vertex="1" parent="1">
          <mxGeometry x="2564.93" y="4424" width="70" height="60" as="geometry" />
        </mxCell>
        <mxCell id="PAYdBrqbt7uTRZZeqFU2-34" value="" style="shape=image;verticalLabelPosition=bottom;labelBackgroundColor=default;verticalAlign=top;aspect=fixed;imageAspect=0;image=https://console.kamatera.com/assets/images/os/os_clickhouse.png;imageBorder=default;strokeWidth=1;" vertex="1" parent="1">
          <mxGeometry x="2558.2600000000007" y="4549" width="83.33" height="50" as="geometry" />
        </mxCell>
        <mxCell id="PAYdBrqbt7uTRZZeqFU2-35" value="dictionary" style="text;html=1;strokeColor=none;fillColor=none;align=right;verticalAlign=bottom;whiteSpace=wrap;rounded=0;fontStyle=1" vertex="1" parent="1">
          <mxGeometry x="2531.71" y="3009" width="265" height="20" as="geometry" />
        </mxCell>
        <mxCell id="PAYdBrqbt7uTRZZeqFU2-36" value="exercise" style="text;html=1;strokeColor=none;fillColor=none;align=right;verticalAlign=bottom;whiteSpace=wrap;rounded=0;fontStyle=1" vertex="1" parent="1">
          <mxGeometry x="2531.71" y="3707" width="265" height="20" as="geometry" />
        </mxCell>
        <mxCell id="PAYdBrqbt7uTRZZeqFU2-37" value="analytics" style="text;html=1;strokeColor=none;fillColor=none;align=right;verticalAlign=bottom;whiteSpace=wrap;rounded=0;fontStyle=1" vertex="1" parent="1">
          <mxGeometry x="2526.99" y="4364" width="265" height="20" as="geometry" />
        </mxCell>
        <mxCell id="PAYdBrqbt7uTRZZeqFU2-38" value="" style="shape=image;verticalLabelPosition=bottom;labelBackgroundColor=default;verticalAlign=top;aspect=fixed;imageAspect=0;image=https://www.opencloudification.com/wp-content/uploads/2023/01/keycloak_logo.png;imageBorder=default;strokeWidth=2;imageBackground=default;" vertex="1" parent="1">
          <mxGeometry x="2531.71" y="2679.3999999999996" width="140.82" height="40.600000000000364" as="geometry" />
        </mxCell>
        <mxCell id="PAYdBrqbt7uTRZZeqFU2-67" style="edgeStyle=orthogonalEdgeStyle;shape=connector;rounded=1;orthogonalLoop=1;jettySize=auto;html=1;entryX=0;entryY=0.25;entryDx=0;entryDy=0;labelBackgroundColor=default;strokeColor=default;fontFamily=Helvetica;fontSize=11;fontColor=default;endArrow=classic;exitX=1;exitY=0.5;exitDx=0;exitDy=0;" edge="1" parent="1" source="PAYdBrqbt7uTRZZeqFU2-39" target="PAYdBrqbt7uTRZZeqFU2-33">
          <mxGeometry relative="1" as="geometry" />
        </mxCell>
        <mxCell id="PAYdBrqbt7uTRZZeqFU2-39" value="" style="shape=image;verticalLabelPosition=bottom;labelBackgroundColor=default;verticalAlign=top;aspect=fixed;imageAspect=0;image=https://www.felpfe.com/wp-content/uploads/sites/4/2023/06/kafka-logo-tall-apache-kafka-logo.jpg;imageBorder=default;strokeWidth=2;" vertex="1" parent="1">
          <mxGeometry x="2193.81" y="4385.85" width="172.38" height="107" as="geometry" />
        </mxCell>
        <mxCell id="PAYdBrqbt7uTRZZeqFU2-40" value="" style="shape=image;verticalLabelPosition=bottom;labelBackgroundColor=default;verticalAlign=top;aspect=fixed;imageAspect=0;image=https://miro.medium.com/v2/resize:fit:1400/1*o59-2_98TPsQQllPT2uzEw.png;imageBorder=default;strokeWidth=2;perimeterSpacing=0;" vertex="1" parent="1">
          <mxGeometry x="2756.4800000000005" y="4870" width="124.6" height="40.600000000000364" as="geometry" />
        </mxCell>
        <mxCell id="PAYdBrqbt7uTRZZeqFU2-41" value="" style="shape=image;verticalLabelPosition=bottom;labelBackgroundColor=default;verticalAlign=top;aspect=fixed;imageAspect=0;image=https://miro.medium.com/v2/resize:fit:1400/1*C3as2QUymjCBJi317gMgMg.png;strokeWidth=2;imageBorder=default;" vertex="1" parent="1">
          <mxGeometry x="2086.99" y="4860" width="145.87" height="40.600000000000364" as="geometry" />
        </mxCell>
        <mxCell id="PAYdBrqbt7uTRZZeqFU2-42" value="&lt;font style=&quot;&quot; face=&quot;Lucida Console&quot;&gt;HOST &lt;b&gt;http://keycloak.localhost&lt;/b&gt;&lt;/font&gt;&lt;hr&gt;&lt;font style=&quot;&quot; face=&quot;Lucida Console&quot;&gt;KEYCLOAK UI&lt;br&gt;&lt;br&gt;POST /realms/lingua-cat-go/protocol/openid-connect/token&lt;br&gt;GET&amp;nbsp; /admin/realms/lingua-cat-go/users/{user_id}&lt;br&gt;&lt;/font&gt;" style="rounded=0;whiteSpace=wrap;html=1;align=left;verticalAlign=top;spacing=5;" vertex="1" parent="1">
          <mxGeometry x="2531.71" y="2720" width="440" height="110" as="geometry" />
        </mxCell>
        <mxCell id="PAYdBrqbt7uTRZZeqFU2-43" style="edgeStyle=orthogonalEdgeStyle;orthogonalLoop=1;jettySize=auto;html=1;entryX=0.5;entryY=0;entryDx=0;entryDy=0;rounded=1;exitX=0.5;exitY=1;exitDx=0;exitDy=0;exitPerimeter=0;" edge="1" parent="1" source="PAYdBrqbt7uTRZZeqFU2-5" target="PAYdBrqbt7uTRZZeqFU2-38">
          <mxGeometry relative="1" as="geometry">
            <mxPoint x="2810" y="2630" as="sourcePoint" />
            <Array as="points">
              <mxPoint x="2661" y="2580" />
              <mxPoint x="2602" y="2580" />
            </Array>
          </mxGeometry>
        </mxCell>
        <mxCell id="PAYdBrqbt7uTRZZeqFU2-44" value="&lt;font style=&quot;&quot; face=&quot;Lucida Console&quot;&gt;HOST &lt;b&gt;http://api.lingua-cat-go.localhost/dictionary/&lt;/b&gt;&lt;/font&gt;&lt;hr&gt;&lt;font style=&quot;&quot; face=&quot;Lucida Console&quot;&gt;&lt;div&gt;&lt;div&gt;&lt;br&gt;&lt;/div&gt;&lt;div&gt;POST&amp;nbsp; &amp;nbsp;/v1/dictionary&lt;/div&gt;&lt;div&gt;POST&amp;nbsp; &amp;nbsp;/v1/dictionary/{id}/name&lt;/div&gt;&lt;div&gt;GET&amp;nbsp; &amp;nbsp; /v1/dictionary/{id}&lt;/div&gt;&lt;div&gt;DELETE /v1/dictionary/{id}&lt;/div&gt;&lt;/div&gt;&lt;div&gt;&lt;br&gt;&lt;/div&gt;&lt;div&gt;GET&amp;nbsp; &amp;nbsp; /grpc-gateway/v1/dictionary/random&lt;/div&gt;&lt;div&gt;GET&amp;nbsp; &amp;nbsp; /grpc-gateway/v1/dictionary&lt;br&gt;&lt;/div&gt;&lt;/font&gt;" style="rounded=0;whiteSpace=wrap;html=1;align=left;verticalAlign=top;spacing=5;" vertex="1" parent="1">
          <mxGeometry x="2531.71" y="3294" width="440" height="170" as="geometry" />
        </mxCell>
        <mxCell id="PAYdBrqbt7uTRZZeqFU2-45" value="&lt;font style=&quot;&quot; face=&quot;Lucida Console&quot;&gt;HOST &lt;b&gt;http://api.lingua-cat-go.localhost/exercise/&lt;/b&gt;&lt;/font&gt;&lt;hr&gt;&lt;font style=&quot;&quot; face=&quot;Lucida Console&quot;&gt;&lt;div&gt;&lt;br&gt;&lt;/div&gt;&lt;div&gt;&lt;div&gt;POST /v1/exercise&lt;/div&gt;&lt;div&gt;GET&amp;nbsp; /v1/exercise/{id}&lt;/div&gt;&lt;div&gt;POST /v1/exercise/{exer_id}/task&lt;/div&gt;&lt;div&gt;GET&amp;nbsp; /v1/exercise/{exer_id}/task/{task_id}&lt;/div&gt;&lt;div&gt;POST /v1/exercise/{exer_id}/task/{task_id}/word-selected&lt;/div&gt;&lt;/div&gt;&lt;/font&gt;" style="rounded=0;whiteSpace=wrap;html=1;align=left;verticalAlign=top;spacing=5;" vertex="1" parent="1">
          <mxGeometry x="2531.71" y="3992" width="440" height="140" as="geometry" />
        </mxCell>
        <mxCell id="PAYdBrqbt7uTRZZeqFU2-46" value="&lt;font style=&quot;&quot; face=&quot;Lucida Console&quot;&gt;HOST &lt;b&gt;http://api.lingua-cat-go.localhost/analytics/&lt;/b&gt;&lt;/font&gt;&lt;hr&gt;&lt;font style=&quot;&quot; face=&quot;Lucida Console&quot;&gt;&lt;div&gt;&lt;br&gt;&lt;/div&gt;&lt;div&gt;GET /v1/analytycs/user/{id}&lt;br&gt;&lt;/div&gt;&lt;/font&gt;" style="rounded=0;whiteSpace=wrap;html=1;align=left;verticalAlign=top;spacing=5;" vertex="1" parent="1">
          <mxGeometry x="2526.99" y="4649" width="440" height="86.7" as="geometry" />
        </mxCell>
        <mxCell id="PAYdBrqbt7uTRZZeqFU2-47" style="edgeStyle=orthogonalEdgeStyle;orthogonalLoop=1;jettySize=auto;html=1;entryX=0.5;entryY=0;entryDx=0;entryDy=0;rounded=1;exitX=0.85;exitY=1;exitDx=0;exitDy=0;exitPerimeter=0;" edge="1" parent="1" source="PAYdBrqbt7uTRZZeqFU2-5" target="PAYdBrqbt7uTRZZeqFU2-25">
          <mxGeometry relative="1" as="geometry">
            <mxPoint x="3050" y="2590" as="sourcePoint" />
            <Array as="points">
              <mxPoint x="3109" y="3070" />
              <mxPoint x="2601" y="3070" />
            </Array>
          </mxGeometry>
        </mxCell>
        <mxCell id="PAYdBrqbt7uTRZZeqFU2-48" value="Получить JWT-токен авторизации" style="text;html=1;strokeColor=none;fillColor=none;align=center;verticalAlign=middle;whiteSpace=wrap;rounded=0;" vertex="1" parent="1">
          <mxGeometry x="2612.53" y="2600" width="60" height="30" as="geometry" />
        </mxCell>
        <mxCell id="PAYdBrqbt7uTRZZeqFU2-52" value="&lt;ul&gt;&lt;li&gt;Создать слово с переводом&lt;/li&gt;&lt;li&gt;Изменить слово перевода&lt;/li&gt;&lt;li&gt;Получить слово с переводом&lt;/li&gt;&lt;li&gt;Удалить слово с переводом&lt;/li&gt;&lt;/ul&gt;" style="text;html=1;strokeColor=none;fillColor=none;align=left;verticalAlign=top;whiteSpace=wrap;rounded=0;" vertex="1" parent="1">
          <mxGeometry x="2890" y="2980" width="230" height="90" as="geometry" />
        </mxCell>
        <mxCell id="PAYdBrqbt7uTRZZeqFU2-53" style="edgeStyle=orthogonalEdgeStyle;rounded=1;orthogonalLoop=1;jettySize=auto;html=1;entryX=0.5;entryY=0;entryDx=0;entryDy=0;exitX=0.93;exitY=1;exitDx=0;exitDy=0;exitPerimeter=0;" edge="1" parent="1" source="PAYdBrqbt7uTRZZeqFU2-5" target="PAYdBrqbt7uTRZZeqFU2-29">
          <mxGeometry relative="1" as="geometry">
            <mxPoint x="3180" y="2600" as="sourcePoint" />
            <Array as="points">
              <mxPoint x="3212" y="3770" />
              <mxPoint x="2615" y="3770" />
            </Array>
          </mxGeometry>
        </mxCell>
        <mxCell id="PAYdBrqbt7uTRZZeqFU2-54" value="&lt;ul&gt;&lt;li&gt;Создать упражнение&lt;/li&gt;&lt;li&gt;Получить данные упражнения&lt;/li&gt;&lt;li&gt;Создать следующую задачу упражнения&lt;/li&gt;&lt;li&gt;Получить данные задачи упражнения&lt;/li&gt;&lt;li&gt;Выбрать слово (как правильный перевод) задачи упражнения&lt;/li&gt;&lt;/ul&gt;" style="text;html=1;strokeColor=none;fillColor=none;align=left;verticalAlign=top;whiteSpace=wrap;rounded=0;" vertex="1" parent="1">
          <mxGeometry x="2804.03" y="3662" width="405.27" height="110" as="geometry" />
        </mxCell>
        <mxCell id="PAYdBrqbt7uTRZZeqFU2-56" value="&lt;ul&gt;&lt;li&gt;Получить случайный набор слов для задачи упражнения&lt;/li&gt;&lt;li&gt;Получить набор слов по идентификаторам&lt;/li&gt;&lt;/ul&gt;" style="text;html=1;strokeColor=none;fillColor=none;align=left;verticalAlign=top;whiteSpace=wrap;rounded=0;" vertex="1" parent="1">
          <mxGeometry x="2100" y="3617" width="370" height="110" as="geometry" />
        </mxCell>
        <mxCell id="PAYdBrqbt7uTRZZeqFU2-57" value="&lt;font style=&quot;&quot; face=&quot;Lucida Console&quot;&gt;HOST&amp;nbsp;&lt;/font&gt;&lt;font face=&quot;Lucida Console&quot;&gt;&lt;b&gt;lcg-dictionary-backend:50051&lt;/b&gt;&lt;/font&gt;&lt;hr&gt;&lt;font style=&quot;&quot; face=&quot;Lucida Console&quot;&gt;&lt;div&gt;&lt;br&gt;&lt;/div&gt;&lt;div&gt;&lt;div&gt;dictionary.DictionaryService/GetRandomDictionaries&lt;/div&gt;&lt;div&gt;dictionary.DictionaryService/GetDictionaries&lt;/div&gt;&lt;/div&gt;&lt;/font&gt;" style="rounded=0;whiteSpace=wrap;html=1;align=left;verticalAlign=top;spacing=5;" vertex="1" parent="1">
          <mxGeometry x="2090" y="3523" width="380" height="104.35" as="geometry" />
        </mxCell>
        <mxCell id="PAYdBrqbt7uTRZZeqFU2-61" style="edgeStyle=orthogonalEdgeStyle;orthogonalLoop=1;jettySize=auto;html=1;entryX=1;entryY=0.5;entryDx=0;entryDy=0;exitX=0.75;exitY=1;exitDx=0;exitDy=0;curved=1;endArrow=open;endFill=0;dashed=1;endSize=10;" edge="1" parent="1" source="PAYdBrqbt7uTRZZeqFU2-60" target="PAYdBrqbt7uTRZZeqFU2-59">
          <mxGeometry relative="1" as="geometry">
            <mxPoint x="2860" y="3933" as="sourcePoint" />
          </mxGeometry>
        </mxCell>
        <mxCell id="PAYdBrqbt7uTRZZeqFU2-66" style="edgeStyle=orthogonalEdgeStyle;rounded=1;orthogonalLoop=1;jettySize=auto;html=1;entryX=0;entryY=0.5;entryDx=0;entryDy=0;" edge="1" parent="1" source="PAYdBrqbt7uTRZZeqFU2-59" target="PAYdBrqbt7uTRZZeqFU2-39">
          <mxGeometry relative="1" as="geometry">
            <Array as="points">
              <mxPoint x="2040" y="3945" />
              <mxPoint x="2040" y="4439" />
            </Array>
          </mxGeometry>
        </mxCell>
        <mxCell id="PAYdBrqbt7uTRZZeqFU2-59" value="Kafka&lt;br&gt;Producer" style="rounded=0;whiteSpace=wrap;html=1;strokeWidth=1;fillColor=none;" vertex="1" parent="1">
          <mxGeometry x="2580" y="3915" width="70" height="60" as="geometry" />
        </mxCell>
        <mxCell id="PAYdBrqbt7uTRZZeqFU2-63" value="&lt;font style=&quot;&quot; face=&quot;Lucida Console&quot;&gt;HOST&amp;nbsp;&lt;/font&gt;&lt;font face=&quot;Lucida Console&quot;&gt;&lt;b&gt;http://kafka-ui.localhost/&lt;/b&gt;&lt;/font&gt;&lt;hr&gt;&lt;font style=&quot;&quot; face=&quot;Lucida Console&quot;&gt;&lt;div&gt;&lt;span style=&quot;background-color: initial;&quot;&gt;KAFKA UI&lt;/span&gt;&lt;br&gt;&lt;/div&gt;&lt;div&gt;&lt;span style=&quot;background-color: initial;&quot;&gt;&lt;br&gt;&lt;/span&gt;&lt;/div&gt;&lt;div&gt;topics&lt;/div&gt;&lt;div&gt;&lt;ul&gt;&lt;li&gt;&lt;span style=&quot;background-color: initial;&quot;&gt;lcg_exercise_completed&lt;/span&gt;&lt;/li&gt;&lt;/ul&gt;&lt;/div&gt;&lt;/font&gt;" style="rounded=0;whiteSpace=wrap;html=1;align=left;verticalAlign=top;spacing=5;" vertex="1" parent="1">
          <mxGeometry x="2116.19" y="4492.85" width="250" height="127.15" as="geometry" />
        </mxCell>
        <mxCell id="PAYdBrqbt7uTRZZeqFU2-65" value="&lt;font style=&quot;&quot; face=&quot;Lucida Console&quot;&gt;TOPIC&amp;nbsp;&lt;/font&gt;&lt;font face=&quot;Lucida Console&quot;&gt;&lt;b&gt;lcg_exercise_completed&lt;/b&gt;&lt;/font&gt;&lt;hr&gt;&lt;font style=&quot;&quot; face=&quot;Lucida Console&quot;&gt;&lt;div&gt;&lt;div&gt;&lt;br&gt;&lt;/div&gt;&lt;div&gt;&lt;div&gt;{&lt;/div&gt;&lt;div&gt;&amp;nbsp; &amp;nbsp; &quot;user_id&quot;: &quot;11c65e41-2496-43af-ac4c-daa898c24664&quot;,&lt;/div&gt;&lt;div&gt;&amp;nbsp; &amp;nbsp; &quot;exercise_id&quot;: 84,&lt;/div&gt;&lt;div&gt;&amp;nbsp; &amp;nbsp; &quot;exercise_lang&quot;: &quot;en&quot;,&lt;/div&gt;&lt;div&gt;&amp;nbsp; &amp;nbsp; &quot;spent_time&quot;: 324,&lt;/div&gt;&lt;div&gt;&amp;nbsp; &amp;nbsp; &quot;words_count&quot;: 10,&lt;/div&gt;&lt;div&gt;&amp;nbsp; &amp;nbsp; &quot;words_corrected_count&quot;: 7&lt;/div&gt;&lt;div&gt;}&lt;/div&gt;&lt;/div&gt;&lt;/div&gt;&lt;/font&gt;" style="rounded=0;whiteSpace=wrap;html=1;align=left;verticalAlign=top;spacing=5;" vertex="1" parent="1">
          <mxGeometry x="2058.6000000000004" y="4073" width="411.4" height="183" as="geometry" />
        </mxCell>
        <mxCell id="PAYdBrqbt7uTRZZeqFU2-68" value="lcg_exercise_completed" style="text;html=1;strokeColor=none;fillColor=none;align=center;verticalAlign=middle;whiteSpace=wrap;rounded=0;fontSize=11;fontFamily=Helvetica;fontColor=default;" vertex="1" parent="1">
          <mxGeometry x="2371.67" y="4443" width="140" height="30" as="geometry" />
        </mxCell>
        <mxCell id="PAYdBrqbt7uTRZZeqFU2-73" style="edgeStyle=orthogonalEdgeStyle;shape=connector;orthogonalLoop=1;jettySize=auto;html=1;entryX=0;entryY=0.25;entryDx=0;entryDy=0;labelBackgroundColor=default;strokeColor=default;fontFamily=Helvetica;fontSize=11;fontColor=default;endArrow=open;endFill=0;dashed=1;endSize=10;exitX=1;exitY=0.5;exitDx=0;exitDy=0;curved=1;" edge="1" parent="1" source="PAYdBrqbt7uTRZZeqFU2-25" target="PAYdBrqbt7uTRZZeqFU2-23">
          <mxGeometry relative="1" as="geometry">
            <mxPoint x="2632" y="3199" as="sourcePoint" />
            <mxPoint x="2654" y="3170" as="targetPoint" />
          </mxGeometry>
        </mxCell>
        <mxCell id="PAYdBrqbt7uTRZZeqFU2-74" style="edgeStyle=orthogonalEdgeStyle;rounded=1;orthogonalLoop=1;jettySize=auto;html=1;entryX=1;entryY=0.5;entryDx=0;entryDy=0;exitX=0.98;exitY=1;exitDx=0;exitDy=0;exitPerimeter=0;" edge="1" parent="1" source="PAYdBrqbt7uTRZZeqFU2-5" target="PAYdBrqbt7uTRZZeqFU2-32">
          <mxGeometry relative="1" as="geometry">
            <mxPoint x="3290" y="2660" as="sourcePoint" />
            <mxPoint x="2625" y="3615" as="targetPoint" />
            <Array as="points">
              <mxPoint x="3276" y="4454" />
            </Array>
          </mxGeometry>
        </mxCell>
        <mxCell id="PAYdBrqbt7uTRZZeqFU2-76" value="&lt;div&gt;Отправляем сообщение со статистикой, если закончили упражнение&lt;/div&gt;" style="text;html=1;strokeColor=none;fillColor=none;align=right;verticalAlign=bottom;whiteSpace=wrap;rounded=0;" vertex="1" parent="1">
          <mxGeometry x="2230" y="4033" width="240" height="40" as="geometry" />
        </mxCell>
        <mxCell id="PAYdBrqbt7uTRZZeqFU2-77" value="&lt;font style=&quot;&quot; face=&quot;Lucida Console&quot;&gt;HOST&amp;nbsp;&lt;/font&gt;&lt;font face=&quot;Lucida Console&quot;&gt;&lt;b&gt;http://jaeger.localhost/&lt;/b&gt;&lt;/font&gt;&lt;hr&gt;&lt;font style=&quot;&quot; face=&quot;Lucida Console&quot;&gt;&lt;div&gt;&lt;span style=&quot;background-color: initial;&quot;&gt;JAEGER UI&lt;/span&gt;&lt;br&gt;&lt;/div&gt;&lt;div&gt;&lt;span style=&quot;background-color: initial;&quot;&gt;&lt;br&gt;&lt;/span&gt;&lt;/div&gt;&lt;div&gt;operations&lt;/div&gt;&lt;div&gt;&lt;ul&gt;&lt;li&gt;&lt;span style=&quot;background-color: initial;&quot;&gt;dictionary-http&lt;/span&gt;&lt;/li&gt;&lt;li&gt;&lt;span style=&quot;background-color: initial;&quot;&gt;exercise-http&lt;/span&gt;&lt;/li&gt;&lt;li&gt;&lt;span style=&quot;background-color: initial;&quot;&gt;analytics-http&lt;/span&gt;&lt;/li&gt;&lt;li&gt;&lt;span style=&quot;background-color: initial;&quot;&gt;grpc-gateway&lt;/span&gt;&lt;/li&gt;&lt;/ul&gt;&lt;/div&gt;&lt;/font&gt;" style="rounded=0;whiteSpace=wrap;html=1;align=left;verticalAlign=top;spacing=5;" vertex="1" parent="1">
          <mxGeometry x="2756.4799999999996" y="4910.6" width="533.01" height="164.4" as="geometry" />
        </mxCell>
        <mxCell id="PAYdBrqbt7uTRZZeqFU2-78" value="&lt;font style=&quot;&quot; face=&quot;Lucida Console&quot;&gt;HOST&amp;nbsp;&lt;/font&gt;&lt;font face=&quot;Lucida Console&quot;&gt;&lt;b&gt;http://swagger.localhost/&lt;/b&gt;&lt;/font&gt;&lt;hr&gt;&lt;font style=&quot;&quot; face=&quot;Lucida Console&quot;&gt;&lt;div&gt;&lt;span style=&quot;background-color: initial;&quot;&gt;SWAGGER UI&lt;/span&gt;&lt;br&gt;&lt;/div&gt;&lt;div&gt;&lt;span style=&quot;background-color: initial;&quot;&gt;&lt;br&gt;&lt;/span&gt;&lt;/div&gt;&lt;div&gt;&lt;span style=&quot;background-color: initial;&quot;&gt;schemes&lt;/span&gt;&lt;/div&gt;&lt;div&gt;&lt;span style=&quot;background-color: initial;&quot;&gt;&lt;div&gt;&lt;ul&gt;&lt;li&gt;http://api.lingua-cat-go.localhost/dictionary/swagger.json&lt;/li&gt;&lt;li&gt;http://api.lingua-cat-go.localhost/dictionary/grpc-gw-swagger.json&lt;/li&gt;&lt;li&gt;http://api.lingua-cat-go.localhost/exercise/swagger.json&lt;/li&gt;&lt;li&gt;http://api.lingua-cat-go.localhost/analytics/swagger.json&lt;/li&gt;&lt;/ul&gt;&lt;/div&gt;&lt;/span&gt;&lt;/div&gt;&lt;/font&gt;" style="rounded=0;whiteSpace=wrap;html=1;align=left;verticalAlign=top;spacing=5;" vertex="1" parent="1">
          <mxGeometry x="2086.99" y="4900.6" width="533.01" height="174.4" as="geometry" />
        </mxCell>
        <mxCell id="PAYdBrqbt7uTRZZeqFU2-79" value="&lt;ul&gt;&lt;li&gt;Получить статистику по пользователю&lt;/li&gt;&lt;/ul&gt;" style="text;html=1;strokeColor=none;fillColor=none;align=left;verticalAlign=top;whiteSpace=wrap;rounded=0;" vertex="1" parent="1">
          <mxGeometry x="2990" y="4403" width="270" height="40" as="geometry" />
        </mxCell>
        <mxCell id="PAYdBrqbt7uTRZZeqFU2-81" value="Получить имя пользователя" style="text;html=1;strokeColor=none;fillColor=none;align=left;verticalAlign=top;whiteSpace=wrap;rounded=0;" vertex="1" parent="1">
          <mxGeometry x="2419.16" y="2710" width="101.67" height="50" as="geometry" />
        </mxCell>
        <mxCell id="PAYdBrqbt7uTRZZeqFU2-82" value="" style="group" vertex="1" connectable="0" parent="1">
          <mxGeometry x="2020" y="2507" width="1281.5" height="50" as="geometry" />
        </mxCell>
        <mxCell id="PAYdBrqbt7uTRZZeqFU2-5" value="" style="rounded=0;whiteSpace=wrap;html=1;fillColor=default;part=0;editable=1;movable=1;resizable=1;rotatable=1;deletable=1;locked=0;connectable=1;strokeWidth=2;points=[[0,0,0,0,0],[0,0.25,0,0,0],[0,0.5,0,0,0],[0,0.75,0,0,0],[0,1,0,0,0],[0.25,0,0,0,0],[0.25,1,0,0,0],[0.5,0,0,0,0],[0.5,1,0,0,0],[0.75,0,0,0,0],[0.75,1,0,0,0],[0.85,1,0,0,0],[0.93,1,0,0,0],[0.98,1,0,0,0],[1,0,0,0,0],[1,0.25,0,0,0],[1,0.5,0,0,0],[1,0.75,0,0,0],[1,1,0,0,0]];" vertex="1" parent="PAYdBrqbt7uTRZZeqFU2-82">
          <mxGeometry width="1281.4999999999998" height="50.00000000000001" as="geometry" />
        </mxCell>
        <mxCell id="PAYdBrqbt7uTRZZeqFU2-9" value="" style="shape=image;verticalLabelPosition=bottom;labelBackgroundColor=default;verticalAlign=top;aspect=fixed;imageAspect=0;image=https://upload.wikimedia.org/wikipedia/commons/thumb/1/1b/Traefik.logo.png/1200px-Traefik.logo.png;clipPath=inset(81.67% 0% 0% 0%);connectable=0;editable=0;movable=0;resizable=0;rotatable=0;deletable=0;locked=1;allowArrows=0;expand=0;cloneable=0;pointerEvents=0;" vertex="1" parent="PAYdBrqbt7uTRZZeqFU2-82">
          <mxGeometry x="518.0299999999997" y="7.260000000000218" width="140" height="35.48" as="geometry" />
        </mxCell>
        <mxCell id="PAYdBrqbt7uTRZZeqFU2-4" value="&lt;b style=&quot;&quot;&gt;&lt;font style=&quot;font-size: 14px;&quot;&gt;gateway API&lt;/font&gt;&lt;/b&gt;" style="text;html=1;strokeColor=none;fillColor=none;align=left;verticalAlign=middle;whiteSpace=wrap;rounded=0;fontSize=10;connectable=0;editable=0;movable=0;resizable=0;rotatable=0;deletable=0;locked=1;allowArrows=0;expand=0;cloneable=0;pointerEvents=0;imageAspect=0;" vertex="1" parent="PAYdBrqbt7uTRZZeqFU2-82">
          <mxGeometry x="658.0300000000002" y="10" width="171.5" height="30" as="geometry" />
        </mxCell>
        <mxCell id="PAYdBrqbt7uTRZZeqFU2-83" value="" style="rounded=0;whiteSpace=wrap;html=1;fontFamily=Helvetica;fontSize=11;fontColor=default;fillColor=none;strokeColor=none;" vertex="1" parent="1">
          <mxGeometry x="2531.71" y="5100" width="297.47" height="20" as="geometry" />
        </mxCell>
        <mxCell id="PAYdBrqbt7uTRZZeqFU2-84" value="" style="rounded=0;whiteSpace=wrap;html=1;fontFamily=Helvetica;fontSize=11;fontColor=default;fillColor=none;strokeColor=none;" vertex="1" parent="1">
          <mxGeometry x="2510.75" y="2380" width="297.47" height="20" as="geometry" />
        </mxCell>
      </root>
    </mxGraphModel>
  </diagram>
</mxfile>
